<?xml version="1.0" encoding="UTF-8"?>
<svg width="10px" height="10px" viewBox="0 0 10 10" version="1.1" xmlns="http://www.w3.org/2000/svg" xmlns:xlink="http://www.w3.org/1999/xlink">
    <title>i-star-bullet</title>
    <g id="pricing" stroke="none" stroke-width="1" fill="none" fill-rule="evenodd">
        <g id="worth-it-1-month-plan" transform="translate(-740.000000, -653.000000)" fill="#4DBEDD" fill-rule="nonzero">
            <g id="Group-9" transform="translate(222.000000, 649.000000)">
                <g id="Group-2" transform="translate(125.000000, 0.000000)">
                    <path d="M402.840683,8.82994856 C402.521069,8.77499482 402.211437,8.70012 401.920357,8.60740092 C399.78669,7.92778895 398.580534,6.27663519 398.183685,4.15103741 C398.146005,3.94966786 397.839316,3.94964053 397.801637,4.15103741 C397.34042,6.62097739 395.805418,8.36766486 393.157881,8.83309112 C392.947325,8.8700913 392.947383,9.15748491 393.157997,9.19440312 C395.781096,9.65395416 397.342959,11.3973351 397.802589,13.8475726 C397.831527,14.0019405 398.003624,14.0027329 397.993815,13.9991532 C398.087899,13.9990439 398.168394,13.9349357 398.184637,13.8471901 C398.41865,12.5836365 399.075651,10.8669809 400.876922,9.86469673 C401.45236,9.54481182 402.113227,9.31832915 402.841116,9.19145185 C402.933238,9.17541115 403.000115,9.09927931 403,9.01054991 C402.999884,8.92179319 402.932834,8.84579798 402.840683,8.82994856 Z" id="i-star-bullet"></path>
                </g>
            </g>
        </g>
    </g>
</svg>