<?xml version="1.0" encoding="UTF-8"?>
<svg width="29px" height="29px" viewBox="0 0 29 29" version="1.1" xmlns="http://www.w3.org/2000/svg" xmlns:xlink="http://www.w3.org/1999/xlink">
    <title>i-whatsapp</title>
    <g id="Home" stroke="none" stroke-width="1" fill="none" fill-rule="evenodd">
        <g id="Extra-Large-Copy-2" transform="translate(-771.000000, -51.000000)" fill="#FFFFFF">
            <g id="i-whatsapp" transform="translate(771.000000, 51.000000)">
                <path d="M24.7745365,4.21412162 C22.0487784,1.49795707 18.4235371,0.00137806439 14.5608986,0 C6.60160769,0 0.123931488,6.4459053 0.121161988,14.3690841 C0.119777238,16.9019423 0.785131424,19.3741928 2.04868064,21.5529447 L0,29 L7.65467815,27.0017886 C9.76357406,28.1470022 12.1383516,28.7498728 14.5546958,28.7505944 L14.5608986,28.7505944 C22.51882,28.7505944 28.9972583,22.3039675 29,14.3807888 C29.0013666,10.5408558 27.5010196,6.93098365 24.7745365,4.21481108 L24.7745365,4.21412162 Z M14.5608986,26.3237997 L14.5560653,26.3237997 C12.4028155,26.3231583 10.2904879,25.7470642 8.44745752,24.6590912 L8.00917089,24.4000652 L3.46662744,25.5858444 L4.6789401,21.1780746 L4.39368485,20.726082 C3.19244858,18.824394 2.55755809,16.6263214 2.55894138,14.3698056 C2.56171475,7.78469492 7.94546756,2.42677063 14.5658125,2.42677063 C17.7713594,2.42814953 20.7845397,3.67185876 23.0505672,5.9298176 C25.3166753,8.18709501 26.5635947,11.1885408 26.5622263,14.3794259 C26.5594058,20.965226 21.1757174,26.3231583 14.5608986,26.3231583 L14.5608986,26.3237997 Z M21.1438174,17.3787873 C20.7830897,17.1989683 19.009337,16.3307384 18.6783343,16.2108858 C18.3474121,16.0909531 18.1071955,16.0310669 17.8668983,16.3907048 C17.6266816,16.750423 16.9350317,17.5593278 16.72454,17.7983916 C16.5140484,18.038177 16.3035568,18.0678395 15.942829,17.8879404 C15.5821818,17.7081214 14.4196847,17.3291627 13.0412182,16.106105 C11.9687822,15.1538581 11.2445072,13.9784207 11.0340962,13.6187026 C10.8236045,13.2590646 11.0119434,13.0647351 11.1919045,12.8862789 C11.3539017,12.7250592 11.5526322,12.4666746 11.7333183,12.2571931 C11.914085,12.0477116 11.9736155,11.8975551 12.0940461,11.6584111 C12.2145572,11.4186257 12.1543016,11.2092244 12.0643211,11.0293253 C11.97426,10.8495063 11.252885,9.08210131 10.9516878,8.36346673 C10.6587879,7.66342333 10.3611351,7.75851173 10.1402518,7.74679905 C9.92976015,7.73645725 9.68954351,7.73439691 9.44860186,7.73439691 C9.20766022,7.73439691 8.81712692,7.82396969 8.48620473,8.18364774 C8.15528254,8.54328571 7.22334347,9.41215693 7.22334347,11.1788404 C7.22334347,12.9455238 8.51601029,14.6536839 8.69669638,14.8934693 C8.87738247,15.1332546 11.2410434,18.7596175 14.8600013,20.3154566 C15.7206568,20.6854363 16.3928929,20.9066225 16.9169873,21.0720111 C17.7811066,21.3455476 18.5675704,21.3069863 19.1892981,21.2146317 C19.8823981,21.1112939 21.323859,20.3457604 21.6243312,19.5071931 C21.9248034,18.6686257 21.9248034,17.9492696 21.8348229,17.7997545 C21.7448423,17.6502394 21.5039007,17.5599691 21.143173,17.3801502 L21.1438174,17.3787873 Z" id="Shape"></path>
            </g>
        </g>
    </g>
</svg>