<?xml version="1.0" encoding="UTF-8"?>
<svg width="26px" height="20px" viewBox="0 0 26 20" version="1.1" xmlns="http://www.w3.org/2000/svg" xmlns:xlink="http://www.w3.org/1999/xlink">
    <title>i-youtube</title>
    <g id="pricing" stroke="none" stroke-width="1" fill="none" fill-rule="evenodd">
        <g id="worth-it-personal-couples-plan" transform="translate(-242.000000, -1002.000000)">
            <g id="Group-8" transform="translate(243.000000, 999.000000)">
                <g id="i-youtube" transform="translate(0.000000, 4.000000)">
                    <path d="M22.8065,1.34306872 C21.894,0.323637441 20.871,0.318305687 20.4015,0.258590047 C17.043,0 12.0055,0 12.0055,0 L11.995,0 C11.995,0 6.957,0 3.5985,0.258590047 C3.1295,0.318305687 2.107,0.323637441 1.194,1.34306872 C0.4745,2.11937204 0.24,3.88311611 0.24,3.88311611 C0.24,3.88311611 0,5.95396919 0,8.02535545 L0,9.96664692 C0,12.0380332 0.24,14.1088863 0.24,14.1088863 C0.24,14.1088863 0.4745,15.8726303 1.194,16.6489336 C2.107,17.6683649 3.306,17.6363744 3.8405,17.7430095 C5.7605,17.939218 12,18 12,18 C12,18 17.043,17.9920024 20.4015,17.7328791 C20.871,17.6731635 21.894,17.6683649 22.8065,16.6489336 C23.526,15.8726303 23.7605,14.1088863 23.7605,14.1088863 C23.7605,14.1088863 24,12.0380332 24,9.96664692 L24,8.02535545 C24,5.95396919 23.7605,3.88311611 23.7605,3.88311611 C23.7605,3.88311611 23.526,2.11937204 22.8065,1.34306872 Z" id="Fill-130" stroke="#413C58" stroke-width="2"></path>
                    <polygon id="Fill-131" fill="#413C58" points="9.00092521 12 9 6 15 9.01045451"></polygon>
                </g>
            </g>
        </g>
    </g>
</svg>