<svg width="400" height="400" viewBox="0 0 400 400" fill="none" xmlns="http://www.w3.org/2000/svg">
<path fill-rule="evenodd" clip-rule="evenodd" d="M99.6893 387.191C99.5637 387.053 99.501 386.879 99.501 386.667V365.903C99.501 365.67 99.5637 365.484 99.6893 365.346C99.8148 365.209 99.9822 365.14 100.191 365.14H112.934C113.164 365.14 113.347 365.209 113.483 365.346C113.619 365.484 113.687 365.67 113.687 365.903V367.079C113.687 367.291 113.619 367.466 113.483 367.604C113.347 367.742 113.164 367.811 112.934 367.811H102.42V375.347H112.306C112.536 375.347 112.719 375.416 112.855 375.553C112.991 375.691 113.059 375.866 113.059 376.078V377.286C113.059 377.498 112.986 377.673 112.84 377.811C112.693 377.949 112.515 378.018 112.306 378.018H102.42V386.667C102.42 386.879 102.347 387.053 102.2 387.191C102.054 387.329 101.876 387.398 101.667 387.398H100.191C99.9822 387.398 99.8148 387.329 99.6893 387.191ZM117.343 367.54C117.207 367.403 117.139 367.228 117.139 367.016V365.362C117.139 365.15 117.207 364.97 117.343 364.822C117.479 364.673 117.652 364.599 117.861 364.599H119.713C119.922 364.599 120.1 364.673 120.247 364.822C120.393 364.97 120.466 365.15 120.466 365.362V367.016C120.466 367.228 120.393 367.403 120.247 367.54C120.1 367.678 119.922 367.747 119.713 367.747H117.861C117.652 367.747 117.479 367.678 117.343 367.54ZM117.595 387.191C117.459 387.054 117.391 386.879 117.391 386.667V371.595C117.391 371.383 117.459 371.208 117.595 371.07C117.731 370.932 117.903 370.863 118.112 370.863H119.493C119.703 370.863 119.875 370.932 120.011 371.07C120.147 371.208 120.215 371.383 120.215 371.595V386.667C120.215 386.879 120.147 387.054 120.011 387.191C119.875 387.329 119.703 387.398 119.493 387.398H118.112C117.903 387.398 117.731 387.329 117.595 387.191ZM126.335 381.833V373.312H123.856C123.647 373.312 123.479 373.248 123.354 373.121C123.228 372.994 123.165 372.824 123.165 372.612V371.595C123.165 371.383 123.228 371.208 123.354 371.07C123.479 370.932 123.647 370.863 123.856 370.863H126.335V365.553C126.335 365.341 126.398 365.166 126.524 365.028C126.649 364.891 126.816 364.822 127.026 364.822H128.407C128.616 364.822 128.789 364.891 128.925 365.028C129.061 365.166 129.129 365.341 129.129 365.553V370.863H133.02C133.23 370.863 133.402 370.932 133.538 371.07C133.674 371.208 133.742 371.383 133.742 371.595V372.612C133.742 372.824 133.674 372.994 133.538 373.121C133.402 373.248 133.23 373.312 133.02 373.312H129.129V381.611C129.129 382.692 129.301 383.508 129.646 384.059C129.992 384.61 130.583 384.886 131.42 384.886H133.334C133.543 384.886 133.711 384.955 133.836 385.093C133.962 385.23 134.025 385.405 134.025 385.617V386.667C134.025 386.879 133.962 387.053 133.836 387.191C133.711 387.329 133.543 387.398 133.334 387.398H131.2C127.957 387.398 126.335 385.543 126.335 381.833ZM137.304 387.191C137.168 387.054 137.1 386.879 137.1 386.667V371.595C137.1 371.383 137.168 371.208 137.304 371.07C137.44 370.932 137.613 370.863 137.822 370.863H139.172C139.402 370.863 139.58 370.927 139.705 371.054C139.831 371.181 139.894 371.361 139.894 371.595V372.994C140.521 372.209 141.248 371.605 142.075 371.181C142.901 370.757 143.932 370.545 145.166 370.545C147.175 370.545 148.734 371.197 149.843 372.501C150.952 373.805 151.506 375.527 151.506 377.668V386.667C151.506 386.879 151.438 387.054 151.302 387.191C151.166 387.329 150.993 387.398 150.784 387.398H149.341C149.131 387.398 148.959 387.329 148.823 387.191C148.687 387.054 148.619 386.879 148.619 386.667V377.859C148.619 376.332 148.253 375.145 147.52 374.297C146.788 373.449 145.742 373.025 144.382 373.025C143.043 373.025 141.976 373.455 141.18 374.313C140.385 375.172 139.988 376.354 139.988 377.859V386.667C139.988 386.879 139.92 387.054 139.784 387.191C139.648 387.329 139.475 387.398 139.266 387.398H137.822C137.613 387.398 137.44 387.329 137.304 387.191ZM157.407 385.697C156.13 384.351 155.429 382.512 155.304 380.18L155.272 379.099L155.304 378.05C155.429 375.76 156.13 373.937 157.407 372.58C158.683 371.224 160.388 370.545 162.522 370.545C164.824 370.545 166.608 371.287 167.873 372.771C169.139 374.255 169.772 376.269 169.772 378.813V379.385C169.772 379.597 169.704 379.772 169.568 379.91C169.432 380.047 169.26 380.116 169.05 380.116H158.16V380.403C158.223 381.78 158.641 382.957 159.415 383.932C160.189 384.907 161.215 385.395 162.491 385.395C163.474 385.395 164.275 385.199 164.892 384.806C165.509 384.414 165.975 384.006 166.289 383.582C166.477 383.328 166.623 383.174 166.728 383.121C166.833 383.068 167.01 383.042 167.261 383.042H168.642C168.831 383.042 168.993 383.095 169.129 383.201C169.265 383.307 169.333 383.444 169.333 383.614C169.333 384.08 169.05 384.642 168.485 385.299C167.921 385.957 167.12 386.524 166.085 387.001C165.049 387.477 163.861 387.716 162.522 387.716C160.388 387.716 158.683 387.043 157.407 385.697ZM166.916 377.954V377.859C166.916 376.375 166.519 375.167 165.724 374.234C164.928 373.301 163.861 372.835 162.522 372.835C161.162 372.835 160.095 373.301 159.321 374.234C158.547 375.167 158.16 376.375 158.16 377.859V377.954H166.916ZM175.531 387.001C174.538 386.524 173.8 385.978 173.319 385.363C172.838 384.748 172.597 384.239 172.597 383.837C172.597 383.625 172.67 383.46 172.817 383.344C172.963 383.227 173.12 383.169 173.287 383.169H174.606C174.731 383.169 174.83 383.19 174.904 383.233C174.977 383.275 175.076 383.37 175.202 383.519C175.683 384.112 176.222 384.579 176.818 384.918C177.415 385.257 178.215 385.427 179.219 385.427C180.349 385.427 181.254 385.215 181.934 384.791C182.614 384.367 182.954 383.752 182.954 382.946C182.954 382.416 182.808 381.992 182.515 381.674C182.222 381.356 181.735 381.07 181.055 380.816C180.375 380.562 179.366 380.286 178.027 379.989C176.206 379.586 174.919 379.003 174.166 378.24C173.413 377.477 173.036 376.491 173.036 375.283C173.036 374.499 173.266 373.741 173.727 373.01C174.187 372.278 174.872 371.685 175.783 371.229C176.693 370.773 177.775 370.545 179.031 370.545C180.349 370.545 181.474 370.768 182.405 371.213C183.336 371.658 184.037 372.178 184.508 372.771C184.978 373.365 185.214 373.863 185.214 374.266C185.214 374.456 185.146 374.615 185.01 374.743C184.874 374.87 184.712 374.933 184.523 374.933H183.331C183.038 374.933 182.828 374.817 182.703 374.584C182.347 374.181 182.049 373.868 181.808 373.646C181.568 373.423 181.217 373.232 180.757 373.073C180.297 372.914 179.721 372.835 179.031 372.835C178.006 372.835 177.221 373.052 176.677 373.487C176.133 373.921 175.861 374.499 175.861 375.22C175.861 375.665 175.976 376.041 176.206 376.348C176.436 376.656 176.876 376.942 177.524 377.207C178.173 377.472 179.135 377.742 180.412 378.018C182.4 378.442 183.807 379.046 184.633 379.83C185.46 380.615 185.873 381.621 185.873 382.851C185.873 383.762 185.617 384.589 185.104 385.331C184.591 386.073 183.828 386.656 182.813 387.08C181.798 387.504 180.59 387.716 179.188 387.716C177.744 387.716 176.525 387.477 175.531 387.001ZM191.475 387.001C190.481 386.524 189.744 385.978 189.262 385.363C188.781 384.748 188.541 384.239 188.541 383.837C188.541 383.625 188.614 383.46 188.76 383.344C188.907 383.227 189.064 383.169 189.231 383.169H190.549C190.675 383.169 190.774 383.19 190.847 383.233C190.921 383.275 191.02 383.37 191.145 383.519C191.627 384.112 192.166 384.579 192.762 384.918C193.358 385.257 194.158 385.427 195.163 385.427C196.293 385.427 197.198 385.215 197.878 384.791C198.558 384.367 198.898 383.752 198.898 382.946C198.898 382.416 198.751 381.992 198.458 381.674C198.165 381.356 197.679 381.07 196.999 380.816C196.319 380.562 195.309 380.286 193.97 379.989C192.15 379.586 190.863 379.003 190.11 378.24C189.357 377.477 188.98 376.491 188.98 375.283C188.98 374.499 189.21 373.741 189.67 373.01C190.131 372.278 190.816 371.685 191.726 371.229C192.636 370.773 193.719 370.545 194.974 370.545C196.293 370.545 197.417 370.768 198.348 371.213C199.279 371.658 199.98 372.178 200.451 372.771C200.922 373.365 201.157 373.863 201.157 374.266C201.157 374.456 201.089 374.615 200.953 374.743C200.817 374.87 200.655 374.933 200.467 374.933H199.274C198.981 374.933 198.772 374.817 198.647 374.584C198.291 374.181 197.993 373.868 197.752 373.646C197.511 373.423 197.161 373.232 196.701 373.073C196.24 372.914 195.665 372.835 194.974 372.835C193.949 372.835 193.165 373.052 192.621 373.487C192.077 373.921 191.805 374.499 191.805 375.22C191.805 375.665 191.92 376.041 192.15 376.348C192.38 376.656 192.819 376.942 193.468 377.207C194.117 377.472 195.079 377.742 196.355 378.018C198.343 378.442 199.75 379.046 200.577 379.83C201.403 380.615 201.816 381.621 201.816 382.851C201.816 383.762 201.56 384.589 201.047 385.331C200.535 386.073 199.771 386.656 198.756 387.08C197.742 387.504 196.533 387.716 195.131 387.716C193.688 387.716 192.469 387.477 191.475 387.001ZM216.144 386.889C214.878 386.338 213.915 385.612 213.256 384.711C212.597 383.81 212.247 382.84 212.205 381.802C212.205 381.632 212.268 381.484 212.393 381.356C212.519 381.229 212.676 381.166 212.864 381.166H214.402C214.779 381.166 215.04 381.378 215.187 381.802C215.375 382.692 215.914 383.46 216.803 384.107C217.692 384.753 218.963 385.077 220.616 385.077C222.395 385.077 223.723 384.759 224.602 384.123C225.481 383.487 225.92 382.607 225.92 381.484C225.92 380.763 225.706 380.169 225.277 379.703C224.848 379.237 224.21 378.828 223.362 378.479C222.515 378.129 221.244 377.7 219.549 377.191C217.938 376.725 216.656 376.226 215.704 375.696C214.752 375.166 214.036 374.515 213.554 373.741C213.073 372.967 212.833 371.987 212.833 370.8C212.833 369.655 213.136 368.632 213.743 367.731C214.35 366.83 215.228 366.12 216.379 365.601C217.53 365.081 218.89 364.822 220.459 364.822C222.091 364.822 223.488 365.113 224.649 365.696C225.81 366.279 226.694 367.01 227.301 367.89C227.908 368.77 228.232 369.655 228.274 370.545C228.274 370.736 228.211 370.895 228.086 371.022C227.96 371.149 227.803 371.213 227.615 371.213H226.046C225.878 371.213 225.721 371.16 225.575 371.054C225.429 370.948 225.324 370.789 225.261 370.577C225.136 369.665 224.633 368.913 223.755 368.319C222.876 367.726 221.777 367.429 220.459 367.429C219.036 367.429 217.907 367.71 217.07 368.272C216.233 368.833 215.814 369.665 215.814 370.768C215.814 371.51 216.008 372.114 216.395 372.58C216.782 373.047 217.378 373.46 218.184 373.82C218.989 374.181 220.166 374.594 221.715 375.06C223.493 375.569 224.89 376.078 225.905 376.587C226.919 377.096 227.678 377.726 228.18 378.479C228.682 379.231 228.933 380.201 228.933 381.388C228.933 383.381 228.185 384.934 226.689 386.047C225.193 387.159 223.169 387.716 220.616 387.716C218.9 387.716 217.41 387.44 216.144 386.889ZM234.08 381.833V373.312H231.601C231.392 373.312 231.224 373.248 231.099 373.121C230.973 372.994 230.91 372.824 230.91 372.612V371.595C230.91 371.383 230.973 371.208 231.099 371.07C231.224 370.932 231.392 370.863 231.601 370.863H234.08V365.553C234.08 365.341 234.143 365.166 234.269 365.028C234.394 364.891 234.562 364.822 234.771 364.822H236.152C236.361 364.822 236.534 364.891 236.67 365.028C236.806 365.166 236.874 365.341 236.874 365.553V370.863H240.765C240.975 370.863 241.147 370.932 241.283 371.07C241.419 371.208 241.487 371.383 241.487 371.595V372.612C241.487 372.824 241.419 372.994 241.283 373.121C241.147 373.248 240.975 373.312 240.765 373.312H236.874V381.611C236.874 382.692 237.046 383.508 237.391 384.059C237.737 384.61 238.328 384.886 239.165 384.886H241.079C241.288 384.886 241.456 384.955 241.581 385.093C241.707 385.23 241.77 385.405 241.77 385.617V386.667C241.77 386.879 241.707 387.053 241.581 387.191C241.456 387.329 241.288 387.398 241.079 387.398H238.945C235.702 387.398 234.08 385.543 234.08 381.833ZM246.321 385.76C245.232 384.457 244.688 382.724 244.688 380.562V371.595C244.688 371.383 244.756 371.208 244.892 371.07C245.028 370.932 245.201 370.863 245.41 370.863H246.854C247.063 370.863 247.236 370.932 247.372 371.07C247.508 371.208 247.576 371.383 247.576 371.595V380.403C247.576 383.625 248.957 385.236 251.719 385.236C253.058 385.236 254.12 384.807 254.904 383.948C255.689 383.089 256.081 381.908 256.081 380.403V371.595C256.081 371.383 256.149 371.208 256.285 371.07C256.421 370.932 256.594 370.863 256.803 370.863H258.247C258.456 370.863 258.629 370.932 258.765 371.07C258.901 371.208 258.969 371.383 258.969 371.595V386.667C258.969 386.879 258.901 387.054 258.765 387.191C258.629 387.329 258.456 387.398 258.247 387.398H256.897C256.688 387.398 256.515 387.329 256.379 387.191C256.243 387.054 256.175 386.879 256.175 386.667V385.236C255.569 386.063 254.857 386.683 254.041 387.096C253.225 387.509 252.19 387.716 250.934 387.716C248.946 387.716 247.409 387.064 246.321 385.76ZM264.696 385.554C263.598 384.112 263.007 382.289 262.923 380.084L262.892 379.131L262.923 378.177C263.007 375.993 263.603 374.175 264.712 372.723C265.821 371.271 267.464 370.545 269.64 370.545C271.816 370.545 273.51 371.33 274.724 372.898V365.553C274.724 365.341 274.792 365.166 274.928 365.028C275.064 364.891 275.237 364.822 275.446 364.822H276.858C277.067 364.822 277.24 364.891 277.376 365.028C277.512 365.166 277.58 365.341 277.58 365.553V386.667C277.58 386.879 277.512 387.053 277.376 387.191C277.24 387.329 277.067 387.398 276.858 387.398H275.509C275.299 387.398 275.132 387.329 275.006 387.191C274.881 387.053 274.818 386.879 274.818 386.667V385.299C273.626 386.91 271.899 387.716 269.64 387.716C267.443 387.716 265.795 386.995 264.696 385.554ZM273.531 383.757C274.264 382.771 274.661 381.6 274.724 380.244C274.745 380.01 274.755 379.608 274.755 379.035C274.755 378.442 274.745 378.028 274.724 377.795C274.682 376.502 274.279 375.384 273.516 374.441C272.752 373.497 271.659 373.026 270.236 373.026C268.729 373.026 267.631 373.502 266.941 374.456C266.25 375.41 265.873 376.661 265.811 378.209L265.779 379.131C265.779 383.201 267.265 385.236 270.236 385.236C271.701 385.236 272.799 384.743 273.531 383.757ZM282.272 367.54C282.136 367.403 282.068 367.228 282.068 367.016V365.362C282.068 365.15 282.136 364.97 282.272 364.822C282.408 364.673 282.581 364.599 282.79 364.599H284.642C284.851 364.599 285.029 364.673 285.175 364.822C285.322 364.97 285.395 365.15 285.395 365.362V367.016C285.395 367.228 285.322 367.403 285.175 367.54C285.029 367.678 284.851 367.747 284.642 367.747H282.79C282.581 367.747 282.408 367.678 282.272 367.54ZM282.523 387.191C282.387 387.054 282.319 386.879 282.319 386.667V371.595C282.319 371.383 282.387 371.208 282.523 371.07C282.659 370.932 282.832 370.863 283.041 370.863H284.422C284.631 370.863 284.804 370.932 284.94 371.07C285.076 371.208 285.144 371.383 285.144 371.595V386.667C285.144 386.879 285.076 387.054 284.94 387.191C284.804 387.329 284.631 387.398 284.422 387.398H283.041C282.832 387.398 282.659 387.329 282.523 387.191ZM291.154 385.745C289.909 384.43 289.245 382.681 289.161 380.498L289.13 379.131L289.161 377.763C289.245 375.58 289.92 373.831 291.186 372.517C292.451 371.202 294.214 370.545 296.474 370.545C298.734 370.545 300.496 371.202 301.762 372.517C303.028 373.831 303.703 375.58 303.787 377.763C303.829 378.23 303.849 378.685 303.849 379.131C303.849 379.576 303.829 380.032 303.787 380.498C303.703 382.681 303.039 384.43 301.794 385.745C300.549 387.059 298.776 387.716 296.474 387.716C294.172 387.716 292.399 387.059 291.154 385.745ZM299.66 384.043C300.444 383.185 300.868 381.95 300.931 380.339C300.952 380.127 300.962 379.724 300.962 379.131C300.962 378.537 300.952 378.134 300.931 377.922C300.868 376.311 300.444 375.076 299.66 374.218C298.875 373.359 297.813 372.93 296.474 372.93C295.135 372.93 294.073 373.359 293.288 374.218C292.504 375.076 292.08 376.311 292.017 377.922L291.986 379.131L292.017 380.339C292.08 381.95 292.504 383.185 293.288 384.043C294.073 384.902 295.135 385.331 296.474 385.331C297.813 385.331 298.875 384.902 299.66 384.043Z" fill="#67B2AD"/>
<path fill-rule="evenodd" clip-rule="evenodd" d="M320.925 135.3C320.925 202.844 266.881 257.599 200.214 257.599C133.545 257.599 79.501 202.844 79.501 135.3C79.501 67.7554 133.545 13 200.214 13C266.881 13 320.925 67.7554 320.925 135.3" fill="#FEEFC5"/>
<path fill-rule="evenodd" clip-rule="evenodd" d="M200.251 228.099C146.264 228.099 102.501 183.776 102.501 129.101C102.501 74.4247 146.264 30.1018 200.251 30.1018C254.236 30.1018 298 74.4247 298 129.101C298 183.776 254.236 228.099 200.251 228.099Z" fill="#FDCA40"/>
<path fill-rule="evenodd" clip-rule="evenodd" d="M197.493 57.4545L200.346 64.5633C200.778 65.6406 202.253 65.4127 202.442 64.2383L203.677 56.5015C203.735 56.135 203.944 55.8165 204.244 55.6378L210.388 51.9254C211.272 51.3919 211.118 49.9728 210.148 49.7255L203.409 48.0098C203.078 47.9269 202.808 47.6796 202.675 47.3429L199.818 40.1966C199.385 39.1167 197.908 39.3446 197.722 40.5203L196.492 48.3037C196.436 48.6663 196.227 48.9848 195.928 49.1687L189.819 52.872C188.937 53.4067 189.092 54.822 190.061 55.0719L196.76 56.7915C197.087 56.877 197.359 57.1204 197.493 57.4545" fill="#413C58"/>
<path fill-rule="evenodd" clip-rule="evenodd" d="M131.463 113.771L128.348 117.627C127.722 118.397 126.544 117.885 126.669 116.898L127.301 111.997C127.339 111.688 127.24 111.383 127.029 111.169L123.784 107.888C123.163 107.262 123.635 106.146 124.512 106.163L129.105 106.243C129.403 106.248 129.691 106.11 129.885 105.868L132.95 102.007C133.568 101.229 134.754 101.732 134.633 102.718L134.041 107.656C134.003 107.962 134.105 108.262 134.31 108.473L137.519 111.737C138.132 112.363 137.666 113.473 136.792 113.46L132.233 113.399C131.94 113.395 131.655 113.534 131.463 113.771" fill="#413C58"/>
<path fill-rule="evenodd" clip-rule="evenodd" d="M149.311 72.0094L145.709 73.7541C144.987 74.104 144.269 73.3622 144.688 72.6996L146.766 69.4187C146.897 69.2114 146.922 68.9622 146.833 68.7429L145.469 65.3734C145.208 64.7323 145.927 64.0888 146.581 64.3812L150.005 65.9066C150.226 66.0049 150.489 65.9977 150.714 65.8886L154.279 64.1236C154.997 63.7689 155.724 64.5046 155.31 65.1673L153.248 68.4877C153.121 68.6926 153.098 68.9382 153.184 69.1539L154.526 72.5007C154.783 73.1405 154.067 73.7816 153.417 73.4928L150.011 71.9914C149.792 71.8955 149.534 71.9027 149.311 72.0094" fill="#413C58"/>
<path fill-rule="evenodd" clip-rule="evenodd" d="M247.672 69.8074L244.999 66.899C244.464 66.318 244.979 65.4157 245.732 65.6172L249.461 66.6233C249.697 66.6864 249.943 66.6382 250.128 66.4874L252.992 64.1969C253.538 63.7581 254.355 64.2526 254.255 64.9596L253.733 68.6628C253.699 68.9039 253.777 69.1511 253.947 69.3315L256.627 72.2005C257.167 72.7765 256.661 73.6837 255.91 73.4872L252.146 72.5082C251.913 72.4489 251.671 72.4983 251.487 72.6442L248.641 74.9074C248.096 75.3401 247.283 74.8506 247.379 74.146L247.883 70.4663C247.914 70.2302 247.836 69.9867 247.672 69.8074" fill="#413C58"/>
<path fill-rule="evenodd" clip-rule="evenodd" d="M267.243 114.559L262.481 116.671C261.526 117.095 260.619 116.117 261.189 115.283L264.026 111.143C264.204 110.883 264.246 110.564 264.139 110.28L262.492 105.907C262.177 105.073 263.139 104.274 263.979 104.672L268.384 106.75C268.669 106.886 269.011 106.886 269.309 106.751L274.025 104.614C274.976 104.183 275.892 105.153 275.329 105.988L272.512 110.178C272.339 110.437 272.298 110.751 272.402 111.032L274.022 115.373C274.33 116.204 273.376 117 272.537 116.608L268.157 114.561C267.873 114.431 267.537 114.431 267.243 114.559" fill="#413C58"/>
<path fill-rule="evenodd" clip-rule="evenodd" d="M278.66 163.969C297.734 165.267 296.912 148.122 296.912 148.122L226.818 137.599C226.818 137.599 217.463 136.372 211.126 146.338C247.911 158.988 230.703 184.211 230.703 184.211C232.784 184.615 227.475 184.38 240.467 187.246C255.527 190.57 256.332 176.538 256.332 176.538C272.618 179.893 278.66 163.969 278.66 163.969Z" fill="#67B2AD"/>
<path fill-rule="evenodd" clip-rule="evenodd" d="M306.201 152.245C306.978 152.245 307.662 149.88 307.775 149.125C307.788 149.051 307.793 148.978 307.793 148.905C307.794 148.163 307.223 147.514 306.431 147.405L244.363 138.792C243.495 138.671 242.686 139.245 242.559 140.075C242.548 140.148 242.543 140.222 242.543 140.294C242.541 141.036 243.112 141.685 243.904 141.796" fill="#413C58" fill-opacity="0.22"/>
<path fill-rule="evenodd" clip-rule="evenodd" d="M121.842 163.969C102.768 165.267 103.59 148.122 103.59 148.122L173.683 137.599C173.683 137.599 183.039 136.372 189.376 146.338C152.591 158.988 169.799 184.211 169.799 184.211C167.718 184.615 173.026 184.38 160.035 187.246C144.974 190.57 144.17 176.538 144.17 176.538C127.883 179.893 121.842 163.969 121.842 163.969" fill="#67B2AD"/>
<path fill-rule="evenodd" clip-rule="evenodd" d="M95.5089 152.245C94.7306 152.245 94.0486 149.88 93.9337 149.125C93.9225 149.051 93.9176 148.978 93.9176 148.905C93.9164 148.163 94.4872 147.514 95.2791 147.405L157.348 138.792C158.215 138.671 159.024 139.245 159.152 140.075C159.163 140.148 159.168 140.222 159.168 140.294C159.169 141.036 158.598 141.685 157.806 141.796" fill="#413C58" fill-opacity="0.22"/>
<path fill-rule="evenodd" clip-rule="evenodd" d="M162.14 188.456C151.945 175.059 153.172 155.616 153.172 155.616C153.172 155.616 153.725 148.056 157.126 140.107L95.6458 149.378C95.7569 152.093 96.4508 157.512 100.011 160.932C102.826 163.637 107.005 164.639 112.435 163.911L143.623 158.706C144.724 158.522 145.765 159.268 145.977 160.385C146.19 161.504 145.492 162.592 144.406 162.842C144.306 162.864 134.576 165.075 116.02 167.671C118.765 171.972 125.644 179.953 137.843 177.369C137.849 177.369 137.854 177.367 137.859 177.366L137.859 177.366L147.801 175.343C148.925 175.113 150.002 175.856 150.224 176.998C150.251 177.136 150.265 177.275 150.265 177.413C150.264 178.396 149.586 179.275 148.606 179.474L140.476 181.129C140.78 183.236 141.677 186.811 144.327 188.97C146.693 190.897 150.104 191.373 154.466 190.383C158.55 189.458 160.848 188.846 162.14 188.456ZM165.135 191.863C163.455 192.588 160.478 193.335 155.36 194.497C153.581 194.9 151.907 195.102 150.343 195.102C146.939 195.102 144.055 194.148 141.733 192.244C138.08 189.251 136.839 184.68 136.417 181.882C121.678 183.773 113.857 172.313 111.573 168.246C105.504 168.786 100.664 167.353 97.1681 163.982C90.862 157.901 91.5027 147.83 91.5323 147.405C91.6039 146.42 92.3335 145.617 93.2879 145.474L159.438 135.499C161.218 132.464 163.492 129.578 166.396 127.26C166.396 127.26 141.031 80 201.926 80C263.905 80 237.455 127.26 237.455 127.26C240.528 129.713 242.837 132.801 244.571 136.031L307.214 145.477C308.169 145.62 308.899 146.423 308.969 147.407C309 147.832 309.64 157.903 303.335 163.983C299.84 167.355 295 168.787 288.93 168.247C286.646 172.313 278.825 183.767 264.085 181.881C263.664 184.678 262.423 189.249 258.77 192.244C256.446 194.147 253.563 195.102 250.159 195.102C248.595 195.102 246.922 194.901 245.143 194.497C240.3 193.398 237.375 192.67 235.651 191.982C233.246 194.538 230.963 196.459 229.213 197.782C227.292 199.233 224.956 200.016 222.545 200L180.815 199.736C179.494 199.727 178.217 199.421 176.963 199.01C172.1 197.417 168.224 194.901 165.135 191.863ZM238.627 188.535C239.961 188.928 242.218 189.518 246.037 190.384C250.411 191.377 253.825 190.895 256.193 188.956C258.812 186.809 259.714 183.235 260.022 181.129L251.897 179.475C250.917 179.276 250.239 178.397 250.238 177.414C250.238 177.276 250.251 177.137 250.279 176.997C250.5 175.856 251.582 175.114 252.701 175.344L262.644 177.366C262.654 177.368 262.662 177.371 262.672 177.372C274.861 179.941 281.737 171.972 284.482 167.673C265.927 165.076 256.197 162.866 256.097 162.843C255.009 162.593 254.313 161.505 254.525 160.387C254.737 159.269 255.774 158.523 256.88 158.708L288.067 163.913C293.493 164.64 297.675 163.637 300.492 160.934C304.051 157.515 304.743 152.098 304.857 149.38L246.646 140.603C249.603 148.367 249.792 155.616 249.792 155.616C249.839 170.484 244.353 181.301 238.627 188.535ZM200.55 119.076C189.638 119.076 181.608 123.109 181.608 123.109C181.608 123.109 163.65 95.8555 201.005 95.8555C238.588 95.8555 220.403 123.109 220.403 123.109C220.403 123.109 211.537 119.076 200.55 119.076Z" fill="#413C58"/>
<path fill-rule="evenodd" clip-rule="evenodd" d="M222.367 142.946C224.538 143.743 225.626 144.805 225.626 146.132C225.626 146.564 225.431 147.376 225.042 148.571L215.703 176.197C215.64 176.43 215.526 176.711 215.364 177.044C215.202 177.377 214.773 177.815 214.075 178.363C213.378 178.91 212.551 179.184 211.596 179.184C210.639 179.184 209.812 178.91 209.115 178.363C208.417 177.815 207.956 177.275 207.729 176.745L202.039 159.571C198.439 170.457 196.607 175.999 196.544 176.197C196.479 176.396 196.333 176.679 196.106 177.044C195.879 177.409 195.621 177.74 195.327 178.039C194.582 178.802 193.689 179.184 192.653 179.184C191.615 179.184 190.764 178.935 190.101 178.437C189.435 177.94 188.989 177.442 188.763 176.945L188.422 176.197L179.036 148.571C178.679 147.475 178.501 146.663 178.501 146.132C178.501 144.805 179.587 143.759 181.76 142.996C182.699 142.664 183.551 142.498 184.313 142.498C185.074 142.498 185.658 142.764 186.063 143.294C186.469 143.826 186.835 144.639 187.157 145.734L192.508 162.36L197.809 145.983C198.261 144.589 199.089 143.626 200.288 143.095C200.807 142.864 201.48 142.748 202.307 142.748C203.133 142.748 203.903 143.021 204.616 143.568C205.33 144.117 205.785 144.655 205.978 145.186L211.57 162.459L216.921 145.734C217.18 144.97 217.389 144.407 217.552 144.041C217.714 143.676 218.015 143.32 218.452 142.971C218.89 142.622 219.432 142.449 220.082 142.449C220.73 142.449 221.492 142.615 222.367 142.946" fill="#F7F0F5"/>
<path fill-rule="evenodd" clip-rule="evenodd" d="M187.251 231.732C186.008 231.732 185.001 230.824 185.001 229.702V212.847C185.001 211.726 186.008 210.817 187.251 210.817C188.494 210.817 189.501 211.726 189.501 212.847V229.702C189.501 230.824 188.494 231.732 187.251 231.732" fill="#413C58"/>
<path fill-rule="evenodd" clip-rule="evenodd" d="M199.355 243.33V212.846C199.355 211.725 200.362 210.816 201.605 210.816C202.848 210.816 203.855 211.725 203.855 212.846V243.33C203.855 244.452 202.848 245.36 201.605 245.36C200.362 245.36 199.355 244.452 199.355 243.33Z" fill="#413C58"/>
<path fill-rule="evenodd" clip-rule="evenodd" d="M215.675 231.732C214.432 231.732 213.425 230.824 213.425 229.702V212.847C213.425 211.726 214.432 210.817 215.675 210.817C216.918 210.817 217.925 211.726 217.925 212.847V229.702C217.925 230.824 216.918 231.732 215.675 231.732" fill="#413C58"/>
<path fill-rule="evenodd" clip-rule="evenodd" d="M80.866 287.791C84.1759 288.988 85.8321 290.585 85.8321 292.582C85.8321 293.23 85.5351 294.452 84.9424 296.248L70.7093 337.785C70.6103 338.136 70.4365 338.56 70.1914 339.058C69.9428 339.558 69.2885 340.219 68.2262 341.042C67.1628 341.866 65.9025 342.276 64.4455 342.276C62.9873 342.276 61.7283 341.866 60.666 341.042C59.6026 340.219 58.8988 339.409 58.5536 338.609L49.8792 312.789C44.3941 329.154 41.602 337.487 41.503 337.785C41.404 338.086 41.1807 338.51 40.8355 339.058C40.489 339.608 40.0943 340.107 39.6489 340.555C38.513 341.703 37.1538 342.276 35.5736 342.276C33.9911 342.276 32.6935 341.902 31.6807 341.154C30.6679 340.405 29.9883 339.657 29.6419 338.909L29.124 337.785L14.816 296.248C14.2728 294.601 14 293.38 14 292.582C14 290.585 15.6562 289.014 18.9685 287.866C20.4001 287.367 21.6978 287.117 22.8591 287.117C24.0203 287.117 24.9099 287.517 25.528 288.315C26.146 289.113 26.7013 290.336 27.1962 291.981L35.3503 316.98L43.4308 292.356C44.1225 290.26 45.3815 288.815 47.2103 288.016C47.9997 287.666 49.027 287.491 50.2872 287.491C51.5475 287.491 52.722 287.903 53.8084 288.727C54.8948 289.549 55.5877 290.361 55.8846 291.159L64.4093 317.129L72.5622 291.981C72.9569 290.835 73.2792 289.987 73.5267 289.437C73.7742 288.889 74.2317 288.351 74.8992 287.827C75.5655 287.305 76.3924 287.042 77.381 287.042C78.3709 287.042 79.5321 287.292 80.866 287.791" fill="#413C58"/>
<path fill-rule="evenodd" clip-rule="evenodd" d="M159.245 313.986H168.734C170.167 313.986 171.599 313.437 173.034 312.339C174.466 311.242 175.183 309.596 175.183 307.399C175.183 305.205 174.466 303.546 173.034 302.423C171.599 301.3 170.117 300.739 168.586 300.739H159.245V313.986ZM187.711 333.071C188.453 334.868 188.823 336.166 188.823 336.964C188.823 338.859 187.29 340.456 184.227 341.752C182.645 342.451 181.373 342.802 180.41 342.802C179.445 342.802 178.654 342.563 178.038 342.09C177.42 341.616 176.963 341.13 176.666 340.63C176.17 339.683 174.245 335.166 170.884 327.084L168.586 327.233H159.245V335.692C159.245 336.84 159.209 337.7 159.134 338.273C159.06 338.846 158.825 339.507 158.43 340.257C157.737 341.602 155.81 342.276 152.648 342.276C149.189 342.276 147.162 341.354 146.57 339.507C146.273 338.659 146.125 337.364 146.125 335.616V294.077C146.125 292.93 146.161 292.07 146.236 291.496C146.31 290.922 146.544 290.26 146.941 289.512C147.631 288.164 149.559 287.491 152.723 287.491H168.734C173.082 287.491 177.309 289.089 181.409 292.281C183.386 293.829 185.017 295.925 186.303 298.568C187.587 301.214 188.231 304.158 188.231 307.399C188.231 313.039 186.378 317.678 182.671 321.321C183.758 323.966 185.437 327.882 187.711 333.071V333.071Z" fill="#413C58"/>
<path fill-rule="evenodd" clip-rule="evenodd" d="M195.349 287.416H236.566C238.146 287.416 239.309 287.604 240.049 287.978C240.791 288.352 241.285 288.939 241.532 289.737C241.779 290.536 241.902 291.583 241.902 292.88C241.902 294.179 241.779 295.212 241.532 295.986C241.285 296.76 240.865 297.295 240.272 297.596C239.382 298.045 238.122 298.269 236.491 298.269H222.333V335.915C222.333 337.063 222.294 337.911 222.222 338.46C222.146 339.009 221.925 339.646 221.555 340.368C221.183 341.092 220.527 341.603 219.589 341.903C218.651 342.202 217.414 342.351 215.883 342.351C214.35 342.351 213.128 342.202 212.214 341.903C211.299 341.603 210.657 341.092 210.286 340.368C209.915 339.646 209.693 338.996 209.619 338.423C209.545 337.849 209.507 336.989 209.507 335.839V298.269H195.274C193.693 298.269 192.532 298.083 191.792 297.707C191.049 297.334 190.556 296.747 190.308 295.948C190.061 295.151 189.939 294.103 189.939 292.805C189.939 291.507 190.061 290.474 190.308 289.7C190.556 288.926 190.976 288.39 191.568 288.091C192.458 287.641 193.718 287.416 195.349 287.416" fill="#413C58"/>
<path fill-rule="evenodd" clip-rule="evenodd" d="M279.507 289.512C279.902 288.765 280.569 288.24 281.508 287.941C282.446 287.641 283.633 287.491 285.066 287.491C286.5 287.491 287.636 287.617 288.477 287.865C289.316 288.115 289.959 288.416 290.404 288.765C290.849 289.113 291.194 289.613 291.442 290.26C291.689 291.11 291.812 292.406 291.812 294.153V335.692C291.812 336.84 291.775 337.7 291.701 338.273C291.628 338.846 291.392 339.507 290.997 340.257C290.305 341.602 288.377 342.276 285.215 342.276C281.755 342.276 279.729 341.354 279.136 339.507C278.839 338.659 278.691 337.364 278.691 335.616V320.422H259.047V335.692C259.047 336.84 259.011 337.7 258.936 338.273C258.862 338.846 258.626 339.507 258.231 340.257C257.54 341.602 255.612 342.276 252.451 342.276C248.991 342.276 246.964 341.354 246.371 339.507C246.075 338.659 245.926 337.364 245.926 335.616V294.077C245.926 292.93 245.963 292.07 246.037 291.496C246.112 290.922 246.345 290.26 246.742 289.512C247.434 288.165 249.36 287.491 252.523 287.491C255.983 287.491 258.033 288.416 258.676 290.26C258.923 291.11 259.047 292.406 259.047 294.153V309.42H278.691V294.077C278.691 292.93 278.727 292.07 278.803 291.496C278.878 290.922 279.111 290.26 279.507 289.512" fill="#413C58"/>
<path fill-rule="evenodd" clip-rule="evenodd" d="M316.548 294.077C316.548 292.93 316.584 292.07 316.66 291.496C316.734 290.922 316.968 290.26 317.364 289.512C318.054 288.164 319.983 287.491 323.146 287.491C326.604 287.491 328.655 288.415 329.299 290.26C329.546 291.108 329.669 292.406 329.669 294.153V335.766C329.669 336.963 329.632 337.837 329.557 338.384C329.485 338.935 329.248 339.583 328.853 340.33C328.162 341.678 326.233 342.351 323.071 342.351C319.612 342.351 317.585 341.404 316.993 339.507C316.696 338.71 316.548 337.438 316.548 335.692V294.077Z" fill="#413C58"/>
<path fill-rule="evenodd" clip-rule="evenodd" d="M339.727 287.416H380.944C382.524 287.416 383.687 287.604 384.428 287.978C385.169 288.352 385.663 288.939 385.91 289.737C386.157 290.536 386.281 291.583 386.281 292.88C386.281 294.179 386.157 295.212 385.91 295.986C385.663 296.76 385.243 297.295 384.65 297.596C383.762 298.045 382.5 298.269 380.869 298.269H366.711V335.915C366.711 337.063 366.674 337.911 366.6 338.46C366.525 339.009 366.303 339.646 365.933 340.368C365.562 341.092 364.907 341.603 363.967 341.903C363.029 342.202 361.792 342.351 360.262 342.351C358.728 342.351 357.507 342.202 356.593 341.903C355.678 341.603 355.036 341.092 354.664 340.368C354.294 339.646 354.073 338.996 353.997 338.423C353.924 337.849 353.886 336.989 353.886 335.839V298.269H339.654C338.071 298.269 336.911 298.083 336.17 297.707C335.427 297.334 334.934 296.747 334.686 295.948C334.439 295.151 334.317 294.103 334.317 292.805C334.317 291.507 334.439 290.474 334.686 289.7C334.934 288.926 335.354 288.39 335.948 288.091C336.836 287.641 338.096 287.416 339.727 287.416" fill="#413C58"/>
<path fill-rule="evenodd" clip-rule="evenodd" d="M113.251 343.5C128.301 343.5 140.501 330.852 140.501 315.25C140.501 299.648 128.301 287 113.251 287C98.2012 287 86.001 299.648 86.001 315.25C86.001 330.852 98.2012 343.5 113.251 343.5ZM113.501 330.5C121.233 330.5 127.501 323.672 127.501 315.25C127.501 306.828 121.233 300 113.501 300C105.769 300 99.501 306.828 99.501 315.25C99.501 323.672 105.769 330.5 113.501 330.5Z" fill="#413C58"/>
</svg>
