<?xml version="1.0" encoding="UTF-8"?>
<svg width="124px" height="129px" viewBox="0 0 124 129" version="1.1" xmlns="http://www.w3.org/2000/svg" xmlns:xlink="http://www.w3.org/1999/xlink">
    <title>Group</title>
    <defs>
        <polygon id="path-1" points="0 18.3045545 0 2.86985177e-15 23.8240183 0 23.8240183 18.3045545"></polygon>
    </defs>
    <g id="pricing" stroke="none" stroke-width="1" fill="none" fill-rule="evenodd">
        <g id="worth-it-3-month-plan" transform="translate(-478.000000, -830.000000)">
            <g id="Group" transform="translate(478.000000, 830.000000)">
                <path d="M18.0820151,128.77304 C18.0273381,128.713434 18,128.637781 18,128.54608 L18,119.563961 C18,119.46309 18.0273381,119.382852 18.0820151,119.323246 C18.136692,119.26364 18.2095936,119.233838 18.3007219,119.233838 L23.850407,119.233838 C23.9506481,119.233838 24.0303842,119.26364 24.0896176,119.323246 C24.148851,119.382852 24.1784672,119.46309 24.1784672,119.563961 L24.1784672,120.072902 C24.1784672,120.164604 24.148851,120.240256 24.0896176,120.299862 C24.0303842,120.359468 23.9506481,120.389271 23.850407,120.389271 L19.2712333,120.389271 L19.2712333,123.649243 L23.5770235,123.649243 C23.6772646,123.649243 23.7570007,123.679046 23.8162341,123.738652 C23.8754675,123.798258 23.9050837,123.873911 23.9050837,123.965612 L23.9050837,124.488308 C23.9050837,124.58001 23.8731893,124.655662 23.8093995,124.715268 C23.7456097,124.774874 23.6681518,124.804677 23.5770235,124.804677 L19.2712333,124.804677 L19.2712333,128.54608 C19.2712333,128.637781 19.2393389,128.713434 19.1755491,128.77304 C19.1117593,128.832646 19.0343014,128.862448 18.9431731,128.862448 L18.3007219,128.862448 C18.2095936,128.862448 18.136692,128.832646 18.0820151,128.77304 Z M25.7709261,120.272352 C25.7116927,120.212746 25.6820765,120.137094 25.6820765,120.045392 L25.6820765,119.330124 C25.6820765,119.238422 25.7116927,119.160477 25.7709261,119.096286 C25.8301595,119.032095 25.9053392,119 25.9964675,119 L26.8029489,119 C26.8940771,119 26.971535,119.032095 27.0353248,119.096286 C27.0991146,119.160477 27.1310091,119.238422 27.1310091,119.330124 L27.1310091,120.045392 C27.1310091,120.137094 27.0991146,120.212746 27.0353248,120.272352 C26.971535,120.331958 26.8940771,120.361761 26.8029489,120.361761 L25.9964675,120.361761 C25.9053392,120.361761 25.8301595,120.331958 25.7709261,120.272352 Z M25.8802795,128.77304 C25.8210461,128.713434 25.7914299,128.637781 25.7914299,128.54608 L25.7914299,122.026135 C25.7914299,121.934433 25.8210461,121.858781 25.8802795,121.799175 C25.9395129,121.739569 26.0146926,121.709766 26.1058209,121.709766 L26.7072646,121.709766 C26.7983929,121.709766 26.8735726,121.739569 26.932806,121.799175 C26.9920394,121.858781 27.0216557,121.934433 27.0216557,122.026135 L27.0216557,128.54608 C27.0216557,128.637781 26.9920394,128.713434 26.932806,128.77304 C26.8735726,128.832646 26.7983929,128.862448 26.7072646,128.862448 L26.1058209,128.862448 C26.0146926,128.862448 25.9395129,128.832646 25.8802795,128.77304 Z M29.6871448,126.455296 L29.6871448,122.768913 L28.60728,122.768913 C28.5161517,122.768913 28.4432502,122.741403 28.3885732,122.686382 C28.3338962,122.631361 28.3065581,122.558001 28.3065581,122.4663 L28.3065581,122.026135 C28.3065581,121.934433 28.3338962,121.858781 28.3885732,121.799175 C28.4432502,121.739569 28.5161517,121.709766 28.60728,121.709766 L29.6871448,121.709766 L29.6871448,119.412655 C29.6871448,119.320953 29.7144829,119.245301 29.7691599,119.185695 C29.8238369,119.126089 29.8967384,119.096286 29.9878667,119.096286 L30.5893104,119.096286 C30.6804387,119.096286 30.7556184,119.126089 30.8148518,119.185695 C30.8740852,119.245301 30.9037014,119.320953 30.9037014,119.412655 L30.9037014,121.709766 L32.5986792,121.709766 C32.6898074,121.709766 32.7649872,121.739569 32.8242205,121.799175 C32.8834539,121.858781 32.9130702,121.934433 32.9130702,122.026135 L32.9130702,122.4663 C32.9130702,122.558001 32.8834539,122.631361 32.8242205,122.686382 C32.7649872,122.741403 32.6898074,122.768913 32.5986792,122.768913 L30.9037014,122.768913 L30.9037014,126.35901 C30.9037014,126.826687 30.9788811,127.179733 31.1292428,127.418157 C31.2796045,127.656581 31.5370381,127.775791 31.9015512,127.775791 L32.7353709,127.775791 C32.8264992,127.775791 32.8994007,127.805593 32.9540777,127.865199 C33.0087547,127.924805 33.0360928,128.000458 33.0360928,128.09216 L33.0360928,128.54608 C33.0360928,128.637781 33.0087547,128.713434 32.9540777,128.77304 C32.8994007,128.832646 32.8264992,128.862448 32.7353709,128.862448 L31.805867,128.862448 C30.3933785,128.862448 29.6871448,128.060072 29.6871448,126.455296 Z M34.4645216,128.77304 C34.4052882,128.713434 34.3756719,128.637781 34.3756719,128.54608 L34.3756719,122.026135 C34.3756719,121.934433 34.4052882,121.858781 34.4645216,121.799175 C34.523755,121.739569 34.5989347,121.709766 34.690063,121.709766 L35.2778375,121.709766 C35.3780786,121.709766 35.4555365,121.737276 35.5102135,121.792297 C35.5648905,121.847318 35.5922285,121.925263 35.5922285,122.026135 L35.5922285,122.631362 C35.8656134,122.292066 36.1822795,122.030721 36.5422362,121.847318 C36.902193,121.663915 37.3509931,121.572215 37.88865,121.572215 C38.7634816,121.572215 39.4423771,121.854193 39.9253571,122.418157 C40.408337,122.982121 40.6498234,123.727185 40.6498234,124.65337 L40.6498234,128.54608 C40.6498234,128.637781 40.6202071,128.713434 40.5609737,128.77304 C40.5017403,128.832646 40.4265606,128.862448 40.3354323,128.862448 L39.7066503,128.862448 C39.615522,128.862448 39.5403423,128.832646 39.4811089,128.77304 C39.4218755,128.713434 39.3922593,128.637781 39.3922593,128.54608 L39.3922593,124.735901 C39.3922593,124.07565 39.2327871,123.562129 38.9138381,123.195323 C38.5948891,122.828517 38.1392545,122.645117 37.5469206,122.645117 C36.9636995,122.645117 36.4989522,122.83081 36.1526647,123.202201 C35.8063772,123.573592 35.6332361,124.08482 35.6332361,124.735901 L35.6332361,128.54608 C35.6332361,128.637781 35.6036198,128.713434 35.5443864,128.77304 C35.485153,128.832646 35.4099733,128.862448 35.318845,128.862448 L34.690063,128.862448 C34.5989347,128.862448 34.523755,128.832646 34.4645216,128.77304 Z M43.2196283,128.126547 C42.6637457,127.544243 42.3584706,126.748744 42.3037936,125.740028 L42.2901244,125.272352 L42.3037936,124.818432 C42.3584706,123.828056 42.6637457,123.039434 43.2196283,122.452545 C43.7755109,121.865655 44.5181953,121.572215 45.4477039,121.572215 C46.4501151,121.572215 47.2269721,121.893165 47.7782983,122.535076 C48.3296244,123.176986 48.6052834,124.048138 48.6052834,125.148556 L48.6052834,125.396149 C48.6052834,125.48785 48.5756671,125.563503 48.5164337,125.623109 C48.4572003,125.682715 48.3820206,125.712517 48.2908923,125.712517 L43.5476885,125.712517 L43.5476885,125.836314 C43.575027,126.432373 43.7572809,126.941309 44.0944555,127.363136 C44.4316302,127.784963 44.8781521,127.995873 45.4340347,127.995873 C45.8623377,127.995873 46.2108982,127.911051 46.4797266,127.741403 C46.7485551,127.571755 46.9513125,127.395232 47.0880049,127.211829 C47.1700204,127.101788 47.2338092,127.035305 47.2793734,127.01238 C47.3249375,126.989454 47.4023954,126.977992 47.5117493,126.977992 L48.1131931,126.977992 C48.1952085,126.977992 48.2658319,127.000917 48.3250653,127.046768 C48.3842987,127.092618 48.4139149,127.152223 48.4139149,127.225585 C48.4139149,127.427328 48.2908936,127.670333 48.0448472,127.954608 C47.7988008,128.238883 47.4502403,128.484181 46.9991553,128.690509 C46.5480702,128.896837 46.0309249,129 45.4477039,129 C44.5181953,129 43.7755109,128.708852 43.2196283,128.126547 Z M47.3613884,124.777166 L47.3613884,124.735901 C47.3613884,124.09399 47.1882473,123.5713 46.8419598,123.167813 C46.4956723,122.764326 46.0309249,122.562586 45.4477039,122.562586 C44.85537,122.562586 44.3906227,122.764326 44.053448,123.167813 C43.7162733,123.5713 43.5476885,124.09399 43.5476885,124.735901 L43.5476885,124.777166 L47.3613884,124.777166 Z M51.113577,128.690509 C50.6807176,128.484181 50.3594952,128.248053 50.1499002,127.982118 C49.9403051,127.716184 49.8355091,127.496104 49.8355091,127.321871 C49.8355091,127.230169 49.8674036,127.159102 49.9311934,127.108666 C49.9949832,127.05823 50.0633284,127.033012 50.136231,127.033012 L50.7103364,127.033012 C50.7650133,127.033012 50.8082986,127.042182 50.8401935,127.060523 C50.8720884,127.078863 50.9153737,127.120128 50.9700507,127.184319 C51.1796458,127.441083 51.4142976,127.642824 51.6740132,127.789546 C51.9337288,127.936269 52.2822893,128.009629 52.7197051,128.009629 C53.2117979,128.009629 53.6059218,127.917928 53.9020888,127.734525 C54.1982557,127.551122 54.346337,127.285192 54.346337,126.936726 C54.346337,126.707472 54.2825481,126.524072 54.1549685,126.38652 C54.0273889,126.248968 53.8155188,126.125172 53.5193519,126.015131 C53.2231849,125.905089 52.7834975,125.785879 52.2002765,125.657497 C51.4074603,125.483264 50.8470297,125.231088 50.5189679,124.900963 C50.1909061,124.570837 50.0268776,124.144432 50.0268776,123.621733 C50.0268776,123.282438 50.1271172,122.95461 50.3275994,122.638239 C50.5280817,122.321869 50.8265224,122.065109 51.2229304,121.86795 C51.6193385,121.670792 52.0909203,121.572215 52.6376901,121.572215 C53.2117983,121.572215 53.7016055,121.6685 54.1071264,121.861073 C54.5126473,122.053646 54.8179225,122.278311 55.0229611,122.535076 C55.2279998,122.79184 55.3305176,123.007335 55.3305176,123.181568 C55.3305176,123.264099 55.3009013,123.332875 55.2416679,123.387895 C55.1824346,123.442916 55.1118112,123.470426 55.0297957,123.470426 L54.5103671,123.470426 C54.3827875,123.470426 54.2916605,123.419991 54.2369836,123.31912 C54.0820655,123.144887 53.9522096,123.009629 53.8474121,122.913343 C53.7426145,122.817056 53.5899769,122.734526 53.3894947,122.66575 C53.1890125,122.596974 52.9384134,122.562586 52.6376901,122.562586 C52.1911614,122.562586 51.8494355,122.656579 51.6125019,122.844567 C51.3755684,123.032555 51.2571034,123.282438 51.2571034,123.594223 C51.2571034,123.786796 51.3072232,123.949564 51.4074643,124.082531 C51.5077054,124.215498 51.699072,124.339293 51.9815697,124.45392 C52.2640674,124.568547 52.6832512,124.685465 53.2391338,124.804677 C54.1048525,124.98808 54.7176811,125.249425 55.0776378,125.588721 C55.4375946,125.928016 55.6175703,126.363592 55.6175703,126.895461 C55.6175703,127.289777 55.5059398,127.647408 55.2826755,127.968363 C55.0594112,128.289318 54.7267979,128.541494 54.2848257,128.724897 C53.8428535,128.9083 53.3165955,129 52.7060359,129 C52.0772507,129 51.5464364,128.896837 51.113577,128.690509 Z M58.057518,128.690509 C57.6246587,128.484181 57.3034363,128.248053 57.0938412,127.982118 C56.8842461,127.716184 56.7794502,127.496104 56.7794502,127.321871 C56.7794502,127.230169 56.8113446,127.159102 56.8751344,127.108666 C56.9389242,127.05823 57.0072694,127.033012 57.080172,127.033012 L57.6542774,127.033012 C57.7089544,127.033012 57.7522396,127.042182 57.7841345,127.060523 C57.8160294,127.078863 57.8593147,127.120128 57.9139917,127.184319 C58.1235868,127.441083 58.3582386,127.642824 58.6179542,127.789546 C58.8776699,127.936269 59.2262303,128.009629 59.6636461,128.009629 C60.1557389,128.009629 60.5498629,127.917928 60.8460298,127.734525 C61.1421967,127.551122 61.290278,127.285192 61.290278,126.936726 C61.290278,126.707472 61.2264891,126.524072 61.0989095,126.38652 C60.9713299,126.248968 60.7594598,126.125172 60.4632929,126.015131 C60.1671259,125.905089 59.7274385,125.785879 59.1442175,125.657497 C58.3514014,125.483264 57.7909708,125.231088 57.4629089,124.900963 C57.1348471,124.570837 56.9708186,124.144432 56.9708186,123.621733 C56.9708186,123.282438 57.0710582,122.95461 57.2715405,122.638239 C57.4720227,122.321869 57.7704634,122.065109 58.1668714,121.86795 C58.5632795,121.670792 59.0348613,121.572215 59.5816311,121.572215 C60.1557393,121.572215 60.6455465,121.6685 61.0510674,121.861073 C61.4565883,122.053646 61.7618635,122.278311 61.9669022,122.535076 C62.1719408,122.79184 62.2744586,123.007335 62.2744586,123.181568 C62.2744586,123.264099 62.2448424,123.332875 62.185609,123.387895 C62.1263756,123.442916 62.0557522,123.470426 61.9737368,123.470426 L61.4543081,123.470426 C61.3267285,123.470426 61.2356016,123.419991 61.1809246,123.31912 C61.0260065,123.144887 60.8961506,123.009629 60.7913531,122.913343 C60.6865556,122.817056 60.533918,122.734526 60.3334357,122.66575 C60.1329535,122.596974 59.8823544,122.562586 59.5816311,122.562586 C59.1351025,122.562586 58.7933765,122.656579 58.5564429,122.844567 C58.3195094,123.032555 58.2010444,123.282438 58.2010444,123.594223 C58.2010444,123.786796 58.2511642,123.949564 58.3514053,124.082531 C58.4516464,124.215498 58.643013,124.339293 58.9255107,124.45392 C59.2080084,124.568547 59.6271922,124.685465 60.1830748,124.804677 C61.0487936,124.98808 61.6616221,125.249425 62.0215789,125.588721 C62.3815356,125.928016 62.5615113,126.363592 62.5615113,126.895461 C62.5615113,127.289777 62.4498808,127.647408 62.2266165,127.968363 C62.0033522,128.289318 61.6707389,128.541494 61.2287667,128.724897 C60.7867945,128.9083 60.2605365,129 59.649977,129 C59.0211918,129 58.4903774,128.896837 58.057518,128.690509 Z M68.8014898,128.642366 C68.2501636,128.403942 67.8309798,128.089869 67.5439257,127.700138 C67.2568715,127.310406 67.104234,126.890878 67.0860083,126.441541 C67.0860083,126.368179 67.1133464,126.303989 67.1680233,126.248968 C67.2227003,126.193947 67.2910455,126.166437 67.373061,126.166437 L68.0428506,126.166437 C68.2068815,126.166437 68.3207901,126.258138 68.3845799,126.441541 C68.4665954,126.826687 68.7012472,127.1591 69.0885425,127.43879 C69.4758377,127.718479 70.0294338,127.858322 70.7493473,127.858322 C71.5239377,127.858322 72.1025937,127.720772 72.4853325,127.445667 C72.8680713,127.170563 73.0594379,126.790007 73.0594379,126.303989 C73.0594379,125.992204 72.9660328,125.735443 72.7792198,125.5337 C72.5924068,125.331957 72.3144697,125.155434 71.9454001,125.004127 C71.5763305,124.852819 71.0227345,124.667126 70.2845953,124.447043 C69.5829075,124.245299 69.0247551,124.029804 68.6101213,123.80055 C68.1954876,123.571296 67.8833779,123.289319 67.6737828,122.954608 C67.4641878,122.619897 67.3593918,122.195784 67.3593918,121.682256 C67.3593918,121.187068 67.4915258,120.744615 67.7557979,120.354883 C68.0200699,119.965152 68.402803,119.657956 68.9040086,119.433287 C69.4052142,119.208619 69.9975392,119.096286 70.6810014,119.096286 C71.391802,119.096286 72.0000743,119.222374 72.5058363,119.474553 C73.0115983,119.726732 73.3966095,120.043098 73.6608816,120.423659 C73.9251536,120.80422 74.0664004,121.187068 74.084626,121.572215 C74.084626,121.654746 74.0572879,121.723521 74.002611,121.778542 C73.947934,121.833563 73.8795888,121.861073 73.7975733,121.861073 L73.1141146,121.861073 C73.0412119,121.861073 72.9728668,121.838148 72.9090769,121.792297 C72.8452871,121.746446 72.7997237,121.677671 72.7723852,121.58597 C72.7177082,121.191653 72.4990036,120.866118 72.1162648,120.609354 C71.733526,120.352589 71.2551096,120.224209 70.6810014,120.224209 C70.061329,120.224209 69.5692436,120.345712 69.2047305,120.588721 C68.8402173,120.83173 68.6579634,121.191653 68.6579634,121.668501 C68.6579634,121.989456 68.7422559,122.250801 68.9108432,122.452545 C69.0794305,122.654288 69.3391423,122.833103 69.6899862,122.988996 C70.0408301,123.144888 70.553419,123.323704 71.2277684,123.525447 C72.0023589,123.745531 72.6106311,123.965611 73.0526033,124.185695 C73.4945755,124.405778 73.8249106,124.678586 74.0436185,125.004127 C74.2623264,125.329667 74.3716787,125.749195 74.3716787,126.262724 C74.3716787,127.124718 74.0458999,127.796421 73.3943327,128.277854 C72.7427654,128.759287 71.8611124,129 70.7493473,129 C70.0020953,129 69.3528159,128.88079 68.8014898,128.642366 Z M76.6134234,126.455296 L76.6134234,122.768913 L75.5335586,122.768913 C75.4424303,122.768913 75.3695288,122.741403 75.3148518,122.686382 C75.2601748,122.631361 75.2328367,122.558001 75.2328367,122.4663 L75.2328367,122.026135 C75.2328367,121.934433 75.2601748,121.858781 75.3148518,121.799175 C75.3695288,121.739569 75.4424303,121.709766 75.5335586,121.709766 L76.6134234,121.709766 L76.6134234,119.412655 C76.6134234,119.320953 76.6407615,119.245301 76.6954385,119.185695 C76.7501155,119.126089 76.823017,119.096286 76.9141453,119.096286 L77.515589,119.096286 C77.6067173,119.096286 77.681897,119.126089 77.7411304,119.185695 C77.8003638,119.245301 77.82998,119.320953 77.82998,119.412655 L77.82998,121.709766 L79.5249578,121.709766 C79.6160861,121.709766 79.6912658,121.739569 79.7504992,121.799175 C79.8097325,121.858781 79.8393488,121.934433 79.8393488,122.026135 L79.8393488,122.4663 C79.8393488,122.558001 79.8097325,122.631361 79.7504992,122.686382 C79.6912658,122.741403 79.6160861,122.768913 79.5249578,122.768913 L77.82998,122.768913 L77.82998,126.35901 C77.82998,126.826687 77.9051597,127.179733 78.0555214,127.418157 C78.2058831,127.656581 78.4633167,127.775791 78.8278298,127.775791 L79.6616495,127.775791 C79.7527778,127.775791 79.8256793,127.805593 79.8803563,127.865199 C79.9350333,127.924805 79.9623714,128.000458 79.9623714,128.09216 L79.9623714,128.54608 C79.9623714,128.637781 79.9350333,128.713434 79.8803563,128.77304 C79.8256793,128.832646 79.7527778,128.862448 79.6616495,128.862448 L78.7321456,128.862448 C77.3196571,128.862448 76.6134234,128.060072 76.6134234,126.455296 Z M81.9444018,128.154058 C81.4705347,127.590093 81.2336047,126.840445 81.2336047,125.905089 L81.2336047,122.026135 C81.2336047,121.934433 81.2632209,121.858781 81.3224543,121.799175 C81.3816877,121.739569 81.4568674,121.709766 81.5479957,121.709766 L82.1767778,121.709766 C82.2679061,121.709766 82.3430858,121.739569 82.4023192,121.799175 C82.4615525,121.858781 82.4911688,121.934433 82.4911688,122.026135 L82.4911688,125.836314 C82.4911688,127.230177 83.0926065,127.927098 84.2954999,127.927098 C84.878721,127.927098 85.3411901,127.741405 85.6829212,127.370014 C86.0246523,126.998623 86.1955153,126.487394 86.1955153,125.836314 L86.1955153,122.026135 C86.1955153,121.934433 86.2251315,121.858781 86.2843649,121.799175 C86.3435983,121.739569 86.418778,121.709766 86.5099063,121.709766 L87.1386884,121.709766 C87.2298167,121.709766 87.3049964,121.739569 87.3642298,121.799175 C87.4234632,121.858781 87.4530794,121.934433 87.4530794,122.026135 L87.4530794,128.54608 C87.4530794,128.637781 87.4234632,128.713434 87.3642298,128.77304 C87.3049964,128.832646 87.2298167,128.862448 87.1386884,128.862448 L86.5509138,128.862448 C86.4597855,128.862448 86.3846058,128.832646 86.3253724,128.77304 C86.2661391,128.713434 86.2365228,128.637781 86.2365228,128.54608 L86.2365228,127.927098 C85.9722508,128.284734 85.6624192,128.552956 85.3070189,128.731774 C84.9516186,128.910592 84.5005403,129 83.9537705,129 C83.0880518,129 82.4182689,128.718022 81.9444018,128.154058 Z M89.9477039,128.064649 C89.4692804,127.441079 89.2118468,126.652458 89.1753955,125.698762 L89.1617263,125.286107 L89.1753955,124.873453 C89.2118468,123.928927 89.4715585,123.142598 89.9545385,122.514443 C90.4375184,121.886288 91.1528648,121.572215 92.100599,121.572215 C93.0483332,121.572215 93.7864613,121.911505 94.3150054,122.590096 L94.3150054,119.412655 C94.3150054,119.320953 94.3446216,119.245301 94.403855,119.185695 C94.4630884,119.126089 94.5382681,119.096286 94.6293964,119.096286 L95.2445093,119.096286 C95.3356376,119.096286 95.4108173,119.126089 95.4700507,119.185695 C95.5292841,119.245301 95.5589003,119.320953 95.5589003,119.412655 L95.5589003,128.54608 C95.5589003,128.637781 95.5292841,128.713434 95.4700507,128.77304 C95.4108173,128.832646 95.3356376,128.862448 95.2445093,128.862448 L94.6567348,128.862448 C94.5656065,128.862448 94.4927049,128.832646 94.438028,128.77304 C94.383351,128.713434 94.3560129,128.637781 94.3560129,128.54608 L94.3560129,127.954608 C93.8365816,128.651539 93.0847845,129 92.100599,129 C91.1437519,129 90.4261274,128.68822 89.9477039,128.064649 Z M93.7955767,127.287483 C94.1145257,126.861071 94.2876669,126.354428 94.3150054,125.767538 C94.3241182,125.666666 94.3286746,125.492436 94.3286746,125.244842 C94.3286746,124.988078 94.3241182,124.809262 94.3150054,124.708391 C94.2967797,124.149011 94.1213604,123.665293 93.7887421,123.257221 C93.4561239,122.84915 92.9799857,122.645117 92.3603133,122.645117 C91.7041896,122.645117 91.2257733,122.851442 90.9250499,123.264099 C90.6243266,123.676756 90.4602981,124.217787 90.4329596,124.887208 L90.4192904,125.286107 C90.4192904,127.046776 91.0662916,127.927098 92.3603133,127.927098 C92.9982114,127.927098 93.4766277,127.713895 93.7955767,127.287483 Z M97.602442,120.272352 C97.5432086,120.212746 97.5135924,120.137094 97.5135924,120.045392 L97.5135924,119.330124 C97.5135924,119.238422 97.5432086,119.160477 97.602442,119.096286 C97.6616754,119.032095 97.7368551,119 97.8279834,119 L98.6344648,119 C98.725593,119 98.8030509,119.032095 98.8668407,119.096286 C98.9306305,119.160477 98.962525,119.238422 98.962525,119.330124 L98.962525,120.045392 C98.962525,120.137094 98.9306305,120.212746 98.8668407,120.272352 C98.8030509,120.331958 98.725593,120.361761 98.6344648,120.361761 L97.8279834,120.361761 C97.7368551,120.361761 97.6616754,120.331958 97.602442,120.272352 Z M97.7117954,128.77304 C97.652562,128.713434 97.6229458,128.637781 97.6229458,128.54608 L97.6229458,122.026135 C97.6229458,121.934433 97.652562,121.858781 97.7117954,121.799175 C97.7710288,121.739569 97.8462085,121.709766 97.9373368,121.709766 L98.5387805,121.709766 C98.6299088,121.709766 98.7050885,121.739569 98.7643219,121.799175 C98.8235553,121.858781 98.8531716,121.934433 98.8531716,122.026135 L98.8531716,128.54608 C98.8531716,128.637781 98.8235553,128.713434 98.7643219,128.77304 C98.7050885,128.832646 98.6299088,128.862448 98.5387805,128.862448 L97.9373368,128.862448 C97.8462085,128.862448 97.7710288,128.832646 97.7117954,128.77304 Z M101.470819,128.14718 C100.928605,127.578631 100.639277,126.822105 100.602826,125.877579 L100.589157,125.286107 L100.602826,124.694635 C100.639277,123.75011 100.933162,122.993584 101.484488,122.425034 C102.035814,121.856485 102.803558,121.572215 103.787744,121.572215 C104.771929,121.572215 105.539674,121.856485 106.091,122.425034 C106.642326,122.993584 106.93621,123.75011 106.972662,124.694635 C106.990887,124.896379 107,125.093534 107,125.286107 C107,125.47868 106.990887,125.675836 106.972662,125.877579 C106.93621,126.822105 106.646882,127.578631 106.104669,128.14718 C105.562456,128.71573 104.790155,129 103.787744,129 C102.785333,129 102.013032,128.71573 101.470819,128.14718 Z M105.175165,127.411279 C105.516896,127.039888 105.701428,126.505735 105.728767,125.808803 C105.73788,125.717102 105.742436,125.542872 105.742436,125.286107 C105.742436,125.029343 105.73788,124.855113 105.728767,124.763411 C105.701428,124.06648 105.516896,123.532326 105.175165,123.160935 C104.833434,122.789544 104.370965,122.603851 103.787744,122.603851 C103.204523,122.603851 102.742054,122.789544 102.400323,123.160935 C102.058591,123.532326 101.874059,124.06648 101.846721,124.763411 L101.833052,125.286107 L101.846721,125.808803 C101.874059,126.505735 102.058591,127.039888 102.400323,127.411279 C102.742054,127.78267 103.204523,127.968363 103.787744,127.968363 C104.370965,127.968363 104.833434,127.78267 105.175165,127.411279 Z" id="Fitness-Studio" fill="#4DBEDD"></path>
                <g id="WORTH-IT" transform="translate(0.000000, 91.000000)">
                    <g id="Group-3" transform="translate(0.000000, 0.074115)">
                        <mask id="mask-2" fill="white">
                            <use xlink:href="#path-1"></use>
                        </mask>
                        <g id="Clip-2"></g>
                        <path d="M22.1769292,0.247991978 C23.2747217,0.644617585 23.8240183,1.17412489 23.8240183,1.83570609 C23.8240183,2.05057862 23.7255293,2.45568604 23.5289515,3.05062445 L18.8082838,16.8161987 C18.7754541,16.9325207 18.717802,17.0730764 18.6365285,17.2378659 C18.5540539,17.403867 18.3370578,17.6227785 17.9847392,17.8954081 C17.6320204,18.1684416 17.2140425,18.3045545 16.7308056,18.3045545 C16.2471684,18.3045545 15.8295909,18.1684416 15.4772723,17.8954081 C15.1245535,17.6227785 14.8911425,17.3541878 14.7766389,17.0892322 L11.899638,8.5322973 C10.0803933,13.9558092 9.15435607,16.7172443 9.12152639,16.8161987 C9.08869671,16.915961 9.01462975,17.0565167 8.90012623,17.2378659 C8.78522235,17.4204267 8.65430399,17.5856201 8.50657043,17.7342537 C8.12982984,18.1147235 7.67902228,18.3045545 7.15494849,18.3045545 C6.63007397,18.3045545 6.19968487,18.1805585 5.8637812,17.9325665 C5.52787752,17.6845745 5.30247374,17.4365826 5.18756986,17.1885906 L5.01581459,16.8161987 L0.270324389,3.05062445 C0.0901615112,2.50496132 -0.00032028956,2.1002578 -0.00032028956,1.83570609 C-0.00032028956,1.17412489 0.548976306,0.653503292 1.6475695,0.273033514 C2.12239877,0.107436264 2.55278787,0.0246376395 2.93793606,0.0246376395 C3.32308426,0.0246376395 3.61815102,0.157115439 3.82313634,0.421667142 C4.02812165,0.686218846 4.21228815,1.09132626 4.37643655,1.6365855 L7.08088153,9.92129472 L9.76090442,1.76098538 C9.99031182,1.06628473 10.4078893,0.587264392 11.0144377,0.322712688 C11.2762744,0.206794614 11.6169824,0.148633629 12.0349603,0.148633629 C12.4529382,0.148633629 12.8424904,0.285150386 13.2028161,0.558183899 C13.5631419,0.830813517 13.7929496,1.09980807 13.8914387,1.36435978 L16.7187948,9.97057 L19.4228394,1.6365855 C19.5537577,1.25692351 19.6606544,0.975812084 19.7427286,0.79365511 C19.8248028,0.611902031 19.9765399,0.433784014 20.1979401,0.26010885 C20.4189399,0.086837582 20.6931878,0 21.0210843,0 C21.3493811,0 21.7345293,0.0827986247 22.1769292,0.247991978" id="Fill-1" fill="#413C58" mask="url(#mask-2)"></path>
                    </g>
                    <path d="M28.3403413,9.35059005 C28.3403413,10.8223861 28.811167,12.0171097 29.753619,12.9343569 C30.6964714,13.8524119 31.7494233,14.3112374 32.9132755,14.3112374 C34.0767273,14.3112374 35.1256756,13.8645287 36.0601204,12.9719192 C36.9945652,12.0789057 37.4613873,10.8801432 37.4613873,9.37563159 C37.4613873,7.8707161 36.9901612,6.66387565 36.0481096,5.75389857 C35.1052572,4.84513318 34.0523053,4.38994269 32.8884531,4.38994269 C31.7246009,4.38994269 30.6760529,4.84876824 29.7416081,5.76641934 C28.8071633,6.68407044 28.3403413,7.87879401 28.3403413,9.35059005 M32.8151868,0 C35.2401792,0 37.3468837,0.884531649 39.1332988,2.65359495 C40.9197138,4.42346604 41.8133217,6.61823544 41.8133217,9.23911483 C41.8133217,11.8599942 40.9609511,14.091922 39.2566102,15.935706 C37.5518691,17.7798939 35.4539724,18.7011801 32.96252,18.7011801 C30.4706672,18.7011801 28.3523522,17.7920108 26.6067741,15.9728644 C24.8615963,14.1545259 23.9884069,11.9880292 23.9884069,9.47458604 C23.9884069,8.10214835 24.2342291,6.81695213 24.7258736,5.61778571 C25.2179185,4.41902318 25.873311,3.4145345 26.6928519,2.60391577 C27.5123928,1.79410483 28.4548448,1.15716127 29.520208,0.693892865 C30.5855711,0.231432253 31.6841643,0 32.8151868,0" id="Fill-4" fill="#413C58"></path>
                    <path d="M48.1727109,9.00311855 L51.3199562,9.00311855 C51.7951858,9.00311855 52.2700151,8.82136548 52.7460455,8.45745542 C53.2208747,8.09394927 53.4586897,7.54828613 53.4586897,6.82046603 C53.4586897,6.09304982 53.2208747,5.54334773 52.7460455,5.17135976 C52.2700151,4.7989679 51.7783706,4.61317586 51.2707117,4.61317586 L48.1727109,4.61317586 L48.1727109,9.00311855 Z M57.6140464,15.3281257 C57.8598687,15.923468 57.9827798,16.3536169 57.9827798,16.6181687 C57.9827798,17.2462265 57.4743201,17.7753299 56.4582015,18.205075 C55.9337273,18.4365072 55.5117458,18.5528292 55.192257,18.5528292 C54.8723678,18.5528292 54.6101307,18.4736656 54.4055458,18.3169541 C54.2005604,18.1598387 54.0492236,17.9986843 53.9507346,17.833087 C53.7861858,17.51926 53.1476085,16.0224224 52.0330008,13.343786 L51.2707117,13.3934651 L48.1727109,13.3934651 L48.1727109,16.1965015 C48.1727109,16.5769713 48.1607001,16.8621217 48.1358776,17.0519527 C48.1114555,17.2417837 48.033385,17.461099 47.9024666,17.7094949 C47.6726588,18.1553958 47.0332808,18.3787501 45.9847329,18.3787501 C44.8372955,18.3787501 44.1650878,18.0730011 43.9689104,17.461099 C43.8704214,17.1799876 43.8211769,16.7506465 43.8211769,16.17146 L43.8211769,2.4054818 C43.8211769,2.02541592 43.8331877,1.74026553 43.8580102,1.55003064 C43.8824323,1.35979575 43.9601025,1.14048037 44.0918216,0.892488395 C44.3208286,0.445779717 44.9602066,0.222829274 46.0095553,0.222829274 L51.3199562,0.222829274 C52.76206,0.222829274 54.1637271,0.752336577 55.5237567,1.81013949 C56.1795496,2.32308707 56.7204386,3.01778773 57.146824,3.89383757 C57.5728091,4.7706952 57.7862021,5.74610339 57.7862021,6.82046603 C57.7862021,8.68929157 57.1716465,10.2269226 55.9421349,11.434167 C56.302861,12.3106207 56.8597645,13.6083377 57.6140464,15.3281257 L57.6140464,15.3281257 Z" id="Fill-6" fill="#413C58"></path>
                    <path d="M60.1472166,0.197868518 L73.8175754,0.197868518 C74.3416492,0.197868518 74.7271977,0.260068461 74.9726196,0.38406445 C75.2188422,0.508060439 75.3825902,0.702738181 75.4646644,0.966885989 C75.5463383,1.23184159 75.5871752,1.57878802 75.5871752,2.00853308 C75.5871752,2.43908593 75.5463383,2.7815895 75.4646644,3.03806329 C75.3825902,3.29453708 75.2432643,3.47184731 75.0466865,3.57160955 C74.7516198,3.72024318 74.3336419,3.79456 73.7927529,3.79456 L69.0969076,3.79456 L69.0969076,16.2704952 C69.0969076,16.650965 69.084096,16.9320764 69.0600743,17.1138295 C69.0348515,17.2959865 68.9615853,17.50682 68.8386741,17.7463302 C68.7153627,17.9862443 68.4979661,18.1554766 68.1868849,18.2548349 C67.8758037,18.3541933 67.4654327,18.4034686 66.9577737,18.4034686 C66.449314,18.4034686 66.0437474,18.3541933 65.7406734,18.2548349 C65.437199,18.1554766 65.2242065,17.9862443 65.1012953,17.7463302 C64.9783842,17.50682 64.9047176,17.2915436 64.8798952,17.1017126 C64.8554731,16.9114777 64.8430619,16.6263273 64.8430619,16.2454537 L64.8430619,3.79456 L60.1223941,3.79456 C59.59792,3.79456 59.2127718,3.73276395 58.9673499,3.60836406 C58.7211273,3.48477197 58.5573793,3.29009423 58.4753051,3.02554253 C58.3932309,2.76139472 58.3527943,2.41404439 58.3527943,1.98389544 C58.3527943,1.55374648 58.3932309,1.21124291 58.4753051,0.954769117 C58.5573793,0.698295328 58.6967052,0.520581207 58.8932829,0.421626753 C59.1883497,0.272589228 59.6063276,0.197868518 60.1472166,0.197868518" id="Fill-8" fill="#413C58"></path>
                    <path d="M88.0595709,0.892448006 C88.1904893,0.644859923 88.4118895,0.470780863 88.7233711,0.371826409 C89.0344523,0.27246806 89.4280081,0.222788885 89.9032377,0.222788885 C90.3788677,0.222788885 90.7556083,0.264390145 91.0346606,0.346784874 C91.3129122,0.429583499 91.5263051,0.529345744 91.6736383,0.644859923 C91.8213718,0.760374102 91.9358753,0.925971351 92.0179495,1.14043998 C92.1000237,1.42195531 92.1408607,1.85170036 92.1408607,2.43048295 L92.1408607,16.1964611 C92.1408607,16.5769309 92.1284494,16.8620813 92.1040274,17.0519123 C92.0796053,17.2417433 92.0015347,17.4610587 91.8706164,17.7094545 C91.6408086,18.1553554 91.0014306,18.3787098 89.9528826,18.3787098 C88.8050449,18.3787098 88.1332375,18.0729607 87.9366598,17.4610587 C87.8381708,17.1799472 87.7889263,16.7506061 87.7889263,16.1714196 L87.7889263,11.1360515 L81.2738362,11.1360515 L81.2738362,16.1964611 C81.2738362,16.5769309 81.2618254,16.8620813 81.2370029,17.0519123 C81.2121805,17.2417433 81.1341099,17.4610587 81.0031916,17.7094545 C80.7737842,18.1553554 80.1344061,18.3787098 79.0858582,18.3787098 C77.9384208,18.3787098 77.2662131,18.0729607 77.0696354,17.4610587 C76.9711464,17.1799472 76.9219018,16.7506061 76.9219018,16.1714196 L76.9219018,2.40544141 C76.9219018,2.02537553 76.9343131,1.74022514 76.9587351,1.54999025 C76.9835576,1.35975537 77.0608274,1.14043998 77.1925465,0.892448006 C77.4219539,0.446143224 78.0609316,0.222788885 79.1098799,0.222788885 C80.2573173,0.222788885 80.9375322,0.529345744 81.1505248,1.14043998 C81.232599,1.42195531 81.2738362,1.85170036 81.2738362,2.43048295 L81.2738362,7.49008476 L87.7889263,7.49008476 L87.7889263,2.40544141 C87.7889263,2.02537553 87.8009371,1.74022514 87.8261599,1.54999025 C87.8509824,1.35975537 87.9282522,1.14043998 88.0595709,0.892448006" id="Fill-10" fill="#413C58"></path>
                    <path d="M100.344878,2.4054818 C100.344878,2.02541592 100.356888,1.74026553 100.382111,1.55003064 C100.406533,1.35979575 100.484204,1.14048037 100.615522,0.892488395 C100.844529,0.445779717 101.484308,0.222829274 102.533256,0.222829274 C103.680293,0.222829274 104.360508,0.528982238 104.573901,1.14048037 C104.655975,1.4215918 104.696812,1.85174075 104.696812,2.43052334 L104.696812,16.2211391 C104.696812,16.6177648 104.684401,16.907358 104.659578,17.0887072 C104.635557,17.271268 104.557086,17.4861406 104.426167,17.7337287 C104.19676,18.1804373 103.556982,18.4033878 102.508434,18.4033878 C101.360996,18.4033878 100.688788,18.0895608 100.492611,17.461099 C100.394122,17.1969512 100.344878,16.7752841 100.344878,16.1965015 L100.344878,2.4054818 Z" id="Fill-12" fill="#413C58"></path>
                    <path d="M108.032708,0.197868518 L121.703067,0.197868518 C122.22714,0.197868518 122.612689,0.260068461 122.858511,0.38406445 C123.104333,0.508060439 123.268081,0.702738181 123.350156,0.966885989 C123.43183,1.23184159 123.473067,1.57878802 123.473067,2.00853308 C123.473067,2.43908593 123.43183,2.7815895 123.350156,3.03806329 C123.268081,3.29453708 123.128756,3.47184731 122.932178,3.57160955 C122.637511,3.72024318 122.219133,3.79456 121.678244,3.79456 L116.982399,3.79456 L116.982399,16.2704952 C116.982399,16.650965 116.969988,16.9320764 116.945566,17.1138295 C116.920743,17.2959865 116.847077,17.50682 116.724165,17.7463302 C116.601254,17.9862443 116.383858,18.1554766 116.072376,18.2548349 C115.761295,18.3541933 115.350924,18.4034686 114.843265,18.4034686 C114.334805,18.4034686 113.929639,18.3541933 113.626565,18.2548349 C113.323091,18.1554766 113.110098,17.9862443 112.986787,17.7463302 C112.863875,17.50682 112.790609,17.2915436 112.765386,17.1017126 C112.741365,16.9114777 112.728553,16.6263273 112.728553,16.2454537 L112.728553,3.79456 L108.008286,3.79456 C107.483411,3.79456 107.098663,3.73276395 106.852841,3.60836406 C106.606619,3.48477197 106.442871,3.29009423 106.360796,3.02554253 C106.278722,2.76139472 106.238286,2.41404439 106.238286,1.98389544 C106.238286,1.55374648 106.278722,1.21124291 106.360796,0.954769117 C106.442871,0.698295328 106.582196,0.520581207 106.779175,0.421626753 C107.073841,0.272589228 107.491819,0.197868518 108.032708,0.197868518" id="Fill-14" fill="#413C58"></path>
                </g>
                <g id="LOGO" transform="translate(22.000000, 0.000000)">
                    <path d="M80.0723901,40.5302748 C80.0723901,62.9145339 62.1476741,81.0605497 40.0364025,81.0605497 C17.9247159,81.0605497 0,62.9145339 0,40.5302748 C0,18.1460158 17.9247159,0 40.0364025,0 C62.1476741,0 80.0723901,18.1460158 80.0723901,40.5302748" id="BG" fill-opacity="0.2" fill="#FDCA40"></path>
                    <path d="M40.048807,71.2842017 C22.1431762,71.2842017 7.62834419,56.5955264 7.62834419,38.4758587 C7.62834419,20.3561909 22.1431762,5.66751563 40.048807,5.66751563 C57.9540249,5.66751563 72.4692698,20.3561909 72.4692698,38.4758587 C72.4692698,56.5955264 57.9540249,71.2842017 40.048807,71.2842017 Z" id="BG-FILL" fill="#FDCA40"></path>
                    <g id="stars" transform="translate(12.769165, 8.782143)" fill="#413C58">
                        <path d="M26.3647704,5.95014264 L27.3113321,8.3060053 C27.4545645,8.66303221 27.943601,8.58750728 28.006214,8.19829646 L28.4158587,5.63431115 C28.4350928,5.5128705 28.5046628,5.40730726 28.6041071,5.34808885 L30.6416907,4.11780502 C30.9351125,3.94100804 30.8839581,3.47069375 30.562299,3.38873204 L28.3270546,2.82014953 C28.2173795,2.79268592 28.1277569,2.71072421 28.0835595,2.5991533 L27.1361793,0.230846202 C26.9925376,-0.127038944 26.5026827,-0.0515140214 26.4408882,0.338125922 L26.0328804,2.91755951 C26.0144648,3.0377128 25.9448947,3.14327605 25.8458597,3.20421093 L23.8197348,4.43149092 C23.5271314,4.60871702 23.578695,5.07774396 23.8999449,5.1605639 L26.1216845,5.73043378 C26.2301319,5.75875562 26.3205729,5.83942997 26.3647704,5.95014264" id="Fill-1"></path>
                        <g id="Group-5" transform="translate(0.000000, 20.588712)">
                            <path d="M2.64067596,4.02467474 L1.60749597,5.30266296 C1.40005906,5.55793542 1.00921267,5.38802477 1.05086024,5.06121099 L1.26029944,3.43689771 C1.27311407,3.33446354 1.24027657,3.23324882 1.17019653,3.16252046 L0.0937671493,2.07517361 C-0.112067934,1.86786636 0.044510894,1.49796519 0.335242937,1.50365597 L1.85858273,1.53007749 C1.9574957,1.53170342 2.05320501,1.48577064 2.11727819,1.40569313 L3.13403943,0.126078967 C3.33907359,-0.1316324 3.73232272,0.0350263706 3.69227698,0.361840154 L3.49565242,1.99834798 C3.48323824,2.0995627 3.51687666,2.19915147 3.58495441,2.26906686 L4.64937007,3.35072293 C4.85280241,3.55803018 4.69822587,3.92589893 4.40829474,3.92183408 L2.89616775,3.90150984 C2.79885661,3.90029039 2.70434868,3.94622317 2.64067596,4.02467474" id="Fill-3"></path>
                        </g>
                        <path d="M10.3845039,10.7736625 L9.18978413,11.351852 C8.95042677,11.4678076 8.71230962,11.2219976 8.85121129,11.0023968 L9.5403455,9.91511463 C9.58375227,9.84641492 9.59202023,9.76381642 9.56266898,9.69114563 L9.11041174,8.57447746 C9.02359819,8.3620246 9.26212875,8.14877751 9.47916262,8.2456719 L10.6147665,8.7511906 C10.6879379,8.78375347 10.7751649,8.78137082 10.8499899,8.74523398 L12.0323077,8.16029365 C12.2704249,8.04274963 12.5114358,8.28657404 12.3741877,8.50617486 L11.6904277,9.60656159 C11.6482611,9.67446708 11.6404065,9.75587426 11.668931,9.82735373 L12.1141605,10.9364768 C12.1993204,11.1485326 11.9620301,11.3609855 11.7462364,11.2652824 L10.6168335,10.7677059 C10.5440755,10.7359372 10.4585021,10.7383199 10.3845039,10.7736625" id="Fill-6"></path>
                        <path d="M43.0074803,10.0439325 L42.1211871,9.08006288 C41.9436891,8.88753474 42.1144063,8.58850167 42.3641001,8.65527207 L43.6010016,8.98871442 C43.6791805,9.00960577 43.7609492,8.99363003 43.8223755,8.94365464 L44.7720894,8.18460222 C44.9531772,8.03918203 45.2240112,8.20303576 45.1909048,8.4373466 L45.0177944,9.66461107 C45.006626,9.74448977 45.0325527,9.82641664 45.0887936,9.88622325 L45.9778789,10.8369845 C46.1569724,11.0278741 45.9890474,11.3285457 45.7397525,11.2634139 L44.4916825,10.9389835 C44.4143013,10.919321 44.3341281,10.9357064 44.2731007,10.9840433 L43.328971,11.7340837 C43.1482821,11.8774558 42.8786447,11.7152406 42.9105545,11.481749 L43.0776818,10.2622676 C43.0880524,10.1840274 43.0621258,10.1033294 43.0074803,10.0439325" id="Fill-8"></path>
                        <path d="M51.3229391,24.8748 L49.7434222,25.5746481 C49.4268379,25.7151006 49.1259978,25.3911341 49.3149271,25.1146559 L50.2557439,23.7427283 C50.3148907,23.6566055 50.3289328,23.5507631 50.2931894,23.4565915 L49.7472518,22.0073948 C49.6425748,21.7309166 49.9617121,21.4661092 50.2404253,21.5981105 L51.7012233,22.2866901 C51.7956879,22.3317637 51.9093008,22.3317637 52.0080206,22.2870926 L53.572219,21.5787932 C53.8875267,21.435926 54.1913454,21.7574778 54.0045437,22.0343585 L53.0705351,23.4227863 C53.0130904,23.5085066 52.9994739,23.6127393 53.0339407,23.7057036 L53.571368,25.1444367 C53.6734919,25.4197076 53.3569077,25.6837101 53.0786199,25.553721 L51.6259068,24.8752024 C51.5318677,24.8321411 51.4203824,24.8321411 51.3229391,24.8748" id="Fill-10"></path>
                    </g>
                    <g id="kettelbell" transform="translate(3.980006, 22.203909)">
                        <path d="M62.0744212,27.8275961 C68.4006064,28.2575284 68.1282462,22.5757825 68.1282462,22.5757825 L44.8802377,19.0883718 C44.8802377,19.0883718 41.7773945,18.6818009 39.6756814,21.9843695 C51.8761815,26.1767217 46.1685841,34.5356055 46.1685841,34.5356055 C46.858976,34.6696264 45.0981259,34.5917549 49.4071948,35.5413766 C54.4021162,36.6430525 54.6691118,31.9928982 54.6691118,31.9928982 C60.0705102,33.1048204 62.0744212,27.8275961 62.0744212,27.8275961" id="ringt-wing-fill" fill="#4DBEDD"></path>
                        <path d="M71.2090514,23.9420766 C71.4667979,23.9420766 71.6934017,23.1584509 71.7311007,22.9081748 C71.7351984,22.8835767 71.7368382,22.859369 71.7368382,22.8351614 C71.7372473,22.5891802 71.5479327,22.3740443 71.2852689,22.3381233 L50.6991519,19.4835705 C50.4114921,19.443745 50.1430916,19.6338924 50.1008851,19.9087665 C50.0971971,19.9329742 50.0955574,19.9575723 50.0955574,19.9813896 C50.0951483,20.2273707 50.2844629,20.4425066 50.5471266,20.4792086" id="shadow-right" fill-opacity="0.219999999" fill="#413C58"></path>
                        <path d="M48.4664156,35.8655831 C48.8230551,35.9856407 49.5936586,36.2052581 51.2544279,36.5813269 C52.7051442,36.910544 53.8377102,36.7507461 54.6230542,36.1082081 C55.4915186,35.3966475 55.7908338,34.2123864 55.8927893,33.514212 L53.1981339,32.9662141 C52.8730227,32.9001197 52.6482293,32.6089697 52.6478198,32.2830992 C52.6478198,32.2375024 52.6523239,32.1914873 52.661332,32.1450539 C52.7346253,31.7668935 53.0937216,31.5209219 53.4646922,31.597056 L56.7624821,32.267203 C56.7657577,32.2680397 56.768624,32.2688763 56.7718996,32.2692946 C60.814497,33.1205738 63.0951884,30.4797259 64.0054177,29.0549314 C57.8512359,28.1944492 54.6242826,27.4619727 54.5911164,27.4544429 C54.2303822,27.3716158 53.9994468,27.0110248 54.0698739,26.6403941 C54.1398916,26.2697635 54.4838379,26.022537 54.8507139,26.0840299 L65.1944892,27.8087591 C66.9940654,28.0497109 68.3813154,27.7175656 69.3152934,26.8215263 C70.4957662,25.6887184 70.7254732,23.8932932 70.7631435,22.9926524 L46.007609,19.2629202 C45.9068819,19.2503706 43.4235078,18.9797182 41.4343517,21.5197512 C45.6792222,23.1834059 48.3181911,25.5276656 49.2841069,28.4977305 C50.3159458,31.6681702 49.1231892,34.6030964 48.4664156,35.8655831 M52.6216144,38.1450033 C52.1028287,38.1450033 51.5480106,38.0784906 50.9579789,37.9446285 C48.4582264,37.377388 47.4992714,37.1092455 47.1839873,36.7227187 C47.0570547,36.6465847 46.9555087,36.5294554 46.8977748,36.3863903 C46.8101504,36.1701193 46.8351274,35.9233111 46.9632884,35.7296294 C46.9939979,35.6827777 49.1166379,32.3868423 47.9832529,28.9256708 C47.0914493,26.2015775 44.4508426,24.0472346 40.135545,22.5224619 C39.9385948,22.4526026 39.7830001,22.294478 39.7142108,22.0932666 C39.6450121,21.8920551 39.6699891,21.6695094 39.7813622,21.4892139 C42.3077296,17.4060022 46.0395469,17.8586233 46.19637,17.8799576 L71.5448024,21.6992101 C71.8617243,21.7464801 72.1037151,22.012531 72.1270543,22.3388198 C72.1376026,22.4797933 72.349391,25.8171423 70.2582795,27.832185 C69.0990986,28.949515 67.4940159,29.4243071 65.4807017,29.2452666 C64.7232009,30.5926721 62.1292726,34.3884987 57.2403217,33.7635301 C57.1006959,34.690525 56.6891887,36.2052581 55.477597,37.1979291 C54.7069935,37.8283359 53.7504952,38.1450033 52.6216144,38.1450033" id="right-wing-outline" fill="#413C58"></path>
                        <path d="M10.0631814,27.8275961 C3.73699621,28.2575284 4.00935643,22.5757825 4.00935643,22.5757825 L27.2569522,19.0883718 C27.2569522,19.0883718 30.3602081,18.6818009 32.4619212,21.9843695 C20.2614211,26.1767217 25.9690185,34.5356055 25.9690185,34.5356055 C25.2786266,34.6696264 27.0390641,34.5917549 22.7304078,35.5413766 C17.7350737,36.6430525 17.4684908,31.9928982 17.4684908,31.9928982 C12.0666797,33.1048204 10.0631814,27.8275961 10.0631814,27.8275961" id="left-wing-fill" fill="#4DBEDD"></path>
                        <path d="M1.32931569,23.9420766 C1.07115944,23.9420766 0.844965396,23.1584509 0.806856616,22.9081748 C0.803168669,22.8835767 0.801528918,22.859369 0.801528918,22.8351614 C0.80111981,22.5891802 0.990434394,22.3740443 1.25309813,22.3381233 L21.8392151,19.4835705 C22.126875,19.443745 22.3952755,19.6338924 22.437482,19.9087665 C22.44117,19.9329742 22.4428097,19.9575723 22.4428097,19.9813896 C22.4432188,20.2273707 22.2539042,20.4425066 21.9912405,20.4792086" id="shadow-left" fill-opacity="0.219999999" fill="#413C58"></path>
                        <path d="M16.2434581,33.514386 C16.3441854,34.2125972 16.6418632,35.3973392 17.5205655,36.1127024 C18.3055013,36.7515092 19.4368407,36.9092238 20.8834647,36.5812444 C22.5438272,36.2051558 23.3144319,35.9855267 23.671072,35.8654628 C23.0142973,34.6033278 21.8215388,31.6678285 22.8537888,28.4972215 C23.8197062,25.5269998 26.4582698,23.1826164 30.7027376,21.518874 C28.7143973,18.9791253 26.2310192,19.249792 26.1159608,19.2640156 L1.37471809,22.9918529 C1.41156954,23.8917046 1.64168635,25.6876428 2.8225705,26.8209288 C3.7561405,27.7174337 5.14216437,28.0495965 6.94297175,27.8082137 L17.287173,26.0833934 C17.6524118,26.0223156 17.997587,26.2695552 18.0680142,26.6397871 C18.1384414,27.0104373 17.9070962,27.3710473 17.5467709,27.4538788 C17.5136046,27.461409 14.2866462,28.1939242 8.13204512,29.0544518 C9.04268532,30.4797398 11.3241994,33.1244921 15.3700788,32.2681479 C15.3721261,32.2681479 15.3737639,32.2677296 15.3754018,32.2673112 L18.6727874,31.5967105 C19.0458059,31.5205724 19.4028555,31.7669753 19.4765584,32.1451556 C19.4855665,32.1911732 19.4900706,32.2371907 19.4900706,32.2827898 C19.4896611,32.6086775 19.2648673,32.8998429 18.9397556,32.9659408 L16.2434581,33.514386 Z M16.6602889,37.1978791 C15.4486952,36.2059925 15.0371874,34.6911794 14.8971519,33.7637173 C10.0086027,34.3903922 7.41467028,30.5926919 6.65716831,29.244797 C4.64426037,29.4238469 3.03917512,28.9490298 1.87958292,27.8316408 C-0.211941437,25.8164918 0.000568574707,22.4789667 0.0103956273,22.3379858 C0.0341443377,22.0116798 0.276135507,21.7456148 0.592648492,21.6983423 L25.9308846,17.8805616 C26.0987634,17.8579712 29.8301772,17.4053262 32.3561392,21.4887534 C32.4675124,21.6690584 32.4924895,21.8911975 32.4237001,22.0924196 C32.3545013,22.2936416 32.1993158,22.4517746 32.0015463,22.5216375 C27.6866513,24.0464907 25.0460404,26.2013656 24.1542354,28.9251844 C23.0183919,32.3936502 25.1525002,35.6968714 25.174611,35.729502 C25.3019533,35.9236122 25.3265209,36.1712701 25.2388963,36.3871341 C25.1811624,36.5293701 25.0800257,36.6460873 24.9535024,36.7222253 C24.6386272,37.1091908 23.6788517,37.3773475 21.1799142,37.944618 C20.5898816,38.0780688 20.0346531,38.1450033 19.5158666,38.1450033 C18.3869839,38.1450033 17.4304841,37.8287375 16.6602889,37.1978791 Z" id="left-wing-outline" fill="#413C58"></path>
                        <path d="M28.3449512,39.4400223 C19.7239574,36.6185956 20.4543197,25.0594103 20.4543197,25.0594103 C20.4543197,25.0594103 20.9123923,18.7944551 24.8402008,15.6621828 C24.8402008,15.6621828 16.4276466,0 36.6244501,0 C57.1808736,0 48.4082875,15.6621828 48.4082875,15.6621828 C52.3360959,18.7944551 52.5001441,25.0594103 52.5001441,25.0594103 C52.5247626,32.9397771 47.8550576,37.386881 45.6746811,39.0330897 C45.0374163,39.5139354 44.2625649,39.7734524 43.4629974,39.768195 L29.6223643,39.6806504 C29.1844764,39.677776 28.7610064,39.5763508 28.3449512,39.4400223" id="kettel-bel" fill="#413C58"></path>
                        <g id="kettel-bel-hand" transform="translate(28.454357, 4.869818)" fill="#FDCA40">
                            <path d="M7.71379269,8.07984214 C4.09458134,8.07984214 1.43103909,9.41654045 1.43103909,9.41654045 C1.43103909,9.41654045 -4.52493733,0.384696417 7.86464454,0.384696417 C20.3294468,0.384696417 14.29825,9.41654045 14.29825,9.41654045 C14.29825,9.41654045 11.3576665,8.07984214 7.71379269,8.07984214" id="Fill-1"></path>
                            <path d="M7.73389257,7.6225079 C4.08179798,7.6225079 1.30398648,9.03468462 1.30398648,9.03468462 C1.30398648,9.03468462 -4.40002213,0 8.10300691,0 C20.6816674,0 14.4671465,9.03468462 14.4671465,9.03468462 C14.4671465,9.03468462 11.4110606,7.6225079 7.73389257,7.6225079" id="Fill-3" fill-opacity="0.2"></path>
                        </g>
                        <path d="M43.4039921,20.8603858 C44.1241607,21.1244761 44.484855,21.4763192 44.484855,21.916331 C44.484855,22.0593972 44.4201984,22.3284781 44.2912918,22.7244056 L41.1938756,31.8798119 C41.17273,31.9571675 41.134912,32.0503269 41.0812348,32.1605378 C41.0275577,32.2707487 40.8852319,32.4158944 40.6538508,32.5976384 C40.4224697,32.7789665 40.1483908,32.8696305 39.8316142,32.8696305 C39.5140243,32.8696305 39.2399455,32.7789665 39.0085644,32.5976384 C38.7771833,32.4158944 38.6242847,32.2370616 38.5490553,32.0615559 L36.6618151,26.3700989 C35.4679049,29.9775303 34.860377,31.8141013 34.8392314,31.8798119 C34.8176792,31.9459385 34.7692885,32.0395138 34.6940591,32.1605378 C34.6188297,32.2815618 34.5330276,32.3913568 34.4358394,32.4903387 C34.1885991,32.7431999 33.8925615,32.8696305 33.5489463,32.8696305 C33.2045178,32.8696305 32.9223061,32.7872843 32.702311,32.6221759 C32.4815027,32.4574834 32.3334839,32.292375 32.2586612,32.1276825 L32.1456138,31.8798119 L29.0323383,22.7244056 C28.9140046,22.3613335 28.855041,22.0922525 28.855041,21.916331 C28.855041,21.4763192 29.2153287,21.1298826 29.9359039,20.8770214 C30.2473941,20.7668105 30.5300125,20.711913 30.7825392,20.711913 C31.0350658,20.711913 31.2286289,20.8000817 31.3632285,20.9755874 C31.497828,21.1519248 31.6190083,21.4214217 31.725956,21.7844938 L33.5005555,27.2942068 L35.2588892,21.86684 C35.4089413,21.4047861 35.6834268,21.0857983 36.0811258,20.9098767 C36.2531367,20.833353 36.4763849,20.7946752 36.7508704,20.7946752 C37.0245426,20.7946752 37.2799158,20.8853392 37.5165833,21.0666673 C37.7532507,21.2484113 37.9041161,21.4268282 37.968366,21.6027498 L39.8230747,27.3270622 L41.5976742,21.7844938 C41.6834763,21.5312167 41.7530127,21.344482 41.8070965,21.2234579 C41.8607736,21.1024339 41.9604017,20.9843211 42.105574,20.8687036 C42.2507464,20.7530861 42.4304835,20.6956933 42.6460055,20.6956933 C42.8611208,20.6956933 43.1136474,20.7505908 43.4039921,20.8603858" id="W" fill="#F7F0F5"></path>
                    </g>
                    <g id="wind" transform="translate(34.990763, 65.556396)" fill="#413C58">
                        <path d="M0.746251062,6.93186537 C0.334002123,6.93186537 0,6.63067101 0,6.25891571 L0,0.673312547 C0,0.301557251 0.334002123,0.000362884779 0.746251062,0.000362884779 C1.1585,0.000362884779 1.49250212,0.301557251 1.49250212,0.673312547 L1.49250212,6.25891571 C1.49250212,6.63067101 1.1585,6.93186537 0.746251062,6.93186537" id="Fill-1"></path>
                        <path d="M4.76076546,10.7752587 L4.76076546,0.672949663 C4.76076546,0.301194367 5.09476758,0 5.50701652,0 C5.91926546,0 6.25326758,0.301194367 6.25326758,0.672949663 L6.25326758,10.7752587 C6.25326758,11.147014 5.91926546,11.4482084 5.50701652,11.4482084 C5.09476758,11.4482084 4.76076546,11.147014 4.76076546,10.7752587 Z" id="Fill-4"></path>
                        <path d="M10.1737636,6.93186537 C9.76151462,6.93186537 9.4275125,6.63067101 9.4275125,6.25891571 L9.4275125,0.673312547 C9.4275125,0.301557251 9.76151462,0.000362884779 10.1737636,0.000362884779 C10.5860125,0.000362884779 10.9200146,0.301557251 10.9200146,0.673312547 L10.9200146,6.25891571 C10.9200146,6.63067101 10.5860125,6.93186537 10.1737636,6.93186537" id="Fill-7"></path>
                    </g>
                </g>
            </g>
        </g>
    </g>
</svg>