<svg width="245" height="245" viewBox="0 0 245 245" fill="none" xmlns="http://www.w3.org/2000/svg">
<path fill-rule="evenodd" clip-rule="evenodd" d="M243.424 122.3C243.424 189.844 189.38 244.599 122.713 244.599C56.0443 244.599 2 189.844 2 122.3C2 54.7554 56.0443 0 122.713 0C189.38 0 243.424 54.7554 243.424 122.3" fill="#FEEFC5"/>
<path fill-rule="evenodd" clip-rule="evenodd" d="M122.75 215.099C68.7632 215.099 25 170.776 25 116.101C25 61.4247 68.7632 17.1018 122.75 17.1018C176.736 17.1018 220.499 61.4247 220.499 116.101C220.499 170.776 176.736 215.099 122.75 215.099Z" fill="#FDCA40"/>
<path fill-rule="evenodd" clip-rule="evenodd" d="M119.992 44.4545L122.846 51.5633C123.277 52.6406 124.752 52.4127 124.941 51.2383L126.176 43.5015C126.234 43.135 126.444 42.8165 126.743 42.6378L132.887 38.9254C133.771 38.3919 133.617 36.9728 132.647 36.7255L125.908 35.0098C125.577 34.9269 125.307 34.6796 125.174 34.3429L122.317 27.1966C121.884 26.1167 120.407 26.3446 120.221 27.5203L118.991 35.3037C118.935 35.6663 118.726 35.9848 118.427 36.1687L112.318 39.872C111.436 40.4067 111.591 41.822 112.56 42.0719L119.259 43.7915C119.586 43.877 119.858 44.1204 119.992 44.4545" fill="#413C58"/>
<path fill-rule="evenodd" clip-rule="evenodd" d="M53.9618 100.771L50.8467 104.627C50.2212 105.397 49.0428 104.885 49.1684 103.898L49.7998 98.997C49.8385 98.6879 49.7395 98.3825 49.5282 98.1691L46.2827 94.888C45.662 94.2625 46.1341 93.1463 47.0107 93.1635L51.6037 93.2432C51.9019 93.2481 52.1905 93.1095 52.3837 92.8679L55.4493 89.0067C56.0675 88.229 57.2532 88.7319 57.1324 89.7181L56.5396 94.6562C56.5021 94.9616 56.6036 95.2621 56.8088 95.4731L60.0181 98.737C60.6315 99.3625 60.1654 100.473 59.2913 100.46L54.7321 100.399C54.4387 100.395 54.1537 100.534 53.9618 100.771" fill="#413C58"/>
<path fill-rule="evenodd" clip-rule="evenodd" d="M71.8099 59.0094L68.2078 60.7541C67.4861 61.104 66.7682 60.3622 67.187 59.6996L69.2647 56.4187C69.3956 56.2114 69.4205 55.9622 69.332 55.7429L67.9685 52.3734C67.7067 51.7323 68.4259 51.0888 69.0803 51.3812L72.5042 52.9066C72.7248 53.0049 72.9878 52.9977 73.2134 52.8886L76.7782 51.1236C77.4961 50.7689 78.2228 51.5046 77.809 52.1673L75.7474 55.4877C75.6203 55.6926 75.5966 55.9382 75.6826 56.1539L77.025 59.5007C77.2817 60.1405 76.5663 60.7816 75.9157 60.4928L72.5104 58.9914C72.2911 58.8955 72.033 58.9027 71.8099 59.0094" fill="#413C58"/>
<path fill-rule="evenodd" clip-rule="evenodd" d="M170.171 56.8074L167.498 53.899C166.963 53.318 167.478 52.4157 168.231 52.6172L171.96 53.6233C172.196 53.6864 172.442 53.6382 172.627 53.4874L175.491 51.1969C176.037 50.7581 176.854 51.2526 176.754 51.9596L176.232 55.6628C176.198 55.9039 176.276 56.1511 176.446 56.3315L179.126 59.2005C179.666 59.7765 179.16 60.6837 178.409 60.4872L174.646 59.5082C174.412 59.4489 174.17 59.4983 173.986 59.6442L171.14 61.9074C170.595 62.3401 169.782 61.8506 169.878 61.146L170.382 57.4663C170.413 57.2302 170.335 56.9867 170.171 56.8074" fill="#413C58"/>
<path fill-rule="evenodd" clip-rule="evenodd" d="M189.742 101.559L184.98 103.671C184.025 104.095 183.118 103.117 183.688 102.283L186.525 98.1434C186.703 97.8835 186.745 97.5641 186.638 97.28L184.991 92.907C184.676 92.0728 185.638 91.2737 186.478 91.672L190.883 93.7498C191.168 93.8858 191.51 93.8858 191.808 93.751L196.524 91.6137C197.475 91.1826 198.391 92.1529 197.828 92.9884L195.011 97.1779C194.838 97.4366 194.797 97.7511 194.901 98.0316L196.521 102.373C196.829 103.204 195.875 104 195.036 103.608L190.656 101.561C190.372 101.431 190.036 101.431 189.742 101.559" fill="#413C58"/>
<path fill-rule="evenodd" clip-rule="evenodd" d="M201.159 150.969C220.233 152.267 219.411 135.122 219.411 135.122L149.317 124.599C149.317 124.599 139.962 123.372 133.625 133.338C170.41 145.988 153.202 171.211 153.202 171.211C155.283 171.615 149.974 171.38 162.966 174.246C178.026 177.57 178.831 163.538 178.831 163.538C195.117 166.893 201.159 150.969 201.159 150.969Z" fill="#67B2AD"/>
<path fill-rule="evenodd" clip-rule="evenodd" d="M228.7 139.245C229.477 139.245 230.161 136.88 230.274 136.125C230.287 136.051 230.292 135.978 230.292 135.905C230.293 135.163 229.722 134.514 228.93 134.405L166.862 125.792C165.994 125.671 165.185 126.245 165.058 127.075C165.047 127.148 165.042 127.222 165.042 127.294C165.04 128.036 165.611 128.685 166.403 128.796" fill="#413C58" fill-opacity="0.22"/>
<path fill-rule="evenodd" clip-rule="evenodd" d="M44.3412 150.969C25.2673 152.267 26.0885 135.122 26.0885 135.122L96.1817 124.599C96.1817 124.599 105.538 123.372 111.875 133.338C75.0897 145.988 92.2985 171.211 92.2985 171.211C90.2169 171.615 95.5247 171.38 82.5338 174.246C67.4725 177.57 66.6688 163.538 66.6688 163.538C50.3819 166.893 44.3412 150.969 44.3412 150.969" fill="#67B2AD"/>
<path fill-rule="evenodd" clip-rule="evenodd" d="M18.0079 139.245C17.2296 139.245 16.5476 136.88 16.4327 136.125C16.4216 136.051 16.4166 135.978 16.4166 135.905C16.4154 135.163 16.9862 134.514 17.7781 134.405L79.8467 125.792C80.7141 125.671 81.5233 126.245 81.6506 127.075C81.6617 127.148 81.6666 127.222 81.6666 127.294C81.6679 128.036 81.0971 128.685 80.3051 128.796" fill="#413C58" fill-opacity="0.22"/>
<path fill-rule="evenodd" clip-rule="evenodd" d="M84.6392 175.456C74.4437 162.059 75.6712 142.616 75.6712 142.616C75.6712 142.616 76.2236 135.056 79.625 127.107L18.1449 136.378C18.256 139.093 18.9498 144.512 22.5102 147.932C25.325 150.637 29.504 151.639 34.9335 150.911L66.122 145.706C67.2233 145.522 68.264 146.268 68.4763 147.385C68.6887 148.504 67.9911 149.592 66.9047 149.842C66.8047 149.864 57.0752 152.075 38.5187 154.671C41.2643 158.972 48.1432 166.953 60.3419 164.369C60.348 164.369 60.3529 164.367 60.3578 164.366L60.3579 164.366L70.2998 162.343C71.4244 162.113 72.501 162.856 72.7232 163.998C72.7503 164.136 72.7639 164.275 72.7639 164.413C72.7627 165.396 72.0849 166.275 71.1047 166.474L62.9752 168.129C63.2789 170.236 64.1764 173.811 66.8257 175.97C69.1924 177.897 72.6034 178.373 76.9651 177.383C81.0485 176.458 83.3471 175.846 84.6392 175.456ZM87.6342 178.863C85.9537 179.588 82.977 180.335 77.8589 181.497C76.08 181.9 74.4059 182.102 72.8417 182.102C69.4381 182.102 66.5541 181.148 64.232 179.244C60.5789 176.251 59.3382 171.68 58.916 168.882C44.1767 170.773 36.3558 159.313 34.0718 155.246C28.0028 155.786 23.1633 154.353 19.6671 150.982C13.361 144.901 14.0017 134.83 14.0313 134.405C14.1029 133.42 14.8326 132.617 15.7869 132.474L81.9369 122.499C83.7166 119.464 85.9913 116.578 88.895 114.26C88.895 114.26 63.5305 67 124.425 67C186.404 67 159.954 114.26 159.954 114.26C163.027 116.713 165.336 119.801 167.07 123.031L229.713 132.477C230.668 132.62 231.398 133.423 231.468 134.407C231.499 134.832 232.139 144.903 225.834 150.983C222.339 154.355 217.499 155.787 211.429 155.247C209.145 159.313 201.324 170.767 186.584 168.881C186.163 171.678 184.922 176.249 181.269 179.244C178.945 181.147 176.062 182.102 172.658 182.102C171.094 182.102 169.421 181.901 167.642 181.497C162.799 180.398 159.874 179.67 158.15 178.982C155.745 181.538 153.463 183.459 151.712 184.782C149.791 186.233 147.455 187.016 145.044 187L103.314 186.736C101.993 186.727 100.716 186.421 99.462 186.01C94.5988 184.417 90.7225 181.901 87.6342 178.863ZM161.126 175.535C162.46 175.928 164.718 176.518 168.536 177.384C172.91 178.377 176.325 177.895 178.692 175.956C181.311 173.809 182.213 170.235 182.521 168.129L174.396 166.475C173.416 166.276 172.738 165.397 172.737 164.414C172.737 164.276 172.75 164.137 172.778 163.997C172.999 162.856 174.081 162.114 175.2 162.344L185.143 164.366C185.153 164.368 185.161 164.371 185.171 164.372C197.36 166.941 204.236 158.972 206.981 154.673C188.426 152.076 178.696 149.866 178.596 149.843C177.508 149.593 176.812 148.505 177.025 147.387C177.236 146.269 178.273 145.523 179.379 145.708L210.566 150.913C215.992 151.64 220.175 150.637 222.991 147.934C226.55 144.515 227.242 139.098 227.356 136.38L169.145 127.603C172.102 135.367 172.291 142.616 172.291 142.616C172.338 157.484 166.852 168.301 161.126 175.535ZM123.049 106.076C112.137 106.076 104.107 110.109 104.107 110.109C104.107 110.109 86.1488 82.8555 123.504 82.8555C161.087 82.8555 142.902 110.109 142.902 110.109C142.902 110.109 134.036 106.076 123.049 106.076Z" fill="#413C58"/>
<path fill-rule="evenodd" clip-rule="evenodd" d="M144.866 129.946C147.037 130.743 148.125 131.805 148.125 133.132C148.125 133.564 147.93 134.376 147.541 135.571L138.202 163.197C138.139 163.43 138.025 163.711 137.863 164.044C137.701 164.377 137.272 164.815 136.574 165.363C135.877 165.91 135.05 166.184 134.095 166.184C133.138 166.184 132.311 165.91 131.614 165.363C130.916 164.815 130.455 164.275 130.228 163.745L124.538 146.571C120.938 157.457 119.106 162.999 119.043 163.197C118.978 163.396 118.832 163.679 118.605 164.044C118.378 164.409 118.12 164.74 117.826 165.039C117.081 165.802 116.188 166.184 115.152 166.184C114.114 166.184 113.263 165.935 112.6 165.437C111.934 164.94 111.488 164.442 111.262 163.945L110.921 163.197L101.535 135.571C101.178 134.475 101 133.663 101 133.132C101 131.805 102.086 130.759 104.259 129.996C105.198 129.664 106.05 129.498 106.812 129.498C107.573 129.498 108.157 129.764 108.562 130.294C108.968 130.826 109.334 131.639 109.656 132.734L115.007 149.36L120.308 132.983C120.76 131.589 121.588 130.626 122.787 130.095C123.306 129.864 123.979 129.748 124.806 129.748C125.632 129.748 126.402 130.021 127.115 130.568C127.829 131.117 128.284 131.655 128.477 132.186L134.069 149.459L139.42 132.734C139.679 131.97 139.888 131.407 140.051 131.041C140.213 130.676 140.514 130.32 140.951 129.971C141.389 129.622 141.931 129.449 142.581 129.449C143.229 129.449 143.991 129.615 144.866 129.946" fill="#F7F0F5"/>
<path fill-rule="evenodd" clip-rule="evenodd" d="M109.75 218.732C108.507 218.732 107.5 217.824 107.5 216.702V199.847C107.5 198.726 108.507 197.817 109.75 197.817C110.993 197.817 112 198.726 112 199.847V216.702C112 217.824 110.993 218.732 109.75 218.732" fill="#413C58"/>
<path fill-rule="evenodd" clip-rule="evenodd" d="M121.854 230.33V199.846C121.854 198.725 122.861 197.816 124.104 197.816C125.347 197.816 126.354 198.725 126.354 199.846V230.33C126.354 231.452 125.347 232.36 124.104 232.36C122.861 232.36 121.854 231.452 121.854 230.33Z" fill="#413C58"/>
<path fill-rule="evenodd" clip-rule="evenodd" d="M138.174 218.732C136.931 218.732 135.924 217.824 135.924 216.702V199.847C135.924 198.726 136.931 197.817 138.174 197.817C139.417 197.817 140.424 198.726 140.424 199.847V216.702C140.424 217.824 139.417 218.732 138.174 218.732" fill="#413C58"/>
</svg>
