<?xml version="1.0" encoding="UTF-8"?>
<svg width="275px" height="60px" viewBox="0 0 275 60" version="1.1" xmlns="http://www.w3.org/2000/svg" xmlns:xlink="http://www.w3.org/1999/xlink">
    <title>worth-it-logo-web</title>
    <defs>
        <path d="M0,30.0003666 C0,46.5688551 13.2077036,60 29.5,60 L29.5,60 C45.7922964,60 59,46.5688551 59,30.0003666 L59,30.0003666 C59,13.4315115 45.7922964,0 29.5,0 L29.5,0 C13.2077036,0 0,13.4315115 0,30.0003666 L0,30.0003666 Z" id="path-1"></path>
        <path d="M0,24.2621013 C0,37.6614772 10.7225112,48.5238362 23.9500556,48.5238362 L23.9500556,48.5238362 C37.177254,48.5238362 47.8994192,37.6614772 47.8994192,24.2621013 L47.8994192,24.2621013 C47.8994192,10.862359 37.177254,0 23.9500556,0 L23.9500556,0 C10.7225112,0 0,10.862359 0,24.2621013 L0,24.2621013 Z" id="path-3"></path>
        <path d="M2.10524299,0.249343123 L1.80002598,2.150265 C1.78635955,2.23897712 1.73414677,2.31673713 1.66020786,2.3616408 L1.66020786,2.3616408 L0.144285048,3.26592032 C-0.074728303,3.39698062 -0.0361819532,3.74233727 0.204207101,3.80366911 L0.204207101,3.80366911 L1.86660604,4.22350013 C1.94755338,4.24430915 2.0151847,4.30381563 2.04847473,4.38559142 L2.04847473,4.38559142 L2.7566763,6.12150145 C2.86355482,6.38471725 3.22974514,6.32922654 3.27635118,6.04228116 L3.27635118,6.04228116 L3.58296988,4.15267646 C3.59733715,4.0632342 3.64954993,3.98547419 3.72348884,3.94166574 L3.72348884,3.94166574 L5.24817219,3.03519579 C5.46753596,2.90450057 5.42934003,2.5580487 5.18895098,2.49744701 L5.18895098,2.49744701 L3.51638982,2.07871119 C3.43439122,2.05826724 3.36711032,1.99766555 3.33452113,1.9155247 L3.33452113,1.9155247 L2.62561871,0.170487904 C2.57831183,0.0543954983 2.48089469,0 2.38242629,0 L2.38242629,0 C2.25767628,0 2.13117417,0.0883470509 2.10524299,0.249343123 L2.10524299,0.249343123 Z" id="path-5"></path>
        <path d="M2.33248887,0.0929450437 L1.57574655,1.03478815 C1.52799266,1.0934711 1.45688468,1.12736871 1.38298815,1.12627524 L1.38298815,1.12627524 L0.249443235,1.10659276 C0.0329821685,1.10221887 -0.0834397258,1.37449318 0.0699304344,1.52721464 L0.0699304344,1.52721464 L0.870592384,2.327271 C0.923226234,2.37939312 0.947626033,2.45374915 0.937866113,2.52919866 L0.937866113,2.52919866 L0.782055973,3.72436258 C0.751381941,3.96492622 1.04208811,4.08994642 1.19650397,3.90223388 L1.19650397,3.90223388 L1.96544619,2.96148424 C2.01250294,2.90389476 2.08291379,2.86999715 2.15541604,2.87109063 L2.15541604,2.87109063 L3.28059531,2.88603473 C3.49635924,2.88895065 3.61173543,2.6184988 3.46010811,2.46577734 L3.46010811,2.46577734 L2.66781181,1.66973037 C2.61726937,1.61833723 2.592521,1.54507467 2.60158378,1.47071863 L2.60158378,1.47071863 L2.747634,0.266442459 C2.76750241,0.107524658 2.64620056,0 2.51792733,0 L2.51792733,0 C2.45204788,0 2.38407701,0.0284302487 2.33248887,0.0929450437 L2.33248887,0.0929450437 Z" id="path-7"></path>
        <path d="M2.40149237,0.0218296595 L1.52047531,0.444824045 C1.46462637,0.470948063 1.39970197,0.472379516 1.34524925,0.448760541 L1.34524925,0.448760541 L0.498788728,0.0837400052 C0.337175852,0.0139566675 0.15915735,0.167837874 0.224081745,0.321361216 L0.224081745,0.321361216 L0.560920676,1.12798503 C0.582562141,1.18023306 0.576628191,1.24035409 0.544515049,1.28973923 L0.544515049,1.28973923 L0.0307047836,2.0752491 C-0.0729648148,2.23378253 0.104704632,2.41164058 0.28307219,2.32790057 L0.28307219,2.32790057 L1.1731647,1.91027414 C1.22866459,1.88450798 1.29254182,1.88271866 1.34664548,1.90562191 L1.34664548,1.90562191 L2.18821922,2.2652745 C2.34913399,2.33434211 2.52610532,2.18117663 2.46257715,2.02765329 L2.46257715,2.02765329 L2.130625,1.22639743 C2.10968165,1.17486512 2.11526654,1.11581768 2.14668157,1.06714827 L2.14668157,1.06714827 L2.65595411,0.271618222 C2.74007658,0.141713855 2.63431265,0 2.49573746,0 L2.49573746,0 C2.46502054,0 2.43325645,0.00679940213 2.40149237,0.0218296595 L2.40149237,0.0218296595 Z" id="path-9"></path>
        <path d="M2.05941253,0.0397512572 L1.3413448,0.593739232 C1.29496074,0.630238114 1.2329973,0.641802116 1.17386648,0.626624363 L1.17386648,0.626624363 L0.238749679,0.383418944 C0.0500267506,0.33463331 -0.0788572008,0.55290385 0.0553379024,0.69347875 L0.0553379024,0.69347875 L0.724897111,1.39635325 C0.766324096,1.43971826 0.786152396,1.4986224 0.778362707,1.55571966 L0.778362707,1.55571966 L0.651603216,2.44542507 C0.627880071,2.6159941 0.831474225,2.73416374 0.968147866,2.62936498 L0.968147866,2.62936498 L1.68196667,2.0826045 C1.72835073,2.04682837 1.78889786,2.03490299 1.84696646,2.049358 L1.84696646,2.049358 L2.7905811,2.28605866 C2.97930403,2.3333988 3.10606352,2.11440551 2.97080619,1.97527611 L2.97080619,1.97527611 L2.29876844,1.28143598 C2.25592515,1.2377096 2.23645093,1.17808271 2.24459469,1.11990133 L2.24459469,1.11990133 L2.3756031,0.224413916 C2.39436917,0.0982940178 2.28743798,0 2.17519564,0 L2.17519564,0 C2.13553904,0 2.09482021,0.0122867522 2.05941253,0.0397512572 L2.05941253,0.0397512572 Z" id="path-11"></path>
        <path d="M3.18977653,0.0262277992 L2.03364244,0.554477839 C1.96095138,0.587724345 1.87683743,0.587724345 1.80691555,0.554108434 L1.80691555,0.554108434 L0.727280152,0.0410040241 C0.521668281,-0.0579966827 0.285595393,0.139635325 0.362786381,0.346133068 L0.362786381,0.346133068 L0.766394869,1.42664451 C0.792702111,1.49720099 0.782663821,1.57588438 0.738703034,1.64016096 L0.738703034,1.64016096 L0.0432918409,2.66341454 C-0.0962057752,2.86954287 0.126021196,3.11113415 0.360017198,3.00659236 L0.360017198,3.00659236 L1.52757417,2.48462222 C1.59957294,2.45248393 1.68195615,2.45248393 1.75153188,2.48462222 L1.75153188,2.48462222 L2.82493661,2.99070792 C3.03054848,3.08749219 3.26454449,2.89059899 3.18908424,2.68557887 L3.18908424,2.68557887 L2.79205256,1.61245554 C2.76643761,1.54337669 2.77682205,1.4654321 2.8190521,1.40152493 L2.8190521,1.40152493 L3.50961722,0.366080972 C3.62419219,0.194307357 3.4885022,0 3.30573609,0 L3.30573609,0 C3.26869826,0 3.2292374,0.00812692369 3.18977653,0.0262277992 L3.18977653,0.0262277992 Z" id="path-13"></path>
        <path d="M0,2.16380218 C8.97995522,5.27955952 4.77887513,11.4915639 4.77887513,11.4915639 L4.77887513,11.4915639 C5.28737612,11.5913241 3.99112951,11.5331613 7.16279675,12.238845 L7.16279675,12.238845 C10.8391728,13.0579093 11.036023,9.60201022 11.036023,9.60201022 L11.036023,9.60201022 C15.0116389,10.4284369 16.4864642,6.50649941 16.4864642,6.50649941 L16.4864642,6.50649941 C21.1429543,6.82602651 20.9426566,2.60370412 20.9426566,2.60370412 L20.9426566,2.60370412 L3.83082242,0.0117798009 C3.83082242,0.0117798009 3.74187784,0 3.58674194,0 L3.58674194,0 C2.95723495,0 1.24143192,0.194734834 0,2.16380218 L0,2.16380218 Z" id="path-15"></path>
        <path d="M0.0041228277,0.321615085 C0.00103118415,0.339749883 0,0.358254779 0,0.376019478 L0,0.376019478 C-0.000342879649,0.559588043 0.138437564,0.720210536 0.331150012,0.74796788 L0.331150012,0.74796788 L15.4850126,3.33495228 C15.6742899,3.33495228 15.8402081,2.74982748 15.8680329,2.56255794 L15.8680329,2.56255794 C15.870781,2.54442314 15.8721557,2.52628835 15.8721557,2.50815355 L15.8721557,2.50815355 C15.8724986,2.32458498 15.7337182,2.16359239 15.5410057,2.13694534 L15.5410057,2.13694534 L0.442792696,0.00370097912 C0.423899319,0.00111029374 0.405349457,0 0.387143112,0 L0.387143112,0 C0.197865824,0 0.0319476197,0.13471564 0.0041228277,0.321615085 L0.0041228277,0.321615085 Z" id="path-17"></path>
        <path d="M0.0781897402,2.69170688 C-0.00406647298,2.82563177 -0.0227296474,2.99037774 0.0284212751,3.13934625 L0.0284212751,3.13934625 C0.0792265832,3.28868167 0.193970544,3.40536144 0.339474182,3.45746373 L0.339474182,3.45746373 C3.52361911,4.58683584 5.47219276,6.1825601 6.13024246,8.20023951 L6.13024246,8.20023951 C6.96662917,10.7642591 5.40030498,13.2057282 5.37749443,13.2405854 L5.37749443,13.2405854 C5.2827961,13.3840501 5.26447854,13.5667751 5.32910842,13.727118 L5.32910842,13.727118 C5.3719646,13.8331572 5.44696291,13.9197497 5.5406244,13.9758881 L5.5406244,13.9758881 C5.77322285,14.2624507 6.48069541,14.460953 8.32523914,14.8810736 L8.32523914,14.8810736 C8.76071321,14.9805082 9.17026621,15.0296752 9.55286128,15.0296752 L9.55286128,15.0296752 C10.3861375,15.0296752 11.0918819,14.794848 11.6604175,14.3281289 L11.6604175,14.3281289 C12.5545218,13.5928262 12.8579712,12.4707925 12.9609643,11.7842898 L12.9609643,11.7842898 C16.5684868,12.2469728 18.4828446,9.43528386 19.041703,8.43726822 L19.041703,8.43726822 C20.5271535,8.56972545 21.7119194,8.21821847 22.5673149,7.39081948 L22.5673149,7.39081948 C24.1101373,5.89783211 23.953783,3.42554191 23.9459705,3.32133733 L23.9459705,3.32133733 C23.9290354,3.07953869 23.7503528,2.88250399 23.5163719,2.84727991 L23.5163719,2.84727991 L4.81172375,0.0183458757 C4.78891321,0.0154105356 4.66552889,0 4.46749187,0 L4.46749187,0 C3.65253325,0 1.57746475,0.259043765 0.0781897402,2.69170688 L0.0781897402,2.69170688 Z M8.54401302,13.8713166 C7.31846457,13.5928262 6.74992898,13.4302817 6.48657085,13.3411208 L6.48657085,13.3411208 C6.97146777,12.406215 7.8517475,10.2318618 7.09001349,7.8835897 L7.09001349,7.8835897 C6.37735672,5.68355229 4.43016552,3.94693169 1.29786275,2.71482268 L1.29786275,2.71482268 C2.76568686,0.832902756 4.59813409,1.03360664 4.67244117,1.04277957 L4.67244117,1.04277957 L22.9395416,3.80566845 C22.9118924,4.47272449 22.7421958,5.80280048 21.8712476,6.64194083 L21.8712476,6.64194083 C21.1820926,7.30569461 20.158383,7.55189626 18.8305327,7.37320744 L18.8305327,7.37320744 L11.1979855,6.09560065 C10.9270239,6.05010288 10.6729974,6.23319472 10.6215008,6.50764902 L10.6215008,6.50764902 C10.5696587,6.78247024 10.7400465,7.04921927 11.0061696,7.1104945 L11.0061696,7.1104945 C11.0307082,7.11636518 13.411991,7.65866926 17.9530178,8.29600498 L17.9530178,8.29600498 C17.2814892,9.35162667 15.5983473,11.3076639 12.61535,10.6772996 L12.61535,10.6772996 C12.6129307,10.6769327 12.610857,10.6765658 12.6084377,10.675832 L12.6084377,10.675832 L10.1749671,10.1793926 C9.90124054,10.1228873 9.63649995,10.3052453 9.5822385,10.5852033 L9.5822385,10.5852033 C9.57532622,10.6196936 9.57221569,10.65345 9.57221569,10.6875733 L9.57221569,10.6875733 C9.5725613,10.9290051 9.73845618,11.1447526 9.97831254,11.1935526 L9.97831254,11.1935526 L11.9669775,11.5993634 C11.8916335,12.1163501 11.670786,12.9940168 11.0296714,13.5209104 L11.0296714,13.5209104 C10.6453482,13.8364594 10.1493916,13.9949678 9.54664023,13.9949678 L9.54664023,13.9949678 C9.23938908,13.9949678 8.90518001,13.9535061 8.54401302,13.8713166 L8.54401302,13.8713166 Z" id="path-19"></path>
        <path d="M17.1127463,0.0117798009 L0.00125686074,2.60370412 C0.00125686074,2.60370412 -0.19904082,6.82602651 4.45744932,6.50649941 L4.45744932,6.50649941 C4.45744932,6.50649941 5.93192984,10.4284369 9.90789051,9.60201022 L9.90789051,9.60201022 C9.90789051,9.60201022 10.104396,13.0579093 13.7811167,12.238845 L13.7811167,12.238845 C16.9524392,11.5331613 15.6565374,11.5913241 16.1646936,11.4915639 L16.1646936,11.4915639 C16.1646936,11.4915639 11.9636135,5.27955952 20.9439135,2.16380218 L20.9439135,2.16380218 C19.7024816,0.194734834 17.9863338,0 17.3568268,0 L17.3568268,0 C17.2016909,0 17.1127463,0.0117798009 17.1127463,0.0117798009 L17.1127463,0.0117798009 Z" id="path-21"></path>
        <path d="M15.4549591,0.00370097912 L0.332035433,2.13694534 C0.13900758,2.16359239 0,2.32458498 0,2.50815355 L0,2.50815355 C0,2.52628835 0.00103223451,2.54442314 0.00412893803,2.56255794 L0.00412893803,2.56255794 C0.0319992697,2.74982748 0.198189026,3.33495228 0.388120175,3.33495228 L0.388120175,3.33495228 L15.5664405,0.74796788 C15.7598124,0.720210536 15.89882,0.559588043 15.8984765,0.376019478 L15.8984765,0.376019478 C15.8984765,0.358254779 15.8970996,0.339749883 15.894347,0.321615085 L15.894347,0.321615085 C15.8661325,0.13471564 15.6999428,0 15.5106998,0 L15.5106998,0 C15.4924637,0 15.4735394,0.00111029374 15.4549591,0.00370097912 L15.4549591,0.00370097912 Z" id="path-23"></path>
        <path d="M19.1556245,0.0187127932 L0.437766839,2.84654607 C0.203871468,2.88140323 0.0253359484,3.07843794 0.00768999587,3.32023658 L0.00768999587,3.32023658 C0.00042401541,3.42480807 -0.156659562,5.89709828 1.38857228,7.38971872 L1.38857228,7.38971872 C2.24526598,8.21748463 3.43100479,8.56935853 4.91810879,8.43653439 L4.91810879,8.43653439 C5.47758928,9.43491694 7.39373213,12.2480735 11.0049244,11.7839229 L11.0049244,11.7839229 C11.1083781,12.4707925 11.4125113,13.5928262 12.3076109,14.327762 L12.3076109,14.327762 C12.8764334,14.794848 13.5829635,15.0293083 14.4168212,15.0293083 L14.4168212,15.0293083 C14.8001882,15.0293083 15.2101971,14.9797744 15.6465019,14.8807067 L15.6465019,14.8807067 C17.492407,14.4605861 18.2013591,14.2620838 18.4338704,13.9751543 L18.4338704,13.9751543 C18.5272902,13.9190159 18.602026,13.8327903 18.6449299,13.7274849 L18.6449299,13.7274849 C18.7096317,13.567142 18.6912937,13.3836832 18.597182,13.2398516 L18.597182,13.2398516 C18.58092,13.215635 17.0042023,10.769029 17.843596,8.19950568 L17.843596,8.19950568 C18.5020323,6.18182627 20.453121,4.586102 23.6404644,3.45636298 L23.6404644,3.45636298 C23.786476,3.40462761 23.9013477,3.28758092 23.9522096,3.13824549 L23.9522096,3.13824549 C24.0030715,2.98927698 23.9847335,2.82489794 23.9023857,2.69133996 L23.9023857,2.69133996 C22.4031718,0.260878352 20.3285613,0 19.5071595,0 L19.5071595,0 C19.3061341,0 19.1801904,0.0154105356 19.1556245,0.0187127932 L19.1556245,0.0187127932 Z M2.08506841,6.64084008 C1.21280475,5.80169972 1.04291921,4.47125682 1.01558528,3.8045677 L1.01558528,3.8045677 L19.2926401,1.04351341 C19.3774099,1.0328728 21.212243,0.832168921 22.681009,2.71372193 L22.681009,2.71372193 C19.5455654,3.94583094 17.5962067,5.68281845 16.8827566,7.88248894 L16.8827566,7.88248894 C16.1201747,10.2314949 17.0010883,12.4058481 17.486871,13.3407539 L17.486871,13.3407539 C17.2228737,13.4299148 16.6537052,13.5920924 15.4274845,13.8709497 L15.4274845,13.8709497 C14.3586934,14.1138491 13.5227596,13.9971693 12.9432112,13.5238457 L12.9432112,13.5238457 C12.293771,12.9940168 12.0740615,12.1163501 11.9996717,11.5993634 L11.9996717,11.5993634 L13.9912424,11.1928188 C14.2317117,11.1440187 14.3977913,10.9282712 14.3977913,10.6868395 L14.3977913,10.6868395 C14.3977913,10.6530831 14.3943313,10.6189598 14.3881033,10.5848364 L14.3881033,10.5848364 C14.3334355,10.3048784 14.0697842,10.1221534 13.7940229,10.1786587 L13.7940229,10.1786587 L11.3585355,10.6754651 C11.3571515,10.675832 11.3557675,10.6761989 11.3543835,10.6761989 L11.3543835,10.6761989 C8.36564352,11.3102324 6.68028205,9.35162667 6.00765986,8.29527115 L6.00765986,8.29527115 C10.5540876,7.65793543 12.9376752,7.11563134 12.9622412,7.10976066 L12.9622412,7.10976066 C13.2286604,7.04848544 13.399584,6.78136949 13.3473381,6.50691519 L13.3473381,6.50691519 C13.2950923,6.23246089 13.0404369,6.04973596 12.7705577,6.09486682 L12.7705577,6.09486682 L5.12916822,7.3724736 C4.84890897,7.4102661 4.58248969,7.4289789 4.32956437,7.4289789 L4.32956437,7.4289789 C3.38221892,7.4289789 2.62967094,7.16516521 2.08506841,6.64084008 L2.08506841,6.64084008 Z" id="path-25"></path>
        <path d="M3.24363263,11.5925791 C0.348886748,13.9116082 0.0112929643,18.5485665 0.0112929643,18.5485665 L0.0112929643,18.5485665 C0.0112929643,18.5485665 -0.526855,27.104959 5.82667382,29.1933685 L5.82667382,29.1933685 C6.1332007,29.2941958 6.44559576,29.3689914 6.76834647,29.3715579 L6.76834647,29.3715579 L16.9686495,29.4361496 C17.5578852,29.4401205 18.1291712,29.2479986 18.5986268,28.8919864 L18.5986268,28.8919864 C20.2054766,27.6732586 23.6473453,24.3818872 23.6287806,18.5485665 L23.6287806,18.5485665 C23.6287806,18.5485665 23.5078894,13.9116082 20.6131435,11.5925791 L20.6131435,11.5925791 C20.6131435,11.5925791 27.0785132,0 11.9289058,0 L11.9289058,0 C-2.95628757,0 3.24363263,11.5925791 3.24363263,11.5925791 L3.24363263,11.5925791 Z" id="path-27"></path>
        <path d="M1.05824668,6.69490349 C1.05824668,6.69490349 3.02782502,5.70428982 5.70391644,5.70428982 L5.70391644,5.70428982 C8.39801701,5.70428982 10.5726227,6.69490349 10.5726227,6.69490349 L10.5726227,6.69490349 C10.5726227,6.69490349 15.0323133,0 5.81543468,0 L5.81543468,0 C-3.34603111,0 1.05824668,6.69490349 1.05824668,6.69490349 L1.05824668,6.69490349 Z" id="path-29"></path>
        <path d="M0.962074611,6.69710649 C0.962074611,6.69710649 3.02095088,5.64994927 5.72793403,5.64994927 L5.72793403,5.64994927 C8.45331551,5.64994927 10.7183918,6.69710649 10.7183918,6.69710649 L10.7183918,6.69710649 C10.7183918,6.69710649 15.3242206,0 6.00182602,0 L6.00182602,0 C-3.26502643,0 0.962074611,6.69710649 0.962074611,6.69710649 L0.962074611,6.69710649 Z" id="path-31"></path>
        <path d="M9.77332845,0.129277057 C9.66657842,0.215708004 9.59299344,0.303616402 9.55326446,0.393740979 L9.55326446,0.393740979 C9.51353549,0.484234919 9.46206055,0.623484778 9.39918513,0.812229281 L9.39918513,0.812229281 L8.09020169,4.94540147 L6.72214298,0.676673052 C6.67446821,0.545179817 6.56322707,0.41220913 6.38876504,0.277022265 L6.38876504,0.277022265 C6.21430301,0.1418354 6.02602221,0.073872604 5.82426809,0.073872604 L5.82426809,0.073872604 C5.62147757,0.073872604 5.45703415,0.103052283 5.32990143,0.159934188 L5.32990143,0.159934188 C5.03659793,0.29105806 4.83415288,0.528927845 4.72360268,0.873543542 L4.72360268,0.873543542 L3.42671067,4.92065415 L2.11772723,0.812229281 C2.03861475,0.541486187 1.94948365,0.340552704 1.85033394,0.209059469 L1.85033394,0.209059469 C1.75083876,0.0783049602 1.60815991,0.0125583427 1.42195192,0.0125583427 L1.42195192,0.0125583427 C1.23539846,0.0125583427 1.02708043,0.0531882749 0.797343304,0.135556228 L0.797343304,0.135556228 C0.265665945,0.323931368 0,0.582116119 0,0.910479844 L0,0.910479844 C0,1.04160372 0.0435291405,1.2425372 0.130932891,1.51291093 L0.130932891,1.51291093 L2.42726779,8.34021699 L2.51052591,8.5248985 C2.565801,8.64789639 2.67496933,8.77089427 2.8376854,8.89352279 L2.8376854,8.89352279 C3.000056,9.01689004 3.20837403,9.0782043 3.46229402,9.0782043 L3.46229402,9.0782043 C3.71586853,9.0782043 3.93385971,8.98401673 4.116613,8.79564159 L4.116613,8.79564159 C4.18812516,8.72176899 4.25134606,8.6397704 4.30696662,8.54964582 L4.30696662,8.54964582 C4.36258719,8.45915188 4.39782507,8.38934227 4.41406213,8.34021699 L4.41406213,8.34021699 C4.42960825,8.29109171 4.87768202,6.92149363 5.75828344,4.23179212 L5.75828344,4.23179212 L7.15017953,8.47577322 C7.2058001,8.60652773 7.31876858,8.73986778 7.48908498,8.87542401 L7.48908498,8.87542401 C7.65974685,9.01061087 7.8621919,9.0782043 8.09642013,9.0782043 L8.09642013,9.0782043 C8.32995743,9.0782043 8.53240248,9.01061087 8.70306435,8.87542401 L8.70306435,8.87542401 C8.87338075,8.73986778 8.97840343,8.63164441 9.01778694,8.54964582 L9.01778694,8.54964582 C9.05786139,8.46727787 9.08549894,8.39783762 9.10139053,8.34021699 L9.10139053,8.34021699 L11.3859795,1.51291093 C11.4806381,1.21778988 11.5286583,1.01722576 11.5286583,0.910479844 L11.5286583,0.910479844 C11.5286583,0.582116119 11.2623014,0.319868375 10.731315,0.122997886 L10.731315,0.122997886 C10.517124,0.0413686582 10.330916,0 10.1720001,0 L10.1720001,0 C10.0130842,0 9.88076943,0.0428461103 9.77332845,0.129277057 L9.77332845,0.129277057 Z" id="path-33"></path>
        <path d="M0,0.495399177 L0,4.60925523 C0,4.88322046 0.233419088,5.10465441 0.52110648,5.10465441 L0.52110648,5.10465441 C0.809120788,5.10465441 1.04188604,4.88322046 1.04188604,4.60925523 L1.04188604,4.60925523 L1.04188604,0.495399177 C1.04188604,0.221798748 0.809120788,0 0.52110648,0 L0.52110648,0 C0.233419088,0 0,0.221798748 0,0.495399177 L0,0.495399177 Z" id="path-35"></path>
        <path d="M0,0.50055654 L0,8.01258791 C0,8.28883325 0.254639005,8.51277613 0.568479796,8.51277613 L0.568479796,8.51277613 C0.882320587,8.51277613 1.13660295,8.28883325 1.13660295,8.01258791 L1.13660295,8.01258791 L1.13660295,0.50055654 C1.13660295,0.224311209 0.882320587,0 0.568479796,0 L0.568479796,0 C0.254639005,0 0,0.224311209 0,0.50055654 L0,0.50055654 Z" id="path-37"></path>
        <path d="M0,0.495399177 L0,4.60925523 C0,4.88322046 0.254282368,5.10465441 0.568123159,5.10465441 L0.568123159,5.10465441 C0.881963949,5.10465441 1.13660295,4.88322046 1.13660295,4.60925523 L1.13660295,4.60925523 L1.13660295,0.495399177 C1.13660295,0.221798748 0.881963949,0 0.568123159,0 L0.568123159,0 C0.254282368,0 0,0.221798748 0,0.495399177 L0,0.495399177 Z" id="path-39"></path>
        <polygon id="path-41" points="0 29.5763052 0 4.63707609e-15 38.4637798 0 38.4637798 29.5763052"></polygon>
    </defs>
    <g id="Page-2" stroke="none" stroke-width="1" fill="none" fill-rule="evenodd">
        <g id="Extra-Large-Copy" transform="translate(-188.000000, -32.000000)">
            <g id="worth-it-logo-web" transform="translate(188.000000, 32.000000)">
                <g id="Group-2">
                    <g id="Group-24">
                        <mask id="mask-2" fill="white">
                            <use xlink:href="#path-1"></use>
                        </mask>
                        <g id="Clip-23"></g>
                        <polygon id="Fill-22" fill="#FFFEFC" mask="url(#mask-2)" points="-0.610851795 -0.613051949 59.6107798 -0.613051949 59.6107798 60.6134205 -0.610851795 60.6134205"></polygon>
                    </g>
                    <g id="Group-27" transform="translate(5.492215, 4.192647)">
                        <mask id="mask-4" fill="white">
                            <use xlink:href="#path-3"></use>
                        </mask>
                        <g id="Clip-26"></g>
                        <polygon id="Fill-25" fill="#FDCA40" mask="url(#mask-4)" points="-0.612441717 -0.612602766 48.5120501 -0.612602766 48.5120501 49.136747 -0.612441717 49.136747"></polygon>
                    </g>
                    <g id="Group-30" transform="translate(26.830456, 6.473957)">
                        <mask id="mask-6" fill="white">
                            <use xlink:href="#path-5"></use>
                        </mask>
                        <g id="Clip-29"></g>
                        <polygon id="Fill-28" fill="#413C58" mask="url(#mask-6)" points="-0.620257422 -0.610531078 6.01348198 -0.610531078 6.01348198 6.90207526 -0.620257422 6.90207526"></polygon>
                    </g>
                    <g id="Group-33" transform="translate(9.374943, 21.768700)">
                        <mask id="mask-8" fill="white">
                            <use xlink:href="#path-7"></use>
                        </mask>
                        <g id="Clip-32"></g>
                        <polygon id="Fill-31" fill="#413C58" mask="url(#mask-8)" points="-0.617125123 -0.609510155 4.14610163 -0.609510155 4.14610163 4.60264758 -0.617125123 4.60264758"></polygon>
                    </g>
                    <g id="Group-36" transform="translate(15.985444, 12.589518)">
                        <mask id="mask-10" fill="white">
                            <use xlink:href="#path-9"></use>
                        </mask>
                        <g id="Clip-35"></g>
                        <polygon id="Fill-34" fill="#413C58" mask="url(#mask-10)" points="-0.617862918 -0.598706158 3.30396122 -0.598706158 3.30396122 2.94780506 -0.617862918 2.94780506"></polygon>
                    </g>
                    <g id="Group-39" transform="translate(40.387074, 12.586804)">
                        <mask id="mask-12" fill="white">
                            <use xlink:href="#path-11"></use>
                        </mask>
                        <g id="Clip-38"></g>
                        <polygon id="Fill-37" fill="#413C58" mask="url(#mask-12)" points="-0.62695923 -0.604581401 3.65403604 -0.604581401 3.65403604 3.2732714 -0.62695923 3.2732714"></polygon>
                    </g>
                    <g id="Group-42" transform="translate(45.670050, 22.415602)">
                        <mask id="mask-14" fill="white">
                            <use xlink:href="#path-13"></use>
                        </mask>
                        <g id="Clip-41"></g>
                        <polygon id="Fill-40" fill="#413C58" mask="url(#mask-14)" points="-0.61261226 -0.617782959 4.16447647 -0.617782959 4.16447647 3.64937294 -0.61261226 3.64937294"></polygon>
                    </g>
                    <g id="Group-45" transform="translate(32.154694, 30.530160)">
                        <mask id="mask-16" fill="white">
                            <use xlink:href="#path-15"></use>
                        </mask>
                        <g id="Clip-44"></g>
                        <polygon id="Fill-43" fill="#4DBEDD" mask="url(#mask-16)" points="-0.610414965 -0.615772645 21.5540367 -0.615772645 21.5540367 12.9803279 -0.610414965 12.9803279"></polygon>
                    </g>
                    <g id="Group-48" transform="translate(39.912156, 30.900871)">
                        <mask id="mask-18" fill="white">
                            <use xlink:href="#path-17"></use>
                        </mask>
                        <g id="Clip-47"></g>
                        <polygon id="Fill-46" fill-opacity="0.220001" fill="#413C58" mask="url(#mask-18)" points="-0.608142872 -0.618991991 16.4804085 -0.618991991 16.4804085 3.95428622 -0.608142872 3.95428622"></polygon>
                    </g>
                    <g id="Group-51" transform="translate(32.154404, 29.696383)">
                        <mask id="mask-20" fill="white">
                            <use xlink:href="#path-19"></use>
                        </mask>
                        <g id="Clip-50"></g>
                        <polygon id="Fill-49" fill="#413C58" mask="url(#mask-20)" points="-0.611870792 -0.613667731 24.5656878 -0.613667731 24.5656878 15.6434286 -0.611870792 15.6434286"></polygon>
                    </g>
                    <g id="Group-54" transform="translate(5.920019, 30.530160)">
                        <mask id="mask-22" fill="white">
                            <use xlink:href="#path-21"></use>
                        </mask>
                        <g id="Clip-53"></g>
                        <polygon id="Fill-52" fill="#4DBEDD" mask="url(#mask-22)" points="-0.610257958 -0.615772645 21.5541937 -0.615772645 21.5541937 12.9803279 -0.610257958 12.9803279"></polygon>
                    </g>
                    <g id="Group-57" transform="translate(3.587233, 30.900871)">
                        <mask id="mask-24" fill="white">
                            <use xlink:href="#path-23"></use>
                        </mask>
                        <g id="Clip-56"></g>
                        <polygon id="Fill-55" fill-opacity="0.220001" fill="#413C58" mask="url(#mask-24)" points="-0.608995507 -0.618991991 16.507524 -0.618991991 16.507524 3.95428622 -0.608995507 3.95428622"></polygon>
                    </g>
                    <g id="Group-60" transform="translate(3.017439, 29.696750)">
                        <mask id="mask-26" fill="white">
                            <use xlink:href="#path-25"></use>
                        </mask>
                        <g id="Clip-59"></g>
                        <polygon id="Fill-58" fill="#413C58" mask="url(#mask-26)" points="-0.612506391 -0.614034649 24.5930792 -0.614034649 24.5930792 15.6430617 -0.612506391 15.6430617"></polygon>
                    </g>
                    <g id="Group-63" transform="translate(18.047323, 16.490367)">
                        <mask id="mask-28" fill="white">
                            <use xlink:href="#path-27"></use>
                        </mask>
                        <g id="Clip-62"></g>
                        <polygon id="Fill-61" fill="#413C58" mask="url(#mask-28)" points="-0.611104075 -0.613400675 24.2399876 -0.613400675 24.2399876 30.0493798 -0.611104075 30.0493798"></polygon>
                    </g>
                    <g id="Group-66" transform="translate(23.853691, 20.339668)">
                        <mask id="mask-30" fill="white">
                            <use xlink:href="#path-29"></use>
                        </mask>
                        <g id="Clip-65"></g>
                        <polygon id="Fill-64" fill="#FDCA40" mask="url(#mask-30)" points="-0.613047469 -0.613884712 12.2644554 -0.613884712 12.2644554 7.30921403 -0.613047469 7.30921403"></polygon>
                    </g>
                    <g id="Group-69" transform="translate(23.858026, 20.040232)">
                        <mask id="mask-32" fill="white">
                            <use xlink:href="#path-31"></use>
                        </mask>
                        <g id="Clip-68"></g>
                        <polygon id="Fill-67" fill-opacity="0.199997" fill="#FDCA40" mask="url(#mask-32)" points="-0.614519191 -0.614164557 12.4706385 -0.614164557 12.4706385 7.31102222 -0.614519191 7.31102222"></polygon>
                    </g>
                    <g id="Group-72" transform="translate(24.206535, 31.730547)">
                        <mask id="mask-34" fill="white">
                            <use xlink:href="#path-33"></use>
                        </mask>
                        <g id="Clip-71"></g>
                        <polygon id="Fill-70" fill="#F7F0F5" mask="url(#mask-34)" points="-0.611587577 -0.617489643 12.1400989 -0.617489643 12.1400989 9.69597243 -0.611587577 9.69597243"></polygon>
                    </g>
                    <g id="Group-75" transform="translate(25.886147, 48.570067)">
                        <mask id="mask-36" fill="white">
                            <use xlink:href="#path-35"></use>
                        </mask>
                        <g id="Clip-74"></g>
                        <polygon id="Fill-73" fill="#413C58" mask="url(#mask-36)" points="-0.578472171 -0.610231196 1.62077364 -0.610231196 1.62077364 5.71492059 -0.578472171 5.71492059"></polygon>
                    </g>
                    <g id="Group-78" transform="translate(29.328737, 48.570316)">
                        <mask id="mask-38" fill="white">
                            <use xlink:href="#path-37"></use>
                        </mask>
                        <g id="Clip-77"></g>
                        <polygon id="Fill-76" fill="#413C58" mask="url(#mask-38)" points="-0.631247766 -0.616008417 1.76792949 -0.616008417 1.76792949 9.12897517 -0.631247766 9.12897517"></polygon>
                    </g>
                    <g id="Group-81" transform="translate(32.668898, 48.570067)">
                        <mask id="mask-40" fill="white">
                            <use xlink:href="#path-39"></use>
                        </mask>
                        <g id="Clip-80"></g>
                        <polygon id="Fill-79" fill="#413C58" mask="url(#mask-40)" points="-0.631347392 -0.610231196 1.76782986 -0.610231196 1.76782986 5.71492059 -0.631347392 5.71492059"></polygon>
                    </g>
                </g>
                <g id="WORTH-IT" transform="translate(75.000000, 14.653133)">
                    <g id="Group-3" transform="translate(0.000000, 0.119754)">
                        <mask id="mask-42" fill="white">
                            <use xlink:href="#path-41"></use>
                        </mask>
                        <g id="Clip-2"></g>
                        <path d="M35.8045612,0.400702811 C37.5769427,1.04156627 38.4637798,1.89713855 38.4637798,2.96611446 C38.4637798,3.31330321 38.3047696,3.96787149 37.9873957,4.92916667 L30.365897,27.1714357 C30.3128936,27.3593876 30.2198145,27.586496 30.0885988,27.852761 C29.955444,28.1209839 29.6051045,28.4746988 29.0362877,28.9152108 C28.4668245,29.3563755 27.792001,29.5763052 27.011817,29.5763052 C26.2309867,29.5763052 25.5568095,29.3563755 24.9879927,28.9152108 C24.4185295,28.4746988 24.0416884,28.0407129 23.8568229,27.6126004 L19.2119167,13.7863956 C16.2747536,22.5496486 14.7796703,27.0115462 14.7266669,27.1714357 C14.6736635,27.3326305 14.5540827,27.559739 14.3692173,27.852761 C14.1837054,28.147741 13.9723383,28.4146586 13.7338231,28.6548193 C13.1255769,29.2695783 12.39775,29.5763052 11.551635,29.5763052 C10.7042272,29.5763052 10.0093658,29.3759538 9.46705068,28.975251 C8.92473558,28.5745482 8.5608221,28.1738454 8.37531026,27.7731426 L8.09801207,27.1714357 L0.436437617,4.92916667 C0.14556539,4.04748996 -0.000517106181,3.3935743 -0.000517106181,2.96611446 C-0.000517106181,1.89713855 0.886319994,1.05592369 2.65999419,0.441164659 C3.42660411,0.173594378 4.12146554,0.0398092369 4.74328572,0.0398092369 C5.3651059,0.0398092369 5.84148997,0.253865462 6.17243793,0.681325301 C6.50338588,1.10878514 6.80072194,1.76335341 7.06573886,2.64437751 L11.4320542,16.0307229 L15.7589401,2.84538153 C16.1293174,1.72289157 16.8034946,0.948895582 17.7827645,0.521435743 C18.2054988,0.334136546 18.7555705,0.240160643 19.430394,0.240160643 C20.1052176,0.240160643 20.734148,0.460742972 21.3158924,0.901907631 C21.8976369,1.34241968 22.2686606,1.77705823 22.4276707,2.20451807 L26.9924255,16.1103414 L31.3580945,2.64437751 C31.5694616,2.03092369 31.7420458,1.57670683 31.8745543,1.28237952 C32.0070627,0.988704819 32.2520418,0.700903614 32.6094914,0.420281124 C32.9662947,0.140311245 33.4090669,0 33.9384543,0 C34.4684881,0 35.0903083,0.133785141 35.8045612,0.400702811" id="Fill-1" fill="#FFFFFF" mask="url(#mask-42)"></path>
                    </g>
                    <path d="M45.7553648,15.1085843 C45.7553648,17.4866968 46.5155108,19.4171185 48.0370958,20.8991968 C49.5593271,22.3825803 51.2593137,23.1239458 53.1383483,23.1239458 C55.0167365,23.1239458 56.7102592,22.4021586 58.2189165,20.9598896 C59.7275738,19.5169679 60.481256,17.5800201 60.481256,15.1490462 C60.481256,12.7174197 59.7204636,10.7674197 58.199525,9.29708835 C56.6772937,7.82871486 54.9773071,7.09322289 53.0982725,7.09322289 C51.2192379,7.09322289 49.5263616,7.83458835 48.0177043,9.31731928 C46.509047,10.8000502 45.7553648,12.7304719 45.7553648,15.1085843 M52.9799845,0 C56.8951247,0 60.2963906,1.42921687 63.1805503,4.2876506 C66.06471,7.14738956 67.5074363,10.6936747 67.5074363,14.9284639 C67.5074363,19.163253 66.1312874,22.7695783 63.3796362,25.748745 C60.6273385,28.7285643 57.240293,30.2171687 53.2178533,30.2171687 C49.1947672,30.2171687 45.7747562,28.7481426 42.9565276,25.8087851 C40.1389453,22.8707329 38.7291845,19.3701305 38.7291845,15.3089357 C38.7291845,13.0913655 39.1260635,11.014759 39.9198215,9.07715863 C40.7142259,7.14021084 41.7723544,5.51716867 43.0954998,4.20737952 C44.4186453,2.89889558 45.9402302,1.86972892 47.6602547,1.12118474 C49.3802791,0.373945783 51.1539533,0 52.9799845,0" id="Fill-4" fill="#FFFFFF"></path>
                    <path d="M77.7746441,14.5471436 L82.8558587,14.5471436 C83.623115,14.5471436 84.3897249,14.2534689 85.158274,13.6654669 C85.9248839,13.0781175 86.3088353,12.1964408 86.3088353,11.0204367 C86.3088353,9.84508534 85.9248839,8.95688253 85.158274,8.35582831 C84.3897249,7.75412149 83.595967,7.45392068 82.7763537,7.45392068 L77.7746441,7.45392068 L77.7746441,14.5471436 Z M93.0176416,24.7670231 C93.4145206,25.7289709 93.6129601,26.424001 93.6129601,26.8514608 C93.6129601,27.8662701 92.792054,28.7211898 91.1515346,29.4155673 C90.3047733,29.7895131 89.6234859,29.9774649 89.1076725,29.9774649 C88.5912127,29.9774649 88.167832,29.8495532 87.8375304,29.5963404 C87.5065824,29.3424749 87.2622498,29.0820833 87.1032396,28.8145131 C86.8375763,28.3074347 85.8065959,25.8888604 84.0070664,21.560748 L82.7763537,21.6410191 L77.7746441,21.6410191 L77.7746441,26.1701355 C77.7746441,26.7848946 77.7552526,27.2456376 77.7151769,27.5523645 C77.6757476,27.8590914 77.5497029,28.2134588 77.3383358,28.6148143 C76.9673121,29.3352962 75.9350389,29.6961898 74.2421625,29.6961898 C72.3896296,29.6961898 71.304353,29.2021637 70.9876255,28.2134588 C70.8286153,27.759242 70.7491103,27.0655171 70.7491103,26.1296737 L70.7491103,3.88675201 C70.7491103,3.27264558 70.7685018,2.81190261 70.8085775,2.50452309 C70.8480068,2.19714357 70.9734051,1.8427761 71.186065,1.44207329 C71.5557959,0.720286145 72.5880691,0.360045181 74.2822383,0.360045181 L82.8558587,0.360045181 C85.1841293,0.360045181 87.4471152,1.21561747 89.6428774,2.92480422 C90.7016523,3.75361948 91.5749153,4.87610944 92.2633129,6.29162149 C92.9510641,7.70843876 93.2955861,9.28449297 93.2955861,11.0204367 C93.2955861,14.0400653 92.3033887,16.5245532 90.3183473,18.4752058 C90.9007381,19.8913705 91.7998565,21.9882078 93.0176416,24.7670231 L93.0176416,24.7670231 Z" id="Fill-6" fill="#FFFFFF"></path>
                    <path d="M97.1074344,0.319713855 L119.178173,0.319713855 C120.024288,0.319713855 120.646754,0.420215863 121.042987,0.620567269 C121.440512,0.820918675 121.704883,1.13547691 121.837391,1.56228414 C121.969253,1.99039659 122.035184,2.55098896 122.035184,3.24536647 C122.035184,3.9410492 121.969253,4.49446285 121.837391,4.90887048 C121.704883,5.32327811 121.479941,5.6097741 121.162568,5.77096888 C120.686183,6.01112952 120.01136,6.13120984 119.138097,6.13120984 L111.556674,6.13120984 L111.556674,26.2896938 C111.556674,26.9044528 111.53599,27.3586697 111.497207,27.6523444 C111.456484,27.9466717 111.338196,28.2873343 111.139757,28.6743323 C110.940671,29.0619829 110.589685,29.3354267 110.087446,29.4959689 C109.585207,29.656511 108.922664,29.7361295 108.103051,29.7361295 C107.282145,29.7361295 106.627359,29.656511 106.138047,29.4959689 C105.648089,29.3354267 105.304214,29.0619829 105.105774,28.6743323 C104.907335,28.2873343 104.7884,27.939493 104.748325,27.6327661 C104.708895,27.3253865 104.688857,26.8646436 104.688857,26.2492319 L104.688857,6.13120984 L97.0673586,6.13120984 C96.2205973,6.13120984 95.5987771,6.03136044 95.2025445,5.83035643 C94.8050191,5.63065763 94.5406485,5.3160994 94.4081401,4.88863956 C94.2756316,4.46183233 94.210347,3.90058735 94.210347,3.20555723 C94.210347,2.51052711 94.2756316,1.95711345 94.4081401,1.54270582 C94.5406485,1.12829819 94.7655897,0.841149598 95.0829637,0.68126004 C95.5593477,0.440446787 96.2341713,0.319713855 97.1074344,0.319713855" id="Fill-8" fill="#FFFFFF"></path>
                    <path d="M142.171816,1.44200803 C142.383183,1.04195783 142.740633,0.760682731 143.243519,0.600793173 C143.745758,0.440251004 144.381152,0.35997992 145.148408,0.35997992 C145.916311,0.35997992 146.524557,0.427198795 146.975086,0.560331325 C147.424322,0.694116466 147.768844,0.855311245 148.006713,1.04195783 C148.245228,1.22860442 148.430094,1.4961747 148.562602,1.84271084 C148.69511,2.29758032 148.761041,2.99195783 148.761041,3.92714859 L148.761041,26.1700703 C148.761041,26.7848293 148.741004,27.2455723 148.701574,27.5522992 C148.662145,27.8590261 148.5361,28.2133936 148.324733,28.614749 C147.953709,29.3352309 146.921436,29.6961245 145.22856,29.6961245 C143.375381,29.6961245 142.29075,29.2020984 141.973376,28.2133936 C141.814366,27.7591767 141.734861,27.0654518 141.734861,26.1296084 L141.734861,17.9935141 L131.216275,17.9935141 L131.216275,26.1700703 C131.216275,26.7848293 131.196884,27.2455723 131.156808,27.5522992 C131.116732,27.8590261 130.990688,28.2133936 130.77932,28.614749 C130.408943,29.3352309 129.37667,29.6961245 127.683794,29.6961245 C125.831261,29.6961245 124.745984,29.2020984 124.42861,28.2133936 C124.2696,27.7591767 124.190095,27.0654518 124.190095,26.1296084 L124.190095,3.88668675 C124.190095,3.27258032 124.210133,2.81183735 124.249562,2.50445783 C124.289638,2.19707831 124.41439,1.84271084 124.62705,1.44200803 C124.997427,0.720873494 126.029054,0.35997992 127.722577,0.35997992 C129.575109,0.35997992 130.673314,0.855311245 131.017189,1.84271084 C131.149698,2.29758032 131.216275,2.99195783 131.216275,3.92714859 L131.216275,12.1023996 L141.734861,12.1023996 L141.734861,3.88668675 C141.734861,3.27258032 141.754253,2.81183735 141.794975,2.50445783 C141.835051,2.19707831 141.959802,1.84271084 142.171816,1.44200803" id="Fill-10" fill="#FFFFFF"></path>
                    <path d="M162.006393,3.88675201 C162.006393,3.27264558 162.025785,2.81190261 162.066507,2.50452309 C162.105936,2.19714357 162.231334,1.8427761 162.443348,1.44207329 C162.813079,0.720286145 163.845998,0.360045181 165.539521,0.360045181 C167.391408,0.360045181 168.489612,0.854723896 168.834134,1.8427761 C168.966642,2.29699297 169.032573,2.99202309 169.032573,3.92721386 L169.032573,26.2099448 C169.032573,26.8508082 169.012535,27.3187299 168.97246,27.611752 C168.933677,27.9067319 168.806986,28.2539207 168.595619,28.6539709 C168.225241,29.375758 167.192322,29.735999 165.499445,29.735999 C163.646912,29.735999 162.561636,29.2289207 162.244908,28.2134588 C162.085898,27.7866516 162.006393,27.1053263 162.006393,26.1701355 L162.006393,3.88675201 Z" id="Fill-12" fill="#FFFFFF"></path>
                    <path d="M174.418364,0.319713855 L196.489102,0.319713855 C197.335217,0.319713855 197.957683,0.420215863 198.354562,0.620567269 C198.751441,0.820918675 199.015812,1.13547691 199.14832,1.56228414 C199.280182,1.99039659 199.34676,2.55098896 199.34676,3.24536647 C199.34676,3.9410492 199.280182,4.49446285 199.14832,4.90887048 C199.015812,5.32327811 198.790871,5.6097741 198.473497,5.77096888 C197.997759,6.01112952 197.322289,6.13120984 196.449026,6.13120984 L188.867603,6.13120984 L188.867603,26.2896938 C188.867603,26.9044528 188.847565,27.3586697 188.808136,27.6523444 C188.76806,27.9466717 188.649126,28.2873343 188.450686,28.6743323 C188.252247,29.0619829 187.901261,29.3354267 187.398375,29.4959689 C186.896136,29.656511 186.233593,29.7361295 185.41398,29.7361295 C184.593074,29.7361295 183.938935,29.656511 183.449623,29.4959689 C182.959665,29.3354267 182.615789,29.0619829 182.416703,28.6743323 C182.218264,28.2873343 182.099976,27.939493 182.059254,27.6327661 C182.020471,27.3253865 181.999787,26.8646436 181.999787,26.2492319 L181.999787,6.13120984 L174.378934,6.13120984 C173.531526,6.13120984 172.910353,6.03136044 172.513474,5.83035643 C172.115948,5.63065763 171.851578,5.3160994 171.719069,4.88863956 C171.586561,4.46183233 171.521276,3.90058735 171.521276,3.20555723 C171.521276,2.51052711 171.586561,1.95711345 171.719069,1.54270582 C171.851578,1.12829819 172.076519,0.841149598 172.394539,0.68126004 C172.870277,0.440446787 173.5451,0.319713855 174.418364,0.319713855" id="Fill-14" fill="#FFFFFF"></path>
                </g>
            </g>
        </g>
    </g>
</svg>