<?xml version="1.0" encoding="UTF-8"?>
<svg width="291px" height="80px" viewBox="0 0 291 80" version="1.1" xmlns="http://www.w3.org/2000/svg" xmlns:xlink="http://www.w3.org/1999/xlink">
    <title>worth-it-logo-web</title>
    <defs>
        <path d="M0,40.0004889 C0,62.0918068 17.6848912,80 39.5,80 L39.5,80 C61.3151088,80 79,62.0918068 79,40.0004889 L79,40.0004889 C79,17.908682 61.3151088,0 39.5,0 L39.5,0 C17.6848912,0 0,17.908682 0,40.0004889 L0,40.0004889 Z" id="path-1"></path>
        <path d="M0,32.3494683 C0,50.2153029 14.3572607,64.6984483 32.0687185,64.6984483 L32.0687185,64.6984483 C49.779713,64.6984483 64.1365104,50.2153029 64.1365104,32.3494683 L64.1365104,32.3494683 C64.1365104,14.4831454 49.779713,0 32.0687185,0 L32.0687185,0 C14.3572607,0 0,14.4831454 0,32.3494683 L0,32.3494683 Z" id="path-3"></path>
        <path d="M2.81888468,0.332457497 L2.41020428,2.86702 C2.39190516,2.98530283 2.32199313,3.08898284 2.22299019,3.14885439 L2.22299019,3.14885439 L0.193195234,4.35456043 C-0.100059931,4.52930749 -0.0484470221,4.98978303 0.273429847,5.07155881 L0.273429847,5.07155881 L2.49935385,5.63133351 C2.60774096,5.65907887 2.69829816,5.73842085 2.74287294,5.84745522 L2.74287294,5.84745522 L3.69114285,8.16200193 C3.83425137,8.51295633 4.324574,8.43896872 4.3869787,8.05637488 L4.3869787,8.05637488 L4.79753593,5.53690195 C4.81677347,5.4176456 4.8866855,5.31396559 4.98568845,5.25555432 L4.98568845,5.25555432 L7.02721361,4.04692772 C7.32093798,3.87266742 7.26979428,3.4107316 6.94791741,3.32992934 L6.94791741,3.32992934 L4.70838636,2.77161492 C4.59859163,2.74435633 4.50850364,2.66355406 4.46486727,2.55403293 L4.46486727,2.55403293 L3.51565896,0.227317205 C3.45231584,0.0725273311 3.32187594,0 3.19002842,0 L3.19002842,0 C3.02299028,0 2.85360609,0.117796068 2.81888468,0.332457497 L2.81888468,0.332457497 Z" id="path-5"></path>
        <path d="M3.12316306,0.123926725 L2.10989793,1.37971754 C2.04595628,1.45796147 1.95074389,1.50315828 1.85179769,1.50170031 L1.85179769,1.50170031 L0.334000264,1.47545701 C0.0441625646,1.46962516 -0.111724379,1.83265757 0.0936356663,2.03628619 L0.0936356663,2.03628619 L1.16570845,3.103028 C1.23618428,3.17252416 1.2688552,3.27166554 1.25578683,3.37226488 L1.25578683,3.37226488 L1.04715969,4.96581677 C1.00608768,5.28656829 1.39533831,5.45326189 1.60209854,5.2029785 L1.60209854,5.2029785 L2.63169913,3.94864565 C2.69470733,3.87185968 2.78898626,3.82666287 2.88606555,3.82812083 L2.88606555,3.82812083 L4.39266152,3.84804631 C4.68156576,3.85193421 4.83605252,3.49133173 4.63302611,3.28770312 L4.63302611,3.28770312 L3.57215479,2.22630717 C3.50447932,2.15778298 3.47134168,2.06009956 3.48347659,1.96095818 L3.48347659,1.96095818 L3.67903536,0.355256612 C3.70563882,0.143366211 3.54321769,0 3.37146202,0 L3.37146202,0 C3.28325055,0 3.19223871,0.0379069982 3.12316306,0.123926725 L3.12316306,0.123926725 Z" id="path-7"></path>
        <path d="M3.21555758,0.0291062126 L2.03589067,0.593098726 C1.96110988,0.627930751 1.87417722,0.629839355 1.80126595,0.598347387 L1.80126595,0.598347387 L0.667869653,0.11165334 C0.451472752,0.01860889 0.213108994,0.223783832 0.300041659,0.428481622 L0.300041659,0.428481622 L0.751063278,1.50398004 C0.780040833,1.57364409 0.772095374,1.65380546 0.729096422,1.7196523 L0.729096422,1.7196523 L0.0411131849,2.7669988 C-0.0976986504,2.97837671 0.140197727,3.21552077 0.379028865,3.10386743 L0.379028865,3.10386743 L1.57084765,2.54703218 C1.64516106,2.51267731 1.73069158,2.51029155 1.80313547,2.54082922 L1.80313547,2.54082922 L2.92998845,3.020366 C3.14545059,3.11245615 3.38241221,2.90823551 3.29734906,2.70353772 L3.29734906,2.70353772 L2.85287076,1.63519657 C2.82482797,1.56648682 2.83230605,1.4877569 2.87437024,1.42286436 L2.87437024,1.42286436 L3.55627754,0.362157629 C3.6689161,0.188951807 3.52729998,0 3.34175016,0 L3.34175016,0 C3.30062072,0 3.25808915,0.00906586951 3.21555758,0.0291062126 L3.21555758,0.0291062126 Z" id="path-9"></path>
        <path d="M2.75751847,0.0530016762 L1.79603795,0.79165231 C1.73393049,0.840317485 1.65096249,0.855736155 1.57178732,0.835499151 L1.57178732,0.835499151 L0.319681774,0.511225259 C0.0669849711,0.446177747 -0.105588455,0.737205133 0.0740965134,0.924638334 L0.0740965134,0.924638334 L0.970624946,1.86180434 C1.02609498,1.91962435 1.05264473,1.99816319 1.04221447,2.07429288 L1.04221447,2.07429288 L0.872485662,3.26056676 C0.840720773,3.48799213 1.11332989,3.64555166 1.29633358,3.50581997 L1.29633358,3.50581997 L2.25212487,2.776806 C2.31423234,2.72910449 2.39530392,2.71320399 2.47305678,2.73247733 L2.47305678,2.73247733 L3.7365408,3.04807822 C3.9892376,3.1111984 4.15896641,2.81920734 3.97785913,2.63370148 L3.97785913,2.63370148 L3.07801198,1.70858131 C3.02064554,1.65027947 2.99456988,1.57077695 3.00547425,1.49320177 L3.00547425,1.49320177 L3.18089229,0.299218554 C3.20601974,0.13105869 3.06284069,0 2.9125501,0 L2.9125501,0 C2.85945058,0 2.80492876,0.0163823363 2.75751847,0.0530016762 L2.75751847,0.0530016762 Z" id="path-11"></path>
        <path d="M4.27105671,0.0349703989 L2.72301276,0.739303786 C2.62568066,0.78363246 2.51305351,0.78363246 2.41942929,0.738811245 L2.41942929,0.738811245 L0.973815797,0.0546720321 C0.698504987,-0.0773289103 0.38240739,0.186180434 0.485764815,0.461510758 L0.485764815,0.461510758 L1.02618974,1.90219268 C1.06141469,1.99626798 1.04797359,2.10117918 0.989110842,2.18688128 L0.989110842,2.18688128 L0.0579670412,3.55121938 C-0.128817902,3.82605717 0.168740246,4.14817887 0.482056926,4.00878981 L0.482056926,4.00878981 L2.04539592,3.31282962 C2.14180105,3.26997857 2.25211077,3.26997857 2.3452715,3.31282962 L2.3452715,3.31282962 L3.78254225,3.98761056 C4.05785306,4.11665626 4.37116974,3.85413199 4.27012974,3.58077183 L4.27012974,3.58077183 L3.73851106,2.14994072 C3.70421308,2.05783559 3.71811766,1.95390947 3.77466298,1.86869991 L3.77466298,1.86869991 L4.69931797,0.488107962 C4.85273191,0.259076476 4.67104531,0 4.42632459,0 L4.42632459,0 C4.37673157,0 4.32389414,0.0108358983 4.27105671,0.0349703989 L4.27105671,0.0349703989 Z" id="path-13"></path>
        <path d="M0,2.88506957 C12.0240078,7.0394127 6.39883279,15.3220852 6.39883279,15.3220852 L6.39883279,15.3220852 C7.07970701,15.4550988 5.34405477,15.3775484 9.59086344,16.31846 L9.59086344,16.31846 C14.5134686,17.4105457 14.7770477,12.8026803 14.7770477,12.8026803 L14.7770477,12.8026803 C20.1003301,13.9045825 22.0750961,8.67533255 22.0750961,8.67533255 L22.0750961,8.67533255 C28.3100575,9.10136868 28.0418623,3.47160549 28.0418623,3.47160549 L28.0418623,3.47160549 L5.12940629,0.0157064012 C5.12940629,0.0157064012 5.01031101,0 4.80258667,0 L4.80258667,0 C3.95968747,0 1.6622563,0.259646445 0,2.88506957 L0,2.88506957 Z" id="path-15"></path>
        <path d="M0.00552039641,0.428820114 C0.0013807381,0.452999844 0,0.477673038 0,0.501359304 L0,0.501359304 C-0.000459110039,0.74611739 0.185365552,0.960280715 0.443404254,0.997290506 L0.443404254,0.997290506 L20.7341695,4.44660304 C20.9876085,4.44660304 21.2097702,3.66643665 21.2470271,3.41674392 L21.2470271,3.41674392 C21.2507068,3.39256419 21.2525475,3.36838446 21.2525475,3.34420473 L21.2525475,3.34420473 C21.2530066,3.09944664 21.067182,2.88478986 20.8091433,2.84926046 L20.8091433,2.84926046 L0.592891915,0.00493463882 C0.567594003,0.00148039165 0.542756053,0 0.518378065,0 L0.518378065,0 C0.264938984,0 0.0427773212,0.179620853 0.00552039641,0.428820114 L0.00552039641,0.428820114 Z" id="path-17"></path>
        <path d="M0.104694737,3.58894251 C-0.00544493839,3.76750903 -0.0304346126,3.98717031 0.0380556056,4.18579499 L0.0380556056,4.18579499 C0.106083052,4.3849089 0.259723271,4.54048192 0.454550176,4.60995164 L0.454550176,4.60995164 C4.71806626,6.11578112 7.32717336,8.24341347 8.20829076,10.9336527 L8.20829076,10.9336527 C9.32819838,14.3523455 7.23091683,17.6076376 7.2003739,17.6541139 L7.2003739,17.6541139 C7.07357444,17.8454002 7.04904754,18.0890334 7.13558585,18.302824 L7.13558585,18.302824 C7.19296955,18.4442096 7.29339102,18.5596663 7.41880216,18.6345175 L7.41880216,18.6345175 C7.73024755,19.0166009 8.67754131,19.2812707 11.1473541,19.8414315 L11.1473541,19.8414315 C11.7304465,19.974011 12.278831,20.0395669 12.7911193,20.0395669 L12.7911193,20.0395669 C13.906862,20.0395669 14.8518419,19.726464 15.6131014,19.1041719 L15.6131014,19.1041719 C16.8102919,18.1237683 17.2166055,16.6277233 17.3545115,15.7123864 L17.3545115,15.7123864 C22.184923,16.329297 24.7482157,12.5803785 25.4965176,11.249691 L25.4965176,11.249691 C27.4855106,11.4263006 29.0718921,10.9576246 30.2172522,9.85442597 L30.2172522,9.85442597 C32.2830652,7.86377615 32.0737095,4.56738921 32.0632487,4.42844978 L32.0632487,4.42844978 C32.0405728,4.10605159 31.8013198,3.84333865 31.4880234,3.79637321 L31.4880234,3.79637321 L6.44281655,0.0244611676 C6.41227362,0.0205473808 6.2470641,0 5.98189589,0 L5.98189589,0 C4.89068012,0 2.11219857,0.345391686 0.104694737,3.58894251 L0.104694737,3.58894251 Z M11.4402886,18.4950888 C9.79930002,18.1237683 9.0380405,17.9070423 8.68540843,17.7881611 L8.68540843,17.7881611 C9.33467718,16.54162 10.5133568,13.6424824 9.49340789,10.5114529 L9.49340789,10.5114529 C8.53917256,7.57806971 5.93191655,5.26257559 1.73781622,3.61976358 L1.73781622,3.61976358 C3.70320782,1.11053701 6.15682361,1.37814218 6.25631954,1.39037276 L6.25631954,1.39037276 L30.7156573,5.0742246 C30.6786356,5.96363265 30.4514147,7.7370673 29.2852299,8.85592111 L29.2852299,8.85592111 C28.362463,9.74092615 26.9917331,10.069195 25.2137641,9.83094325 L25.2137641,9.83094325 L14.9939129,8.12746754 C14.6310998,8.06680384 14.2909626,8.31092629 14.2220096,8.67686536 L14.2220096,8.67686536 C14.1525938,9.04329365 14.3807403,9.39895903 14.7370745,9.48065933 L14.7370745,9.48065933 C14.7699313,9.4884869 17.9584286,10.211559 24.0387866,11.06134 L24.0387866,11.06134 C23.1396211,12.4688356 20.8859227,15.0768852 16.8917398,14.2363995 L16.8917398,14.2363995 C16.8885004,14.2359103 16.8857237,14.2354211 16.8824843,14.2344426 L16.8824843,14.2344426 L13.6241085,13.5725234 C13.2575933,13.497183 12.9031101,13.740327 12.8304549,14.1136045 L12.8304549,14.1136045 C12.8211995,14.1595915 12.8170346,14.2046 12.8170346,14.2500978 L12.8170346,14.2500978 C12.8174973,14.5720067 13.0396278,14.8596701 13.3607914,14.9247368 L13.3607914,14.9247368 L16.02358,15.4658178 C15.9226957,16.1551335 15.6269846,17.3253558 14.768543,18.0278805 L14.768543,18.0278805 C14.2539408,18.4486126 13.5898634,18.6599571 12.7827895,18.6599571 L12.7827895,18.6599571 C12.3713854,18.6599571 11.9238851,18.6046748 11.4402886,18.4950888 L11.4402886,18.4950888 Z" id="path-19"></path>
        <path d="M22.9136773,0.0157064012 L0.00168291522,3.47160549 C0.00168291522,3.47160549 -0.266512284,9.10136868 5.96844909,8.67533255 L5.96844909,8.67533255 C5.96844909,8.67533255 7.94275351,13.9045825 13.2664975,12.8026803 L13.2664975,12.8026803 C13.2664975,12.8026803 13.529615,17.4105457 18.4526817,16.31846 L18.4526817,16.31846 C22.6990288,15.3775484 20.9638382,15.4550988 21.6442508,15.3220852 L21.6442508,15.3220852 C21.6442508,15.3220852 16.0190757,7.0394127 28.0435452,2.88506957 L28.0435452,2.88506957 C26.3812889,0.259646445 24.0833961,0 23.2404969,0 L23.2404969,0 C23.0327726,0 22.9136773,0.0157064012 22.9136773,0.0157064012 L22.9136773,0.0157064012 Z" id="path-21"></path>
        <path d="M20.6939283,0.00493463882 L0.444589818,2.84926046 C0.186128794,2.88478986 0,3.09944664 0,3.34420473 L0,3.34420473 C0,3.36838446 0.00138214451,3.39256419 0.00552857804,3.41674392 L0.00552857804,3.41674392 C0.0428464798,3.66643665 0.265371746,4.44660304 0.519686336,4.44660304 L0.519686336,4.44660304 L20.8431999,0.997290506 C21.1021217,0.960280715 21.2882505,0.74611739 21.2877906,0.501359304 L21.2877906,0.501359304 C21.2877906,0.477673038 21.2859469,0.452999844 21.2822612,0.428820114 L21.2822612,0.428820114 C21.2444826,0.179620853 21.0219573,0 20.7685641,0 L20.7685641,0 C20.7441462,0 20.7188069,0.00148039165 20.6939283,0.00493463882 L20.6939283,0.00493463882 Z" id="path-23"></path>
        <path d="M25.6490565,0.0249503909 L0.586162378,3.79539476 C0.27298044,3.84187098 0.0339244055,4.10458392 0.0102967741,4.42698211 L0.0102967741,4.42698211 C0.000567749448,4.56641076 -0.209764498,7.8627977 1.85927475,9.8529583 L1.85927475,9.8529583 C3.00637309,10.9566462 4.59405726,11.4258114 6.58526431,11.2487125 L6.58526431,11.2487125 C7.33439921,12.5798893 9.900082,16.3307647 14.7354073,15.7118972 L14.7354073,15.7118972 C14.87393,16.6277233 15.2811592,18.1237683 16.4796824,19.1036827 L16.4796824,19.1036827 C17.2413261,19.726464 18.1873579,20.0390777 19.3038793,20.0390777 L19.3038793,20.0390777 C19.8172012,20.0390777 20.3661961,19.9730325 20.9504009,19.8409422 L20.9504009,19.8409422 C23.4220364,19.2807815 24.3713113,19.0161117 24.6826401,18.633539 L24.6826401,18.633539 C24.8077275,18.5586878 24.9077975,18.4437203 24.9652451,18.3033132 L24.9652451,18.3033132 C25.0518797,18.0895226 25.0273255,17.844911 24.9013115,17.6531354 L24.9013115,17.6531354 C24.879537,17.6208467 22.7683386,14.3587054 23.8922726,10.9326742 L23.8922726,10.9326742 C24.7739076,8.24243503 27.3863824,6.11480267 31.6541812,4.60848397 L31.6541812,4.60848397 C31.8496883,4.53950348 32.0034995,4.38344123 32.0716027,4.18432732 L32.0716027,4.18432732 C32.1397058,3.98570264 32.1151516,3.76653058 32.0048894,3.58845328 L32.0048894,3.58845328 C29.9974673,0.347837803 27.2195991,0 26.119756,0 L26.119756,0 C25.8505863,0 25.6819499,0.0205473808 25.6490565,0.0249503909 L25.6490565,0.0249503909 Z M2.79187126,8.85445344 C1.62392501,7.73559963 1.39645115,5.96167576 1.35985148,5.07275693 L1.35985148,5.07275693 L25.8325181,1.39135121 C25.9460234,1.37716373 28.4028338,1.10955856 30.3694866,3.61829591 L30.3694866,3.61829591 C26.1711809,5.26110792 23.5610225,7.57709127 22.6057249,10.5099853 L22.6057249,10.5099853 C21.5846406,13.6419932 22.7641691,16.5411307 23.4146239,17.7876718 L23.4146239,17.7876718 C23.061136,17.9065531 22.299029,18.1227898 20.6571403,18.4945996 L20.6571403,18.4945996 C19.2260471,18.8184654 18.106746,18.6628924 17.3307404,18.0317943 L17.3307404,18.0317943 C16.4611509,17.3253558 16.1669638,16.1551335 16.0673571,15.4658178 L16.0673571,15.4658178 L18.7340364,14.9237583 C19.0560208,14.8586916 19.2783985,14.5710283 19.2783985,14.2491193 L19.2783985,14.2491193 C19.2783985,14.2041108 19.2737656,14.158613 19.2654265,14.1131152 L19.2654265,14.1131152 C19.1922271,13.7398378 18.8392025,13.4962046 18.4699629,13.571545 L18.4699629,13.571545 L15.2088865,14.2339534 C15.2070333,14.2344426 15.2051802,14.2349319 15.203327,14.2349319 L15.203327,14.2349319 C11.2014549,15.0803098 8.94478444,12.4688356 8.04415472,11.0603615 L8.04415472,11.0603615 C14.1317445,10.2105806 17.3233278,9.48750845 17.3562212,9.47968088 L17.3562212,9.47968088 C17.7129521,9.39798058 17.9418158,9.04182598 17.8718595,8.67588691 L17.8718595,8.67588691 C17.8019032,8.30994785 17.460924,8.06631462 17.0995603,8.12648909 L17.0995603,8.12648909 L6.86786931,9.8299648 C6.49260693,9.88035481 6.13587603,9.9053052 5.79721331,9.9053052 L5.79721331,9.9053052 C4.52873381,9.9053052 3.52108482,9.55355361 2.79187126,8.85445344 L2.79187126,8.85445344 Z" id="path-25"></path>
        <path d="M4.34316912,15.4567721 C0.467153443,18.5488109 0.0151210879,24.731422 0.0151210879,24.731422 L0.0151210879,24.731422 C0.0151210879,24.731422 -0.705449916,36.1399454 7.80181749,38.9244913 L7.80181749,38.9244913 C8.21225178,39.0589278 8.63054348,39.1586552 9.0627012,39.1620772 L9.0627012,39.1620772 L22.720734,39.2481995 C23.5097107,39.253494 24.274653,38.9973314 24.9032461,38.5226485 L24.9032461,38.5226485 C27.0547907,36.8976782 31.6633945,32.5091829 31.6385367,24.731422 L31.6385367,24.731422 C31.6385367,24.731422 31.4766654,18.5488109 27.6006498,15.4567721 L27.6006498,15.4567721 C27.6006498,15.4567721 36.2576702,0 15.9726027,0 L15.9726027,0 C-3.95841895,0 4.34316912,15.4567721 4.34316912,15.4567721 L4.34316912,15.4567721 Z" id="path-27"></path>
        <path d="M1.41697437,8.92653799 C1.41697437,8.92653799 4.05420639,7.60571976 7.63744743,7.60571976 L7.63744743,7.60571976 C11.2448024,7.60571976 14.1565626,8.92653799 14.1565626,8.92653799 L14.1565626,8.92653799 C14.1565626,8.92653799 20.1280127,0 7.78676846,0 L7.78676846,0 C-4.48027895,0 1.41697437,8.92653799 1.41697437,8.92653799 L1.41697437,8.92653799 Z" id="path-29"></path>
        <path d="M1.2882016,8.92947531 C1.2882016,8.92947531 4.04500202,7.53326569 7.66960659,7.53326569 L7.66960659,7.53326569 C11.3188462,7.53326569 14.351745,8.92947531 14.351745,8.92947531 L14.351745,8.92947531 C14.351745,8.92947531 20.5188716,0 8.03634331,0 L8.03634331,0 C-4.37181505,0 1.2882016,8.92947531 1.2882016,8.92947531 L1.2882016,8.92947531 Z" id="path-31"></path>
        <path d="M13.0863211,0.172369409 C12.9433847,0.287610672 12.8448556,0.40482187 12.7916592,0.524987972 L12.7916592,0.524987972 C12.7384628,0.645646559 12.6695387,0.831313037 12.5853496,1.08297237 L12.5853496,1.08297237 L10.8326429,6.59386863 L9.00083552,0.902230737 C8.93699981,0.726906423 8.78804981,0.549612174 8.55444811,0.36936302 L8.55444811,0.36936302 C8.32084641,0.189113866 8.0687416,0.0984968053 7.79859626,0.0984968053 L7.79859626,0.0984968053 C7.52706319,0.0984968053 7.30687624,0.137403043 7.13664767,0.213245583 L7.13664767,0.213245583 C6.74391927,0.388077413 6.47284877,0.705237126 6.32482393,1.16472472 L6.32482393,1.16472472 L4.58830751,6.5608722 L2.83560087,1.08297237 C2.72967059,0.721981583 2.61032557,0.454070272 2.47756579,0.278745959 L2.47756579,0.278745959 C2.34434343,0.104406614 2.15329887,0.0167444569 1.90396952,0.0167444569 L1.90396952,0.0167444569 C1.6541776,0.0167444569 1.37524329,0.0709176998 1.06762917,0.180741638 L1.06762917,0.180741638 C0.355722197,0.431908491 0,0.776154826 0,1.21397313 L0,1.21397313 C0,1.38880495 0.0582847814,1.65671627 0.175316922,2.01721457 L0.175316922,2.01721457 L3.25007043,11.1202893 L3.36155164,11.3665313 C3.43556406,11.5305285 3.58173859,11.6945257 3.79961265,11.8580304 L3.79961265,11.8580304 C4.01702414,12.0225201 4.29595845,12.1042724 4.63595301,12.1042724 L4.63595301,12.1042724 C4.97548499,12.1042724 5.26737147,11.978689 5.51207504,11.7275221 L5.51207504,11.7275221 C5.60782861,11.6290253 5.69248031,11.5196939 5.76695531,11.3995278 L5.76695531,11.3995278 C5.84143031,11.2788692 5.88861323,11.1857897 5.91035438,11.1202893 L5.91035438,11.1202893 C5.93117037,11.0547889 6.53113356,9.22865817 7.71024393,5.64238949 L7.71024393,5.64238949 L9.5739692,11.301031 C9.6484442,11.4753703 9.79970709,11.653157 10.0277579,11.8338987 L10.0277579,11.8338987 C10.2562712,12.0141478 10.5273417,12.1042724 10.8409693,12.1042724 L10.8409693,12.1042724 C11.1536718,12.1042724 11.4247423,12.0141478 11.6532557,11.8338987 L11.6532557,11.8338987 C11.8813064,11.653157 12.02193,11.5088592 12.0746639,11.3995278 L12.0746639,11.3995278 C12.1283229,11.2897038 12.1653291,11.1971168 12.1866077,11.1202893 L12.1866077,11.1202893 L15.2456335,2.01721457 C15.3723798,1.62371984 15.4366781,1.35630101 15.4366781,1.21397313 L15.4366781,1.21397313 C15.4366781,0.776154826 15.0800307,0.426491167 14.3690489,0.163997181 L14.3690489,0.163997181 C14.0822508,0.055158211 13.8329214,0 13.6201357,0 L13.6201357,0 C13.40735,0 13.2301828,0.0571281471 13.0863211,0.172369409 L13.0863211,0.172369409 Z" id="path-33"></path>
        <path d="M0,0.660532236 L0,6.14567364 C0,6.51096061 0.312544203,6.80620588 0.697752744,6.80620588 L0.697752744,6.80620588 C1.08339902,6.80620588 1.39506775,6.51096061 1.39506775,6.14567364 L1.39506775,6.14567364 L1.39506775,0.660532236 C1.39506775,0.295731664 1.08339902,0 0.697752744,0 L0.697752744,0 C0.312544203,0 0,0.295731664 0,0.660532236 L0,0.660532236 Z" id="path-35"></path>
        <path d="M0,0.66740872 L0,10.6834506 C0,11.0517777 0.340957312,11.3503682 0.761184811,11.3503682 L0.761184811,11.3503682 C1.18141231,11.3503682 1.52189209,11.0517777 1.52189209,10.6834506 L1.52189209,10.6834506 L1.52189209,0.66740872 C1.52189209,0.299081612 1.18141231,0 0.761184811,0 L0.761184811,0 C0.340957312,0 0,0.299081612 0,0.66740872 L0,0.66740872 Z" id="path-37"></path>
        <path d="M0,0.660532236 L0,6.14567364 C0,6.51096061 0.340479781,6.80620588 0.76070728,6.80620588 L0.76070728,6.80620588 C1.18093478,6.80620588 1.52189209,6.51096061 1.52189209,6.14567364 L1.52189209,6.14567364 L1.52189209,0.660532236 C1.52189209,0.295731664 1.18093478,0 0.76070728,0 L0.76070728,0 C0.340479781,0 0,0.295731664 0,0.660532236 L0,0.660532236 Z" id="path-39"></path>
        <polygon id="path-41" points="0 29.5763052 0 4.63707609e-15 38.4637798 0 38.4637798 29.5763052"></polygon>
    </defs>
    <g id="Page-2" stroke="none" stroke-width="1" fill="none" fill-rule="evenodd">
        <g id="Extra-Large-Copy" transform="translate(-178.000000, -22.000000)">
            <g id="worth-it-logo-web" transform="translate(178.000000, 22.000000)">
                <g id="Group-2">
                    <g id="Group-24">
                        <mask id="mask-2" fill="white">
                            <use xlink:href="#path-1"></use>
                        </mask>
                        <g id="Clip-23"></g>
                        <polygon id="Fill-22" fill="#FFFEFC" mask="url(#mask-2)" points="-0.8179202 -0.817402599 79.8178238 -0.817402599 79.8178238 80.817894 -0.8179202 80.817894"></polygon>
                    </g>
                    <g id="Group-27" transform="translate(7.353983, 5.590196)">
                        <mask id="mask-4" fill="white">
                            <use xlink:href="#path-3"></use>
                        </mask>
                        <g id="Clip-26"></g>
                        <polygon id="Fill-25" fill="#FDCA40" mask="url(#mask-4)" points="-0.820049079 -0.816803689 64.9568129 -0.816803689 64.9568129 65.5156626 -0.820049079 65.5156626"></polygon>
                    </g>
                    <g id="Group-30" transform="translate(35.925525, 8.631943)">
                        <mask id="mask-6" fill="white">
                            <use xlink:href="#path-5"></use>
                        </mask>
                        <g id="Clip-29"></g>
                        <polygon id="Fill-28" fill="#413C58" mask="url(#mask-6)" points="-0.830514176 -0.814041437 8.05195045 -0.814041437 8.05195045 9.20276702 -0.830514176 9.20276702"></polygon>
                    </g>
                    <g id="Group-33" transform="translate(12.552889, 29.024933)">
                        <mask id="mask-8" fill="white">
                            <use xlink:href="#path-7"></use>
                        </mask>
                        <g id="Clip-32"></g>
                        <polygon id="Fill-31" fill="#413C58" mask="url(#mask-8)" points="-0.82632008 -0.812680206 5.55155981 -0.812680206 5.55155981 6.13686344 -0.82632008 6.13686344"></polygon>
                    </g>
                    <g id="Group-36" transform="translate(21.404238, 16.786025)">
                        <mask id="mask-10" fill="white">
                            <use xlink:href="#path-9"></use>
                        </mask>
                        <g id="Clip-35"></g>
                        <polygon id="Fill-34" fill="#413C58" mask="url(#mask-10)" points="-0.827307976 -0.798274878 4.42394808 -0.798274878 4.42394808 3.93040675 -0.827307976 3.93040675"></polygon>
                    </g>
                    <g id="Group-39" transform="translate(54.077608, 16.782405)">
                        <mask id="mask-12" fill="white">
                            <use xlink:href="#path-11"></use>
                        </mask>
                        <g id="Clip-38"></g>
                        <polygon id="Fill-37" fill="#413C58" mask="url(#mask-12)" points="-0.839487783 -0.806108534 4.89269233 -0.806108534 4.89269233 4.36436186 -0.839487783 4.36436186"></polygon>
                    </g>
                    <g id="Group-42" transform="translate(61.151423, 29.887470)">
                        <mask id="mask-14" fill="white">
                            <use xlink:href="#path-13"></use>
                        </mask>
                        <g id="Clip-41"></g>
                        <polygon id="Fill-40" fill="#413C58" mask="url(#mask-14)" points="-0.820277433 -0.823710612 5.57616341 -0.823710612 5.57616341 4.86583058 -0.820277433 4.86583058"></polygon>
                    </g>
                    <g id="Group-45" transform="translate(43.054590, 40.706880)">
                        <mask id="mask-16" fill="white">
                            <use xlink:href="#path-15"></use>
                        </mask>
                        <g id="Clip-44"></g>
                        <polygon id="Fill-43" fill="#4DBEDD" mask="url(#mask-16)" points="-0.817335292 -0.821030194 28.8604898 -0.821030194 28.8604898 17.3071039 -0.817335292 17.3071039"></polygon>
                    </g>
                    <g id="Group-48" transform="translate(53.441701, 41.201162)">
                        <mask id="mask-18" fill="white">
                            <use xlink:href="#path-17"></use>
                        </mask>
                        <g id="Clip-47"></g>
                        <polygon id="Fill-46" fill-opacity="0.220001" fill="#413C58" mask="url(#mask-18)" points="-0.814292998 -0.825322655 22.0669876 -0.825322655 22.0669876 5.27238162 -0.814292998 5.27238162"></polygon>
                    </g>
                    <g id="Group-51" transform="translate(43.054202, 39.595177)">
                        <mask id="mask-20" fill="white">
                            <use xlink:href="#path-19"></use>
                        </mask>
                        <g id="Clip-50"></g>
                        <polygon id="Fill-49" fill="#413C58" mask="url(#mask-20)" points="-0.819284619 -0.818223642 32.8930396 -0.818223642 32.8930396 20.8579048 -0.819284619 20.8579048"></polygon>
                    </g>
                    <g id="Group-54" transform="translate(7.926805, 40.706880)">
                        <mask id="mask-22" fill="white">
                            <use xlink:href="#path-21"></use>
                        </mask>
                        <g id="Clip-53"></g>
                        <polygon id="Fill-52" fill="#4DBEDD" mask="url(#mask-22)" points="-0.817125063 -0.821030194 28.8607 -0.821030194 28.8607 17.3071039 -0.817125063 17.3071039"></polygon>
                    </g>
                    <g id="Group-57" transform="translate(4.803244, 41.201162)">
                        <mask id="mask-24" fill="white">
                            <use xlink:href="#path-23"></use>
                        </mask>
                        <g id="Clip-56"></g>
                        <polygon id="Fill-55" fill-opacity="0.220001" fill="#413C58" mask="url(#mask-24)" points="-0.815434662 -0.825322655 22.1032949 -0.825322655 22.1032949 5.27238162 -0.815434662 5.27238162"></polygon>
                    </g>
                    <g id="Group-60" transform="translate(4.040300, 39.595666)">
                        <mask id="mask-26" fill="white">
                            <use xlink:href="#path-25"></use>
                        </mask>
                        <g id="Clip-59"></g>
                        <polygon id="Fill-58" fill="#413C58" mask="url(#mask-26)" points="-0.820135675 -0.818712865 32.9297162 -0.818712865 32.9297162 20.8574155 -0.820135675 20.8574155"></polygon>
                    </g>
                    <g id="Group-63" transform="translate(24.165060, 21.987157)">
                        <mask id="mask-28" fill="white">
                            <use xlink:href="#path-27"></use>
                        </mask>
                        <g id="Clip-62"></g>
                        <polygon id="Fill-61" fill="#413C58" mask="url(#mask-28)" points="-0.818257999 -0.817867567 32.4569326 -0.817867567 32.4569326 40.0658398 -0.818257999 40.0658398"></polygon>
                    </g>
                    <g id="Group-66" transform="translate(31.939688, 27.119557)">
                        <mask id="mask-30" fill="white">
                            <use xlink:href="#path-29"></use>
                        </mask>
                        <g id="Clip-65"></g>
                        <polygon id="Fill-64" fill="#FDCA40" mask="url(#mask-30)" points="-0.82086017 -0.81851295 16.421898 -0.81851295 16.421898 9.7456187 -0.82086017 9.7456187"></polygon>
                    </g>
                    <g id="Group-69" transform="translate(31.945492, 26.720310)">
                        <mask id="mask-32" fill="white">
                            <use xlink:href="#path-31"></use>
                        </mask>
                        <g id="Clip-68"></g>
                        <polygon id="Fill-67" fill-opacity="0.199997" fill="#FDCA40" mask="url(#mask-32)" points="-0.822830782 -0.818886075 16.6979736 -0.818886075 16.6979736 9.74802962 -0.822830782 9.74802962"></polygon>
                    </g>
                    <g id="Group-72" transform="translate(32.412140, 42.307396)">
                        <mask id="mask-34" fill="white">
                            <use xlink:href="#path-33"></use>
                        </mask>
                        <g id="Clip-71"></g>
                        <polygon id="Fill-70" fill="#F7F0F5" mask="url(#mask-34)" points="-0.8189054 -0.823319525 16.2553867 -0.823319525 16.2553867 12.9279632 -0.8189054 12.9279632"></polygon>
                    </g>
                    <g id="Group-75" transform="translate(34.661112, 64.760089)">
                        <mask id="mask-36" fill="white">
                            <use xlink:href="#path-35"></use>
                        </mask>
                        <g id="Clip-74"></g>
                        <polygon id="Fill-73" fill="#413C58" mask="url(#mask-36)" points="-0.774564433 -0.813641595 2.17018844 -0.813641595 2.17018844 7.61989412 -0.774564433 7.61989412"></polygon>
                    </g>
                    <g id="Group-78" transform="translate(39.270682, 64.760421)">
                        <mask id="mask-38" fill="white">
                            <use xlink:href="#path-37"></use>
                        </mask>
                        <g id="Clip-77"></g>
                        <polygon id="Fill-76" fill="#413C58" mask="url(#mask-38)" points="-0.84523006 -0.821344556 2.36722762 -0.821344556 2.36722762 12.1719669 -0.84523006 12.1719669"></polygon>
                    </g>
                    <g id="Group-81" transform="translate(43.743101, 64.760089)">
                        <mask id="mask-40" fill="white">
                            <use xlink:href="#path-39"></use>
                        </mask>
                        <g id="Clip-80"></g>
                        <polygon id="Fill-79" fill="#413C58" mask="url(#mask-40)" points="-0.845363457 -0.813641595 2.36709422 -0.813641595 2.36709422 7.61989412 -0.845363457 7.61989412"></polygon>
                    </g>
                </g>
                <g id="WORTH-IT" transform="translate(91.000000, 24.653133)">
                    <g id="Group-3" transform="translate(0.000000, 0.119754)">
                        <mask id="mask-42" fill="white">
                            <use xlink:href="#path-41"></use>
                        </mask>
                        <g id="Clip-2"></g>
                        <path d="M35.8045612,0.400702811 C37.5769427,1.04156627 38.4637798,1.89713855 38.4637798,2.96611446 C38.4637798,3.31330321 38.3047696,3.96787149 37.9873957,4.92916667 L30.365897,27.1714357 C30.3128936,27.3593876 30.2198145,27.586496 30.0885988,27.852761 C29.955444,28.1209839 29.6051045,28.4746988 29.0362877,28.9152108 C28.4668245,29.3563755 27.792001,29.5763052 27.011817,29.5763052 C26.2309867,29.5763052 25.5568095,29.3563755 24.9879927,28.9152108 C24.4185295,28.4746988 24.0416884,28.0407129 23.8568229,27.6126004 L19.2119167,13.7863956 C16.2747536,22.5496486 14.7796703,27.0115462 14.7266669,27.1714357 C14.6736635,27.3326305 14.5540827,27.559739 14.3692173,27.852761 C14.1837054,28.147741 13.9723383,28.4146586 13.7338231,28.6548193 C13.1255769,29.2695783 12.39775,29.5763052 11.551635,29.5763052 C10.7042272,29.5763052 10.0093658,29.3759538 9.46705068,28.975251 C8.92473558,28.5745482 8.5608221,28.1738454 8.37531026,27.7731426 L8.09801207,27.1714357 L0.436437617,4.92916667 C0.14556539,4.04748996 -0.000517106181,3.3935743 -0.000517106181,2.96611446 C-0.000517106181,1.89713855 0.886319994,1.05592369 2.65999419,0.441164659 C3.42660411,0.173594378 4.12146554,0.0398092369 4.74328572,0.0398092369 C5.3651059,0.0398092369 5.84148997,0.253865462 6.17243793,0.681325301 C6.50338588,1.10878514 6.80072194,1.76335341 7.06573886,2.64437751 L11.4320542,16.0307229 L15.7589401,2.84538153 C16.1293174,1.72289157 16.8034946,0.948895582 17.7827645,0.521435743 C18.2054988,0.334136546 18.7555705,0.240160643 19.430394,0.240160643 C20.1052176,0.240160643 20.734148,0.460742972 21.3158924,0.901907631 C21.8976369,1.34241968 22.2686606,1.77705823 22.4276707,2.20451807 L26.9924255,16.1103414 L31.3580945,2.64437751 C31.5694616,2.03092369 31.7420458,1.57670683 31.8745543,1.28237952 C32.0070627,0.988704819 32.2520418,0.700903614 32.6094914,0.420281124 C32.9662947,0.140311245 33.4090669,0 33.9384543,0 C34.4684881,0 35.0903083,0.133785141 35.8045612,0.400702811" id="Fill-1" fill="#FFFFFF" mask="url(#mask-42)"></path>
                    </g>
                    <path d="M45.7553648,15.1085843 C45.7553648,17.4866968 46.5155108,19.4171185 48.0370958,20.8991968 C49.5593271,22.3825803 51.2593137,23.1239458 53.1383483,23.1239458 C55.0167365,23.1239458 56.7102592,22.4021586 58.2189165,20.9598896 C59.7275738,19.5169679 60.481256,17.5800201 60.481256,15.1490462 C60.481256,12.7174197 59.7204636,10.7674197 58.199525,9.29708835 C56.6772937,7.82871486 54.9773071,7.09322289 53.0982725,7.09322289 C51.2192379,7.09322289 49.5263616,7.83458835 48.0177043,9.31731928 C46.509047,10.8000502 45.7553648,12.7304719 45.7553648,15.1085843 M52.9799845,0 C56.8951247,0 60.2963906,1.42921687 63.1805503,4.2876506 C66.06471,7.14738956 67.5074363,10.6936747 67.5074363,14.9284639 C67.5074363,19.163253 66.1312874,22.7695783 63.3796362,25.748745 C60.6273385,28.7285643 57.240293,30.2171687 53.2178533,30.2171687 C49.1947672,30.2171687 45.7747562,28.7481426 42.9565276,25.8087851 C40.1389453,22.8707329 38.7291845,19.3701305 38.7291845,15.3089357 C38.7291845,13.0913655 39.1260635,11.014759 39.9198215,9.07715863 C40.7142259,7.14021084 41.7723544,5.51716867 43.0954998,4.20737952 C44.4186453,2.89889558 45.9402302,1.86972892 47.6602547,1.12118474 C49.3802791,0.373945783 51.1539533,0 52.9799845,0" id="Fill-4" fill="#FFFFFF"></path>
                    <path d="M77.7746441,14.5471436 L82.8558587,14.5471436 C83.623115,14.5471436 84.3897249,14.2534689 85.158274,13.6654669 C85.9248839,13.0781175 86.3088353,12.1964408 86.3088353,11.0204367 C86.3088353,9.84508534 85.9248839,8.95688253 85.158274,8.35582831 C84.3897249,7.75412149 83.595967,7.45392068 82.7763537,7.45392068 L77.7746441,7.45392068 L77.7746441,14.5471436 Z M93.0176416,24.7670231 C93.4145206,25.7289709 93.6129601,26.424001 93.6129601,26.8514608 C93.6129601,27.8662701 92.792054,28.7211898 91.1515346,29.4155673 C90.3047733,29.7895131 89.6234859,29.9774649 89.1076725,29.9774649 C88.5912127,29.9774649 88.167832,29.8495532 87.8375304,29.5963404 C87.5065824,29.3424749 87.2622498,29.0820833 87.1032396,28.8145131 C86.8375763,28.3074347 85.8065959,25.8888604 84.0070664,21.560748 L82.7763537,21.6410191 L77.7746441,21.6410191 L77.7746441,26.1701355 C77.7746441,26.7848946 77.7552526,27.2456376 77.7151769,27.5523645 C77.6757476,27.8590914 77.5497029,28.2134588 77.3383358,28.6148143 C76.9673121,29.3352962 75.9350389,29.6961898 74.2421625,29.6961898 C72.3896296,29.6961898 71.304353,29.2021637 70.9876255,28.2134588 C70.8286153,27.759242 70.7491103,27.0655171 70.7491103,26.1296737 L70.7491103,3.88675201 C70.7491103,3.27264558 70.7685018,2.81190261 70.8085775,2.50452309 C70.8480068,2.19714357 70.9734051,1.8427761 71.186065,1.44207329 C71.5557959,0.720286145 72.5880691,0.360045181 74.2822383,0.360045181 L82.8558587,0.360045181 C85.1841293,0.360045181 87.4471152,1.21561747 89.6428774,2.92480422 C90.7016523,3.75361948 91.5749153,4.87610944 92.2633129,6.29162149 C92.9510641,7.70843876 93.2955861,9.28449297 93.2955861,11.0204367 C93.2955861,14.0400653 92.3033887,16.5245532 90.3183473,18.4752058 C90.9007381,19.8913705 91.7998565,21.9882078 93.0176416,24.7670231 L93.0176416,24.7670231 Z" id="Fill-6" fill="#FFFFFF"></path>
                    <path d="M97.1074344,0.319713855 L119.178173,0.319713855 C120.024288,0.319713855 120.646754,0.420215863 121.042987,0.620567269 C121.440512,0.820918675 121.704883,1.13547691 121.837391,1.56228414 C121.969253,1.99039659 122.035184,2.55098896 122.035184,3.24536647 C122.035184,3.9410492 121.969253,4.49446285 121.837391,4.90887048 C121.704883,5.32327811 121.479941,5.6097741 121.162568,5.77096888 C120.686183,6.01112952 120.01136,6.13120984 119.138097,6.13120984 L111.556674,6.13120984 L111.556674,26.2896938 C111.556674,26.9044528 111.53599,27.3586697 111.497207,27.6523444 C111.456484,27.9466717 111.338196,28.2873343 111.139757,28.6743323 C110.940671,29.0619829 110.589685,29.3354267 110.087446,29.4959689 C109.585207,29.656511 108.922664,29.7361295 108.103051,29.7361295 C107.282145,29.7361295 106.627359,29.656511 106.138047,29.4959689 C105.648089,29.3354267 105.304214,29.0619829 105.105774,28.6743323 C104.907335,28.2873343 104.7884,27.939493 104.748325,27.6327661 C104.708895,27.3253865 104.688857,26.8646436 104.688857,26.2492319 L104.688857,6.13120984 L97.0673586,6.13120984 C96.2205973,6.13120984 95.5987771,6.03136044 95.2025445,5.83035643 C94.8050191,5.63065763 94.5406485,5.3160994 94.4081401,4.88863956 C94.2756316,4.46183233 94.210347,3.90058735 94.210347,3.20555723 C94.210347,2.51052711 94.2756316,1.95711345 94.4081401,1.54270582 C94.5406485,1.12829819 94.7655897,0.841149598 95.0829637,0.68126004 C95.5593477,0.440446787 96.2341713,0.319713855 97.1074344,0.319713855" id="Fill-8" fill="#FFFFFF"></path>
                    <path d="M142.171816,1.44200803 C142.383183,1.04195783 142.740633,0.760682731 143.243519,0.600793173 C143.745758,0.440251004 144.381152,0.35997992 145.148408,0.35997992 C145.916311,0.35997992 146.524557,0.427198795 146.975086,0.560331325 C147.424322,0.694116466 147.768844,0.855311245 148.006713,1.04195783 C148.245228,1.22860442 148.430094,1.4961747 148.562602,1.84271084 C148.69511,2.29758032 148.761041,2.99195783 148.761041,3.92714859 L148.761041,26.1700703 C148.761041,26.7848293 148.741004,27.2455723 148.701574,27.5522992 C148.662145,27.8590261 148.5361,28.2133936 148.324733,28.614749 C147.953709,29.3352309 146.921436,29.6961245 145.22856,29.6961245 C143.375381,29.6961245 142.29075,29.2020984 141.973376,28.2133936 C141.814366,27.7591767 141.734861,27.0654518 141.734861,26.1296084 L141.734861,17.9935141 L131.216275,17.9935141 L131.216275,26.1700703 C131.216275,26.7848293 131.196884,27.2455723 131.156808,27.5522992 C131.116732,27.8590261 130.990688,28.2133936 130.77932,28.614749 C130.408943,29.3352309 129.37667,29.6961245 127.683794,29.6961245 C125.831261,29.6961245 124.745984,29.2020984 124.42861,28.2133936 C124.2696,27.7591767 124.190095,27.0654518 124.190095,26.1296084 L124.190095,3.88668675 C124.190095,3.27258032 124.210133,2.81183735 124.249562,2.50445783 C124.289638,2.19707831 124.41439,1.84271084 124.62705,1.44200803 C124.997427,0.720873494 126.029054,0.35997992 127.722577,0.35997992 C129.575109,0.35997992 130.673314,0.855311245 131.017189,1.84271084 C131.149698,2.29758032 131.216275,2.99195783 131.216275,3.92714859 L131.216275,12.1023996 L141.734861,12.1023996 L141.734861,3.88668675 C141.734861,3.27258032 141.754253,2.81183735 141.794975,2.50445783 C141.835051,2.19707831 141.959802,1.84271084 142.171816,1.44200803" id="Fill-10" fill="#FFFFFF"></path>
                    <path d="M162.006393,3.88675201 C162.006393,3.27264558 162.025785,2.81190261 162.066507,2.50452309 C162.105936,2.19714357 162.231334,1.8427761 162.443348,1.44207329 C162.813079,0.720286145 163.845998,0.360045181 165.539521,0.360045181 C167.391408,0.360045181 168.489612,0.854723896 168.834134,1.8427761 C168.966642,2.29699297 169.032573,2.99202309 169.032573,3.92721386 L169.032573,26.2099448 C169.032573,26.8508082 169.012535,27.3187299 168.97246,27.611752 C168.933677,27.9067319 168.806986,28.2539207 168.595619,28.6539709 C168.225241,29.375758 167.192322,29.735999 165.499445,29.735999 C163.646912,29.735999 162.561636,29.2289207 162.244908,28.2134588 C162.085898,27.7866516 162.006393,27.1053263 162.006393,26.1701355 L162.006393,3.88675201 Z" id="Fill-12" fill="#FFFFFF"></path>
                    <path d="M174.418364,0.319713855 L196.489102,0.319713855 C197.335217,0.319713855 197.957683,0.420215863 198.354562,0.620567269 C198.751441,0.820918675 199.015812,1.13547691 199.14832,1.56228414 C199.280182,1.99039659 199.34676,2.55098896 199.34676,3.24536647 C199.34676,3.9410492 199.280182,4.49446285 199.14832,4.90887048 C199.015812,5.32327811 198.790871,5.6097741 198.473497,5.77096888 C197.997759,6.01112952 197.322289,6.13120984 196.449026,6.13120984 L188.867603,6.13120984 L188.867603,26.2896938 C188.867603,26.9044528 188.847565,27.3586697 188.808136,27.6523444 C188.76806,27.9466717 188.649126,28.2873343 188.450686,28.6743323 C188.252247,29.0619829 187.901261,29.3354267 187.398375,29.4959689 C186.896136,29.656511 186.233593,29.7361295 185.41398,29.7361295 C184.593074,29.7361295 183.938935,29.656511 183.449623,29.4959689 C182.959665,29.3354267 182.615789,29.0619829 182.416703,28.6743323 C182.218264,28.2873343 182.099976,27.939493 182.059254,27.6327661 C182.020471,27.3253865 181.999787,26.8646436 181.999787,26.2492319 L181.999787,6.13120984 L174.378934,6.13120984 C173.531526,6.13120984 172.910353,6.03136044 172.513474,5.83035643 C172.115948,5.63065763 171.851578,5.3160994 171.719069,4.88863956 C171.586561,4.46183233 171.521276,3.90058735 171.521276,3.20555723 C171.521276,2.51052711 171.586561,1.95711345 171.719069,1.54270582 C171.851578,1.12829819 172.076519,0.841149598 172.394539,0.68126004 C172.870277,0.440446787 173.5451,0.319713855 174.418364,0.319713855" id="Fill-14" fill="#FFFFFF"></path>
                </g>
            </g>
        </g>
    </g>
</svg>